SplineFontDB: 3.0
FontName: russianroadsign-medium
FullName: Russian Road Sign
FamilyName: Russian Road Sign
Weight: Medium
Copyright: CC-BY-SA. Based on standards GOST 10807-78 and GOST R 52290-2004. Digitized by Alexander Sapozhnikov http://shoorick.ru
Version: 001.000
ItalicAngle: 0
UnderlinePosition: -100
UnderlineWidth: 50
Ascent: 800
Descent: 200
InvalidEm: 0
sfntRevision: 0x00010000
LayerCount: 2
Layer: 0 0 "Back" 1
Layer: 1 0 "Fore" 0
XUID: [1021 60 -802737613 7931729]
StyleMap: 0x0000
FSType: 0
OS2Version: 4
OS2_WeightWidthSlopeOnly: 0
OS2_UseTypoMetrics: 1
CreationTime: 1359148831
ModificationTime: 1546119410
PfmFamily: 17
TTFWeight: 500
TTFWidth: 5
LineGap: 90
VLineGap: 0
Panose: 2 0 6 3 0 0 0 0 0 0
OS2TypoAscent: 800
OS2TypoAOffset: 0
OS2TypoDescent: -200
OS2TypoDOffset: 0
OS2TypoLinegap: 90
OS2WinAscent: 1009
OS2WinAOffset: 0
OS2WinDescent: 350
OS2WinDOffset: 0
HheadAscent: 1009
HheadAOffset: 0
HheadDescent: -350
HheadDOffset: 0
OS2SubXSize: 650
OS2SubYSize: 699
OS2SubXOff: 0
OS2SubYOff: 140
OS2SupXSize: 650
OS2SupYSize: 699
OS2SupXOff: 0
OS2SupYOff: 479
OS2StrikeYSize: 49
OS2StrikeYPos: 258
OS2CapHeight: 560
OS2XHeight: 392
OS2Vendor: 'PfEd'
OS2CodePages: 0000009f.00000000
OS2UnicodeRanges: e0000eff.0000005b.00000000.00000000
MarkAttachClasses: 1
DEI: 91125
LangName: 1033 "" "" "" "FontForge 2.0 : Russian Road Sign : 23-12-2018"
Encoding: UnicodeBmp
UnicodeInterp: none
NameList: AGL For New Fonts
DisplaySize: -72
AntiAlias: 1
FitToEm: 0
WinInfo: 0 26 10
BeginPrivate: 7
BlueValues 23 [-14 0 392 406 560 574]
OtherBlues 11 [-168 -168]
BlueShift 1 9
StdHW 4 [84]
StdVW 4 [98]
StemSnapH 24 [60 70 77 84 91 122 147]
StemSnapV 7 [84 98]
EndPrivate
BeginChars: 65537 1057

StartChar: .notdef
Encoding: 65536 -1 0
Width: 500
Flags: MW
HStem: 0 50<100 400 100 450> 483 50<100 400 100 100>
VStem: 50 50<50 50 50 483> 400 50<50 483 483 483>
LayerCount: 2
Fore
SplineSet
50 0 m 1
 50 533 l 1
 450 533 l 1
 450 0 l 1
 50 0 l 1
100 50 m 1
 400 50 l 1
 400 483 l 1
 100 483 l 1
 100 50 l 1
EndSplineSet
EndChar

StartChar: exclam
Encoding: 33 33 2
Width: 252
Flags: MW
HStem: -5 122<109 143> 543 20G<101.5 150.5>
VStem: 65 122<39 73>
LayerCount: 2
Fore
SplineSet
187 56 m 0
 187 22 160 -5 126 -5 c 0
 92 -5 65 22 65 56 c 0
 65 90 92 117 126 117 c 0
 160 117 187 90 187 56 c 0
94 182 m 1
 94 182 67 462 67 504 c 0
 67 525 77 563 126 563 c 0
 175 563 185 525 185 504 c 0
 185 462 158 182 158 182 c 1
 94 182 l 1
EndSplineSet
EndChar

StartChar: quotedbl
Encoding: 34 34 3
Width: 378
Flags: MW
HStem: 364 196<77 77 77 147 231 301 231 231>
VStem: 77 70<364 364> 231 70<364 364>
LayerCount: 2
Fore
SplineSet
77 364 m 1
 63 560 l 1
 161 560 l 1
 147 364 l 1
 77 364 l 1
231 364 m 1
 217 560 l 1
 315 560 l 1
 301 364 l 1
 231 364 l 1
EndSplineSet
EndChar

StartChar: numbersign
Encoding: 35 35 4
Width: 694
Flags: MW
HStem: 0 21G<112 210 112 112 322 420 322 322> 140 84<56 133 56 147 245 343 455 532> 336 84<84 161 84 175 273 371 483 560> 540 20G<196 294 294 294 406 504 504 504>
VStem: 112 98<0 0> 322 98<0 0>
LayerCount: 2
Fore
SplineSet
259 336 m 1
 245 224 l 1
 357 224 l 1
 371 336 l 1
 259 336 l 1
196 560 m 1
 294 560 l 1
 273 420 l 1
 385 420 l 1
 406 560 l 1
 504 560 l 1
 483 420 l 1
 560 420 l 1
 560 336 l 1
 469 336 l 1
 455 224 l 1
 532 224 l 1
 532 140 l 1
 441 140 l 1
 420 0 l 1
 322 0 l 1
 343 140 l 1
 231 140 l 1
 210 0 l 1
 112 0 l 1
 133 140 l 1
 56 140 l 1
 56 224 l 1
 147 224 l 1
 161 336 l 1
 84 336 l 1
 84 420 l 1
 175 420 l 1
 196 560 l 1
EndSplineSet
EndChar

StartChar: dollar
Encoding: 36 36 5
Width: 588
Flags: MW
HStem: -14 91<259 353.5 259 378> 483 91<280 364>
VStem: 119 98<374.5 413 374.5 448> 257 44.5<-70 602> 336 44.5<-70 602> 420.462 104.538
LayerCount: 2
Fore
SplineSet
88 84 m 1
 157 141 l 1
 157 141 210 77 308 77 c 0
 399 77 420 133 420 154 c 0
 420 157.68359375 420.461914062 162.137695312 420.461914062 167.107421875 c 0
 420.461914062 190.462890625 410.262695312 225.2109375 294 245 c 0
 133 273 119 350 119 399 c 0
 119 497 203 574 322 574 c 0
 420 574 511 497 511 497 c 1
 448 427 l 1
 448 427 406 483 322 483 c 0
 238 483 217 427 217 399 c 0
 217 350 287 338 364 322 c 0
 462 301 525 245 525 161 c 0
 525 91 448 -14 308 -14 c 0
 182 -14 88 84 88 84 c 1
301.5 -70 m 1
 257 -70 l 1
 257 602 l 1
 301.5 602 l 1
 301.5 -70 l 1
380.5 -70 m 1
 336 -70 l 1
 336 602 l 1
 380.5 602 l 1
 380.5 -70 l 1
EndSplineSet
EndChar

StartChar: percent
Encoding: 37 37 6
Width: 494
Flags: MW
HStem: -7 64<327 345 327 362> 119 64<327 345> 313 64<149 167 149 184> 439 64<149 167>
VStem: 63 64<399 417 399 434> 189 64<399 417> 241 64<79 97 79 114> 367 64<79 97>
LayerCount: 2
Fore
SplineSet
359 513 m 1xf9
 415 481 l 1
 142 -9 l 1
 86 23 l 1
 359 513 l 1xf9
336 183 m 0
 388 183 431 140 431 88 c 0
 431 36 388 -7 336 -7 c 0
 284 -7 241 36 241 88 c 0xfb
 241 140 284 183 336 183 c 0
336 119 m 0
 318 119 305 106 305 88 c 0
 305 70 318 57 336 57 c 0
 354 57 367 70 367 88 c 0
 367 106 354 119 336 119 c 0
158 503 m 0
 210 503 253 460 253 408 c 0xfd
 253 356 210 313 158 313 c 0
 106 313 63 356 63 408 c 0
 63 460 106 503 158 503 c 0
158 439 m 0
 140 439 127 426 127 408 c 0
 127 390 140 377 158 377 c 0
 176 377 189 390 189 408 c 0
 189 426 176 439 158 439 c 0
EndSplineSet
EndChar

StartChar: ampersand
Encoding: 38 38 7
Width: 609
Flags: MW
HStem: -14 84<220.5 267.407 220.5 283.253> 0 21G<427 539 427 427> 492 82<287 301>
VStem: 63 93<122.5 157.686 122.5 193.107> 147 91<433.5 461.5 433.5 479.5> 348 86<429.186 460.686>
LayerCount: 2
Fore
SplineSet
294 574 m 0xac
 385 574 434 497 434 448 c 0
 434 385 378 329 331.396484375 293.68359375 c 1
 421.236328125 166.59375 l 1
 443.264648438 185.614257812 458 221.375 460 226 c 1
 525 178 l 1
 510.346679688 148.692382812 491.791992188 125.173828125 467.98828125 100.45703125 c 1
 539 0 l 1
 427 0 l 1x6c
 399.40625 39.859375 l 1
 367.08203125 15.765625 314.505859375 -14 252 -14 c 0
 147 -14 63 42 63 140 c 0xb4
 63 246.21484375 148.798828125 288.38671875 207.9609375 316.390625 c 1
 175 364 l 1
 175 364 147 385 147 448 c 0
 147 511 203 574 294 574 c 0xac
294 492 m 0
 280 492 238 483 238 440 c 0
 238 427 243.814453125 418.279296875 252 406 c 0
 266 385 291.029296875 350.787109375 291.029296875 350.787109375 c 1
 322 378 348 413 348 445.37109375 c 0
 348 476 308 492 294 492 c 0
251.533203125 253.451171875 m 1
 183.668945312 217.41015625 156 175.37109375 156 140 c 0
 156 105 189 70 252 70 c 0xb4
 282.813476562 70 321.572265625 83.7841796875 353.681640625 105.904296875 c 1
 251.533203125 253.451171875 l 1
EndSplineSet
EndChar

StartChar: quotesingle
Encoding: 39 39 8
Width: 245
Flags: MW
HStem: 334 112<105.5 124.5>
VStem: 142 38<331 338 338 338>
LayerCount: 2
Fore
SplineSet
121 446 m 0
 135 446 148 440 158 432 c 0
 164 427 180 413 180 364 c 0
 180 294 105 252 105 252 c 1
 98 269 l 1
 98 269 142 296 142 331 c 2
 142 338 l 1
 136 335 128 334 121 334 c 0
 90 334 65 359 65 390 c 0
 65 421 90 446 121 446 c 0
EndSplineSet
EndChar

StartChar: parenleft
Encoding: 40 40 9
Width: 364
Flags: MW
HStem: 554 20G<224 224>
VStem: 77 98<84 308 84 315>
LayerCount: 2
Fore
SplineSet
287 539 m 1
 287 539 175 420 175 196 c 0
 175 -28 287 -147 287 -147 c 1
 224 -182 l 1
 224 -182 77 -42 77 196 c 0
 77 434 224 574 224 574 c 1
 287 539 l 1
EndSplineSet
EndChar

StartChar: parenright
Encoding: 41 41 10
Width: 364
Flags: MW
HStem: 554 20G<140 140>
VStem: 189 98<84 308>
LayerCount: 2
Fore
SplineSet
77 539 m 1
 77 539 189 420 189 196 c 0
 189 -28 77 -147 77 -147 c 1
 140 -182 l 1
 140 -182 287 -42 287 196 c 0
 287 434 140 574 140 574 c 1
 77 539 l 1
EndSplineSet
EndChar

StartChar: asterisk
Encoding: 42 42 11
Width: 466
Flags: MW
VStem: 70 326<293 293 293 379>
LayerCount: 2
Fore
SplineSet
233 504 m 0
 245 504 265 501 277 498 c 1
 261 384 l 1
 352 456 l 1
 370 438 390 403 396 379 c 1
 289 336 l 1
 396 293 l 1
 390 269 370 234 352 216 c 1
 261 288 l 1
 277 173 l 1
 265 170 245 168 233 168 c 0
 221 168 201 171 189 174 c 1
 205 288 l 1
 114 216 l 1
 96 234 76 269 70 293 c 1
 177 336 l 1
 70 379 l 1
 76 403 96 438 114 456 c 1
 205 384 l 1
 189 499 l 1
 201 502 221 504 233 504 c 0
EndSplineSet
EndChar

StartChar: plus
Encoding: 43 43 12
Width: 504
Flags: MW
HStem: 252 84<56 210 56 210 294 448>
VStem: 210 84<98 252 98 252 336 490>
LayerCount: 2
Fore
SplineSet
210 490 m 1
 294 490 l 1
 294 336 l 1
 448 336 l 1
 448 252 l 1
 294 252 l 1
 294 98 l 1
 210 98 l 1
 210 252 l 1
 56 252 l 1
 56 336 l 1
 210 336 l 1
 210 490 l 1
EndSplineSet
EndChar

StartChar: comma
Encoding: 44 44 13
Width: 224
Flags: MW
HStem: -91 208<49 128.845 49 128.845>
VStem: 51 122<51.0688 72.8447 51.0688 72.8447>
LayerCount: 2
Fore
SplineSet
112 117 m 0
 145.689453125 117 173 89.689453125 173 56 c 0
 173 46.1376953125 169.755859375 37.232421875 166.5 28.59375 c 0
 161 14 105 -77 95 -91 c 1
 49 -91 l 1
 103.688476562 -4.4375 l 1
 73.93359375 -0.3798828125 51 25.1328125 51 56 c 0
 51 89.689453125 78.310546875 117 112 117 c 0
EndSplineSet
EndChar

StartChar: hyphen
Encoding: 45 45 14
Width: 336
Flags: MW
HStem: 147 91<70 266 70 266>
VStem: 70 196<147 238 147 238>
LayerCount: 2
Fore
SplineSet
70 147 m 1
 70 238 l 1
 266 238 l 1
 266 147 l 1
 70 147 l 1
EndSplineSet
EndChar

StartChar: period
Encoding: 46 46 15
Width: 224
Flags: MW
HStem: -5 122<95.1641 128.836>
VStem: 51 122<39.1641 72.8359>
LayerCount: 2
Fore
SplineSet
173 56 m 0
 173 22.328125 145.671875 -5 112 -5 c 0
 78.328125 -5 51 22.328125 51 56 c 0
 51 89.671875 78.328125 117 112 117 c 0
 145.671875 117 173 89.671875 173 56 c 0
EndSplineSet
EndChar

StartChar: slash
Encoding: 47 47 16
Width: 523
Flags: W
LayerCount: 2
Fore
SplineSet
138.998046875 -84.00390625 m 1
 481 602 l 1
 377 602 l 2
 376 601 42 -84 42 -84 c 1
 138.998046875 -84.00390625 l 1
EndSplineSet
EndChar

StartChar: zero
Encoding: 48 48 17
Width: 504
Flags: MW
HStem: -7 87<225 279 225 308> 480 87<225 279>
VStem: 63 98<210 350 210 364> 343 98<210 350>
LayerCount: 2
Fore
SplineSet
252 567 m 0
 364 567 441 439 441 280 c 0
 441 112 364 -7 252 -7 c 0
 140 -7 63 112 63 280 c 0
 63 448 140 567 252 567 c 0
252 480 m 0
 198 480 161 420 161 280 c 0
 161 140 198 80 252 80 c 0
 306 80 343 140 343 280 c 0
 343 420 306 480 252 480 c 0
EndSplineSet
EndChar

StartChar: one
Encoding: 49 49 18
Width: 322
Flags: MW
HStem: 0 21G<119 217 119 119> 540 20G<133 217 217 217>
VStem: 119 98<0 434 434 434>
LayerCount: 2
Fore
SplineSet
11 430 m 1
 133 560 l 1
 217 560 l 1
 217 0 l 1
 119 0 l 1
 119 434 l 1
 44 387 l 1
 11 430 l 1
EndSplineSet
EndChar

StartChar: two
Encoding: 50 50 19
Width: 490
Flags: MW
HStem: 0 91<182 392> 493 74<217 262.5>
VStem: 319 94<392 437.5>
LayerCount: 2
Fore
SplineSet
70 483 m 1
 112 531 168 567 252 567 c 0
 329 567 413 504 413 420 c 0
 413 350 400 328 364 284 c 0
 320 228 254 167 182 91 c 1
 413 91 l 1
 413 70 406 35 392 0 c 1
 56 0 l 1
 56 84 l 1
 133 154 197 221 260 296 c 0
 294 336 319 364 319 420 c 0
 319 455 287 493 238 493 c 0
 196 493 161 455 126 420 c 1
 70 483 l 1
EndSplineSet
EndChar

StartChar: three
Encoding: 51 51 20
Width: 488
Flags: MW
HStem: -14 91<182 227.5 173 276.5> 245 77<168 168> 490 85<214 241.5>
VStem: 294 98<409.5 444.5> 316 100<170 182>
LayerCount: 2
Fore
SplineSet
63 525 m 1xf0
 98 546 186 575 242 575 c 0
 312 575 392 525 392 448 c 0xf0
 392 371 336 315 280 308 c 1
 315 301 416 259 416 168 c 0
 416 84 343 -14 210 -14 c 0
 154 -14 67 10 67 10 c 1
 55 108 l 1
 89 85 150 77 196 77 c 0
 259 77 315 105 316 170 c 0xe8
 316 194 308 252 217 252 c 0
 200 252 182 252 168 245 c 1
 168 322 l 1
 238 336 294 385 294 427 c 0
 294 462 259 490 224 490 c 0
 168 490 140 476 100 442 c 1
 63 525 l 1xf0
EndSplineSet
EndChar

StartChar: four
Encoding: 52 52 21
Width: 510
Flags: MW
HStem: 0 21G<308 406 308 308> 112 84<147 308 42 42 406 444 406 406> 540 20G<315 399 399 399>
VStem: 308 91<0 560 112 560 196 413 413 413> 308 98<0 112 0 112 0 413>
LayerCount: 2
Fore
SplineSet
315 560 m 1xe8
 399 560 l 1
 399 196 l 1xf0
 476 196 l 1
 444 112 l 1
 406 112 l 1
 406 0 l 1
 308 0 l 1
 308 112 l 1
 42 112 l 1
 42 196 l 1
 315 560 l 1xe8
308 413 m 1
 147 196 l 1
 308 196 l 1
 308 413 l 1
EndSplineSet
EndChar

StartChar: five
Encoding: 53 53 22
Width: 492
Flags: MW
HStem: -7 91<178.5 224 173 276.5> 294 77<243 255.5> 469 91<168 371 168 168>
VStem: 77 91<336 469 336 560> 322 105<154 213.5>
LayerCount: 2
Fore
SplineSet
371 469 m 1
 168 469 l 1
 168 336 l 1
 189 364 227 371 259 371 c 0
 336 371 427 308 427 196 c 0
 427 84 343 -7 210 -7 c 0
 147 -7 77 21 77 21 c 1
 63 112 l 1
 97 89 150 84 196 84 c 0
 252 84 322 119 322 189 c 0
 322 238 287 294 224 294 c 0
 182 294 154 259 140 252 c 1
 77 287 l 1
 77 560 l 1
 399 560 l 1
 371 469 l 1
EndSplineSet
EndChar

StartChar: six
Encoding: 54 54 23
Width: 511
Flags: MW
HStem: -7 91<221 284 221 311.5> 280 81<269.5 294> 490 79<231 308 206.5 325.5>
VStem: 350 91<171.5 224>
LayerCount: 2
Fore
SplineSet
280 569 m 0
 336 569 399 546 399 546 c 1
 413 461 l 1
 413 461 357 490 294 490 c 0
 168 490 162 301 162 301 c 1
 196 329 245 361 294 361 c 0
 336 361 441 329 441 196 c 0
 441 84 357 -7 266 -7 c 0
 147 -7 70 91 70 266 c 0
 70 420 133 569 280 569 c 0
280 280 m 0
 231 280 164 210 164 210 c 1
 164 210 189 84 253 84 c 0
 315 84 350 147 350 196 c 0
 350 252 308 280 280 280 c 0
EndSplineSet
EndChar

StartChar: seven
Encoding: 55 55 24
Width: 450
Flags: MW
HStem: 0 21G<119 224 119 119> 469 91<49 406 70 308>
VStem: 119 105<0 0>
LayerCount: 2
Fore
SplineSet
49 469 m 1
 70 560 l 1
 406 560 l 1
 406 490 l 1
 336 350 266 203 224 0 c 1
 119 0 l 1
 147 168 231 343 308 469 c 1
 49 469 l 1
EndSplineSet
EndChar

StartChar: eight
Encoding: 56 56 25
Width: 504
Flags: MW
HStem: -7 84<231 273 231 322> 487 80<231 273>
VStem: 63 98<122.5 171.5 122.5 203> 77 98<399 444.5> 329 98<294 469 399 444.5> 343 98<122.5 175>
LayerCount: 2
Fore
SplineSet
252 567 m 0xd0
 343 567 427 518 427 420 c 0
 427 322 329 294 329 294 c 1xd8
 329 294 441 252 441 154 c 0
 441 84 392 -7 252 -7 c 0
 112 -7 63 84 63 154 c 0xe4
 63 252 175 294 175 294 c 1
 175 294 77 322 77 420 c 0
 77 518 161 567 252 567 c 0xd0
252 487 m 0
 210 487 175 469 175 420 c 0
 175 378 252 336 252 336 c 1
 252 336 329 378 329 420 c 0
 329 469 294 487 252 487 c 0
252 252 m 1
 252 252 161 196 161 147 c 0
 161 98 210 77 252 77 c 0
 294 77 343 98 343 147 c 0xe4
 343 203 252 252 252 252 c 1
EndSplineSet
EndChar

StartChar: nine
Encoding: 57 57 26
Width: 504
Flags: MW
HStem: -10 84<182 266 171.5 290.5> 203 84<210 227.5> 483 90<214 278.5>
VStem: 63 91<343 395.5 343 420>
LayerCount: 2
Fore
SplineSet
210 -10 m 0
 154 -10 91 21 91 21 c 1
 80 107 l 1
 80 107 140 74 203 74 c 0
 329 74 336 259 336 259 c 1
 301 231 252 203 203 203 c 0
 161 203 63 231 63 364 c 0
 63 476 140 573 231 573 c 0
 350 573 434 483 434 308 c 0
 434 140 371 -10 210 -10 c 0
224 287 m 0
 294 287 333 356 333 356 c 1
 329 385 312 483 245 483 c 0
 183 483 154 420 154 371 c 0
 154 315 196 287 224 287 c 0
EndSplineSet
EndChar

StartChar: colon
Encoding: 58 58 27
Width: 224
Flags: MW
HStem: -5 122<95.1641 128.836> 275 122<95.1641 128.836>
VStem: 51 122<39.1641 72.8359 319.164 352.836>
LayerCount: 2
Fore
SplineSet
173 56 m 0
 173 22.328125 145.671875 -5 112 -5 c 0
 78.328125 -5 51 22.328125 51 56 c 0
 51 89.671875 78.328125 117 112 117 c 0
 145.671875 117 173 89.671875 173 56 c 0
173 336 m 0
 173 302.328125 145.671875 275 112 275 c 0
 78.328125 275 51 302.328125 51 336 c 0
 51 369.671875 78.328125 397 112 397 c 0
 145.671875 397 173 369.671875 173 336 c 0
EndSplineSet
EndChar

StartChar: semicolon
Encoding: 59 59 28
Width: 224
Flags: MW
HStem: -91 208<49 128.845 49 128.845> 275 122<95.1641 128.836>
VStem: 51 122<51.0688 72.8447 51.0688 72.8447 319.164 352.836>
LayerCount: 2
Fore
SplineSet
173 336 m 0
 173 302.328125 145.671875 275 112 275 c 0
 78.328125 275 51 302.328125 51 336 c 0
 51 369.671875 78.328125 397 112 397 c 0
 145.671875 397 173 369.671875 173 336 c 0
112 117 m 0
 145.689453125 117 173 89.689453125 173 56 c 0
 173 46.1376953125 169.755859375 37.232421875 166.5 28.59375 c 0
 161 14 105 -77 95 -91 c 1
 49 -91 l 1
 103.688476562 -4.4375 l 1
 73.93359375 -0.3798828125 51 25.1328125 51 56 c 0
 51 89.689453125 78.310546875 117 112 117 c 0
EndSplineSet
EndChar

StartChar: less
Encoding: 60 60 29
Width: 504
Flags: W
LayerCount: 2
Fore
SplineSet
448 504 m 1
 448 413 l 1
 168 301 l 1
 146 294 l 1
 168 287 l 1
 448 175 l 1
 448 84 l 1
 56 252 l 1
 56 336 l 1
 448 504 l 1
EndSplineSet
EndChar

StartChar: equal
Encoding: 61 61 30
Width: 504
Flags: MW
HStem: 168 84<56 448 56 448> 336 84<56 448 56 448>
LayerCount: 2
Fore
SplineSet
56 168 m 1
 56 252 l 1
 448 252 l 1
 448 168 l 1
 56 168 l 1
56 336 m 1
 56 420 l 1
 448 420 l 1
 448 336 l 1
 56 336 l 1
EndSplineSet
EndChar

StartChar: greater
Encoding: 62 62 31
Width: 504
Flags: W
LayerCount: 2
Fore
SplineSet
56 84 m 1
 56 175 l 1
 336 287 l 1
 358 294 l 1
 336 301 l 1
 56 413 l 1
 56 504 l 1
 448 336 l 1
 448 252 l 1
 56 84 l 1
EndSplineSet
EndChar

StartChar: question
Encoding: 63 63 32
Width: 476
Flags: MW
HStem: -5 122<175.667 216.333> 490 77<227.333 231 197.333 240.333>
VStem: 135 122<35.6665 76.3335> 301 98<425.333 431.333>
LayerCount: 2
Fore
SplineSet
135 56 m 0
 135 96.6669921875 155.333007812 117 196 117 c 0
 236.666992188 117 257 96.6669921875 257 56 c 0
 257 15.3330078125 236.666992188 -5 196 -5 c 0
 155.333007812 -5 135 15.3330078125 135 56 c 0
154 175 m 1
 156.5 189.5 l 2
 158.166992188 199.166992188 162.5 212.333007812 169.5 229 c 0
 176.5 245.666992188 185.333007812 261 196 275 c 0
 203.333007812 285 216.833007812 300 236.5 320 c 0
 256.166992188 340 271.833007812 358 283.5 374 c 0
 295.166992188 390 301 405.333007812 301 420 c 0
 301 442.666992188 294 460 280 472 c 0
 266 484 249.666992188 490 231 490 c 0
 223.666992188 490 216.166992188 489.333007812 208.5 488 c 0
 200.833007812 486.666992188 194.166992188 485 188.5 483 c 0
 182.833007812 481 176.666992188 478 170 474 c 0
 163.333007812 470 158.166992188 466.833007812 154.5 464.5 c 0
 150.833007812 462.166992188 145.666992188 458.166992188 139 452.5 c 0
 132.333007812 446.831054688 128 443.1640625 126 441.5 c 0
 124 439.829101562 119.833007812 435.662109375 113.5 429 c 0
 107.166992188 422.33203125 103.666992188 418.665039062 103 418 c 2
 46 483 l 1
 102 539 163.666992188 567 231 567 c 0
 282.333984375 566.997070312 323.166992188 555.831054688 353.5 533.5 c 0
 383.833984375 511.166992188 399 478 399 434 c 0
 399 416.666992188 396.5 400.166992188 391.5 384.5 c 0
 386.5 368.833007812 378.833007812 353.833007812 368.5 339.5 c 0
 358.166992188 325.166992188 349.5 314 342.5 306 c 0
 335.5 298 325 287.5 311 274.5 c 0
 297 261.5 289 254 287 252 c 0
 280.333007812 245.333007812 274.833007812 239.333007812 270.5 234 c 0
 266.166992188 228.666015625 262.833007812 222.833007812 260.5 216.5 c 0
 258.166992188 210.166015625 256.666992188 206 256 204 c 0
 255.333007812 202 254.5 197 253.5 189 c 0
 252.5 181 252 176.333007812 252 175 c 2
 154 175 l 1
EndSplineSet
EndChar

StartChar: at
Encoding: 64 64 33
Width: 633
Flags: MW
HStem: -14 81<275.5 338.5 275.5 370.5> 152 70<375 389> 493 81<280.5 354.5>
VStem: 66 75<217 343 217 361> 235 91<260 316 260 336.5> 453 84<284 358 358 358>
LayerCount: 2
Fore
SplineSet
453 358 m 1
 416 356 326 348 326 284 c 0
 326 236 368 222 382 222 c 0
 424 222 453 278 453 284 c 2
 453 358 l 1
537 390 m 2
 537 256 l 2
 537 222.891601562 555.791015625 221.997070312 569.672851562 221.997070312 c 0
 570.465820312 221.997070312 571.243164062 222 572 222 c 2
 537 152 l 1
 488 152 460 158 453 214 c 1
 439 186 417 152 361 152 c 0
 305 152 235 194 235 278 c 0
 235 395 408 414 448 417 c 1
 446.958984375 425.958007812 445 434 439 441 c 0
 413 472 385 493 324 493 c 0
 237 493 141 406 141 280 c 0
 141 154 237 67 314 67 c 0
 363 67 387 85 406 105 c 1
 406 104 480 46 480 46 c 1
 480 46 427 -14 314 -14 c 0
 160 -14 66 118 66 280 c 0
 66 442 160 574 314 574 c 0
 409 574 484 524 524 449 c 0
 529 440 537 410 537 390 c 2
EndSplineSet
EndChar

StartChar: A
Encoding: 65 65 34
Width: 616
Flags: MW
HStem: 0 21G<70 175 70 70 441 546 441 441> 112 84<238 378 238 406 210 378> 540 20G<252 364 364 364>
LayerCount: 2
Fore
SplineSet
238 196 m 1
 378 196 l 1
 308 434 l 1
 238 196 l 1
252 560 m 1
 364 560 l 1
 546 0 l 1
 441 0 l 1
 406 112 l 1
 210 112 l 1
 175 0 l 1
 70 0 l 1
 252 560 l 1
EndSplineSet
EndChar

StartChar: B
Encoding: 66 66 35
Width: 560
Flags: MW
HStem: 0 84<189 308 308 309> 252 80<189 301 189 301 301 308> 476 84<189 189 189 301>
VStem: 91 98<84 252 332 476> 371 101<385 428.5> 392 98<148 188>
LayerCount: 2
Fore
SplineSet
91 560 m 1xf4
 308 560 l 2
 413 560 472 480 472 406 c 0xf8
 472 364 441 315 392 294 c 1
 448 273 490 231 490 168 c 0
 490 77 413 0 309 0 c 2
 91 0 l 1
 91 560 l 1xf4
189 476 m 1
 189 332 l 1
 301 332 l 2
 343 332 371 362 371 404 c 0
 371 453 336 476 301 476 c 2
 189 476 l 1
189 252 m 1
 189 84 l 1
 308 84 l 2
 364 84 392 128 392 168 c 0xf4
 392 208 364 252 308 252 c 2
 189 252 l 1
EndSplineSet
EndChar

StartChar: C
Encoding: 67 67 36
Width: 560
Flags: MW
HStem: -14 91<255.5 319.958 255.5 347.195> 483 91<255.5 319.958>
VStem: 66 95<217 343 217 361.186>
LayerCount: 2
Fore
SplineSet
294 574 m 0
 400.390625 574 462 511 497 420 c 1
 403 385 l 1
 382 455 345.916992188 483 294 483 c 0
 217 483 161 406 161 280 c 0
 161 154 217 77 294 77 c 0
 345.916992188 77 382 105 403 175 c 1
 497 140 l 1
 462 49 400.390625 -14 294 -14 c 0
 140 -14 66 117.627929688 66 280 c 0
 66 442.372070312 140 574 294 574 c 0
EndSplineSet
EndChar

StartChar: D
Encoding: 68 68 37
Width: 588
Flags: MW
HStem: 0 84<189 273 273 280> 476 84<189 273 189 189>
VStem: 91 98<84 476 84 560 84 560> 420 102<213.5 346.5>
LayerCount: 2
Fore
SplineSet
280 560 m 2
 434 560 522 442 522 280 c 0
 522 118 434 0 280 0 c 2
 91 0 l 1
 91 560 l 1
 280 560 l 2
273 476 m 2
 189 476 l 1
 189 84 l 1
 273 84 l 2
 350 84 420 147 420 280 c 0
 420 413 350 476 273 476 c 2
EndSplineSet
EndChar

StartChar: E
Encoding: 69 69 38
Width: 539
Flags: MW
HStem: 0 84<189 448 189 448> 252 84<189 392 189 392> 469 91<189 441 189 189>
VStem: 91 98<84 252 336 469>
LayerCount: 2
Fore
SplineSet
91 0 m 1
 91 560 l 1
 441 560 l 1
 441 469 l 1
 189 469 l 1
 189 336 l 1
 392 336 l 1
 392 252 l 1
 189 252 l 1
 189 84 l 1
 448 84 l 1
 448 0 l 1
 91 0 l 1
EndSplineSet
EndChar

StartChar: F
Encoding: 70 70 39
Width: 511
Flags: MW
HStem: 0 21G<91 91 91 189> 238 84<189 392 189 392> 469 91<189 448 189 189>
VStem: 91 98<0 238 322 469>
LayerCount: 2
Fore
SplineSet
91 0 m 1
 91 560 l 1
 448 560 l 1
 448 469 l 1
 189 469 l 1
 189 322 l 1
 392 322 l 1
 392 238 l 1
 189 238 l 1
 189 0 l 1
 91 0 l 1
EndSplineSet
EndChar

StartChar: G
Encoding: 71 71 40
Width: 588
Flags: MW
HStem: -14 91<269.5 325.5 269.5 335> 0 21G<441 525 441 441> 196 84<322 420 322 525> 483 91<269.5 334>
VStem: 71 104<217 343 217 361> 420 105<49 49 171.5 196>
LayerCount: 2
Fore
SplineSet
308 574 m 0xbc
 414 574 476 511 511 420 c 1
 417 385 l 1
 396 455 360 483 308 483 c 0
 231 483 175 406 175 280 c 0
 175 154 231 77 308 77 c 0xbc
 343 77 364 84 385 105 c 0
 413 133 420 147 420 196 c 1
 322 196 l 1
 322 280 l 1
 525 280 l 1
 525 0 l 1
 441 0 l 1x7c
 420 49 l 1
 396 15 362 -14 308 -14 c 0
 154 -14 71 118 71 280 c 0
 71 442 154 574 308 574 c 0xbc
EndSplineSet
EndChar

StartChar: H
Encoding: 72 72 41
Width: 588
Flags: MW
HStem: 0 21G<91 91 91 189 399 399 399 497> 252 84<189 399 189 399> 540 20G<91 189 189 189 399 497 497 497>
VStem: 91 98<0 252 336 560> 399 98<0 252 252 252 336 560 0 560>
LayerCount: 2
Fore
SplineSet
91 0 m 1
 91 560 l 1
 189 560 l 1
 189 336 l 1
 399 336 l 1
 399 560 l 1
 497 560 l 1
 497 0 l 1
 399 0 l 1
 399 252 l 1
 189 252 l 1
 189 0 l 1
 91 0 l 1
EndSplineSet
EndChar

StartChar: I
Encoding: 73 73 42
Width: 280
Flags: MW
HStem: 0 21G<91 91 91 189> 540 20G<91 189 189 189>
VStem: 91 98<0 560 0 560>
LayerCount: 2
Fore
SplineSet
91 0 m 1
 91 560 l 1
 189 560 l 1
 189 0 l 1
 91 0 l 1
EndSplineSet
EndChar

StartChar: J
Encoding: 74 74 43
Width: 392
Flags: MW
HStem: -14 98<122.5 147 108.5 189> 540 20G<196 294 294 294>
VStem: 196 98<153.554 560>
LayerCount: 2
Fore
SplineSet
42 98 m 1
 42 98 84 84 133 84 c 0
 161 84 196 105 196 153.553710938 c 2
 196 560 l 1
 294 560 l 1
 294 125.774414062 l 2
 294 59.8310546875 238 -14 140 -14 c 0
 105 -14 35 0 35 0 c 1
 42 98 l 1
EndSplineSet
EndChar

StartChar: K
Encoding: 75 75 44
Width: 583
Flags: MW
HStem: 0 21G<95 193 95 95 403 403 403 529> 540 20G<95 193 193 193 389 515 515 515>
VStem: 95 98<0 560 0 560>
LayerCount: 2
Fore
SplineSet
403 0 m 1
 194 296 l 1
 389 560 l 1
 515 560 l 1
 314 297 l 1
 529 0 l 1
 403 0 l 1
193 560 m 1
 193 0 l 1
 95 0 l 1
 95 560 l 1
 193 560 l 1
EndSplineSet
EndChar

StartChar: L
Encoding: 76 76 45
Width: 504
Flags: MW
HStem: 0 84<189 441 189 441> 540 20G<91 189 189 189>
VStem: 91 98<84 560 84 560 84 560>
LayerCount: 2
Fore
SplineSet
91 0 m 1
 91 560 l 1
 189 560 l 1
 189 84 l 1
 441 84 l 1
 441 0 l 1
 91 0 l 1
EndSplineSet
EndChar

StartChar: M
Encoding: 77 77 46
Width: 700
Flags: MW
HStem: 0 21G<84 84 84 182 525 525 525 616> 540 20G<84 196 196 196 504 616 616 616>
VStem: 84 98<0 406 0 560> 518 98<406 406> 525 91<0 560>
LayerCount: 2
Fore
SplineSet
84 0 m 1xf0
 84 560 l 1
 196 560 l 1
 350 301 l 1
 504 560 l 1
 616 560 l 1xe8
 616 0 l 1xf0
 525 0 l 1xe8
 518 406 l 1
 350 112 l 1
 182 406 l 1
 182 0 l 1
 84 0 l 1xf0
EndSplineSet
EndChar

StartChar: N
Encoding: 78 78 47
Width: 588
Flags: MW
HStem: 0 21G<84 84 84 182 392 392 392 504> 540 20G<84 196 196 196 406 504 504 504>
VStem: 84 98<0 406 0 560> 406 98<161 560 0 560>
LayerCount: 2
Fore
SplineSet
84 0 m 1
 84 560 l 1
 196 560 l 1
 406 161 l 1
 406 560 l 1
 504 560 l 1
 504 0 l 1
 392 0 l 1
 182 406 l 1
 182 0 l 1
 84 0 l 1
EndSplineSet
EndChar

StartChar: O
Encoding: 79 79 48
Width: 588
Flags: MW
HStem: -14 91<255.5 332.5 255.5 371> 483 91<255.5 332.5>
VStem: 66 95<217 343 217 361> 427 95<217 343>
LayerCount: 2
Fore
SplineSet
294 574 m 0
 448 574 522 442 522 280 c 0
 522 118 448 -14 294 -14 c 0
 140 -14 66 118 66 280 c 0
 66 442 140 574 294 574 c 0
294 483 m 0
 217 483 161 406 161 280 c 0
 161 154 217 77 294 77 c 0
 371 77 427 154 427 280 c 0
 427 406 371 483 294 483 c 0
EndSplineSet
EndChar

StartChar: P
Encoding: 80 80 49
Width: 560
Flags: MW
HStem: 0 21G<91 189 91 91> 196 84<189 252 252 280 189 252> 476 84<189 189 189 252>
VStem: 91 98<0 196 0 280 280 476> 364 98<343 413>
LayerCount: 2
Fore
SplineSet
91 560 m 1
 280 560 l 2
 413 560 462 455 462 378 c 0
 462 301 413 196 280 196 c 2
 189 196 l 1
 189 0 l 1
 91 0 l 1
 91 560 l 1
189 476 m 1
 189 280 l 1
 252 280 l 2
 308 280 364 308 364 378 c 0
 364 448 308 476 252 476 c 2
 189 476 l 1
EndSplineSet
EndChar

StartChar: Q
Encoding: 81 81 50
Width: 588
Flags: MW
HStem: -14 91<255.5 298 255.5 306> 483 91<255.5 332.5>
VStem: 68 95<217 343 217 361> 425 95<248.5 343>
LayerCount: 2
Fore
SplineSet
294 574 m 0
 448 574 520 442 520 280 c 0
 520 182 493 94 438 41 c 1
 469 -14 l 1
 388 -59 l 1
 361 -5 l 1
 341 -11 318 -14 294 -14 c 0
 140 -14 68 118 68 280 c 0
 68 442 140 574 294 574 c 0
294 483 m 0
 217 483 163 406 163 280 c 0
 163 154 217 77 294 77 c 0
 302 77 310 78 318 80 c 1
 281 154 l 1
 353 191 l 1
 388 131 l 1
 411 166 425 217 425 280 c 0
 425 406 371 483 294 483 c 0
EndSplineSet
EndChar

StartChar: R
Encoding: 82 82 51
Width: 616
Flags: MW
HStem: 0 21G<98 196 98 98 420 539 420 420> 224 84<196 252 196 259> 476 84<196 196 196 259>
VStem: 98 98<0 224 0 308 308 476> 364 98<367.5 422>
LayerCount: 2
Fore
SplineSet
98 560 m 1
 287 560 l 2
 427 560 462 462 462 406 c 0
 462 329 413 280 357 259 c 1
 448 238 476 28 539 0 c 1
 420 -0 l 1
 398.1640625 29.1142578125 380.103515625 88.4990234375 354.03125 138.8125 c 0
 329.955078125 185.274414062 315 224 252 224 c 2
 196 224 l 1
 196 0 l 1
 98 0 l 1
 98 560 l 1
196 476 m 1
 196 308 l 1
 259 308 l 2
 315 308 364 332 364 392 c 0
 364 452 315 476 259 476 c 2
 196 476 l 1
EndSplineSet
EndChar

StartChar: S
Encoding: 83 83 52
Width: 588
Flags: MW
HStem: -14 91<259 353.5 259 378> 483 91<280 364>
VStem: 119 98<374.5 413 374.5 448> 420.462 104.538
LayerCount: 2
Fore
SplineSet
88 84 m 1
 157 141 l 1
 157 141 210 77 308 77 c 0
 399 77 420 133 420 154 c 0
 420 157.68359375 420.461914062 162.137695312 420.461914062 167.106445312 c 0
 420.461914062 190.462890625 410.262695312 225.2109375 294 245 c 0
 133 273 119 350 119 399 c 0
 119 497 203 574 322 574 c 0
 420 574 511 497 511 497 c 1
 448 427 l 1
 448 427 406 483 322 483 c 0
 238 483 217 427 217 399 c 0
 217 350 287 338 364 322 c 0
 462 301 525 245 525 161 c 0
 525 91 448 -14 308 -14 c 0
 182 -14 88 84 88 84 c 1
EndSplineSet
EndChar

StartChar: T
Encoding: 84 84 53
Width: 532
Flags: MW
HStem: 0 21G<217 315 217 217> 476 84<63 217 63 469 315 469 315 315>
VStem: 217 98<0 476 0 476>
LayerCount: 2
Fore
SplineSet
63 560 m 1
 469 560 l 1
 469 476 l 1
 315 476 l 1
 315 0 l 1
 217 0 l 1
 217 476 l 1
 63 476 l 1
 63 560 l 1
EndSplineSet
EndChar

StartChar: U
Encoding: 85 85 54
Width: 588
Flags: MW
HStem: -7 77<273 315 273 392> 540 20G<91 189 189 189 399 497 497 497>
VStem: 91 98<182 560> 399 98<178.5 182 182 560>
LayerCount: 2
Fore
SplineSet
91 560 m 1
 189 560 l 1
 189 175 l 2
 189 98 252 70 294 70 c 0
 336 70 399 98 399 175 c 2
 399 560 l 1
 497 560 l 1
 497 182 l 2
 497 175 490 -7 294 -7 c 0
 98 -7 91 175 91 182 c 2
 91 560 l 1
EndSplineSet
EndChar

StartChar: V
Encoding: 86 86 55
Width: 581
Flags: MW
HStem: 0 21G<231 231 231 357> 540 20G<70 182 182 182 406 511 511 511>
LayerCount: 2
Fore
SplineSet
231 0 m 1
 70 560 l 1
 182 560 l 1
 294 140 l 1
 406 560 l 1
 511 560 l 1
 357 0 l 1
 231 0 l 1
EndSplineSet
EndChar

StartChar: W
Encoding: 87 87 56
Width: 812
Flags: MW
HStem: 0 21G<203 315 203 203 497 609 497 497> 540 20G<84 189 189 189 357 455 455 455 623 728 728 728>
LayerCount: 2
Fore
SplineSet
189 560 m 1
 267 169 l 1
 273 169 l 1
 357 560 l 1
 455 560 l 1
 546 163 l 1
 623 560 l 1
 728 560 l 1
 609 0 l 1
 497 0 l 1
 406 369 l 1
 315 0 l 1
 203 0 l 1
 84 560 l 1
 189 560 l 1
EndSplineSet
EndChar

StartChar: X
Encoding: 88 88 57
Width: 544
Flags: MW
HStem: 0 21G<42 160 42 42 384 502 384 384> 540 20G<56 181 181 181 363 488 488 488>
LayerCount: 2
Fore
SplineSet
181 560 m 1
 272 385 l 1
 363 560 l 1
 488 560 l 1
 328 294 l 1
 502 0 l 1
 384 0 l 1
 272 203 l 1
 160 0 l 1
 42 0 l 1
 216 294 l 1
 56 560 l 1
 181 560 l 1
EndSplineSet
EndChar

StartChar: Y
Encoding: 89 89 58
Width: 588
Flags: MW
HStem: 0 21G<245 245 245 343> 540 20G<70 182 182 182 406 518 518 518>
VStem: 245 98<0 224 0 224>
LayerCount: 2
Fore
SplineSet
245 0 m 1
 245 224 l 1
 70 560 l 1
 182 560 l 1
 294 329 l 1
 406 560 l 1
 518 560 l 1
 343 224 l 1
 343 0 l 1
 245 0 l 1
EndSplineSet
EndChar

StartChar: Z
Encoding: 90 90 59
Width: 560
Flags: MW
HStem: 0 84<210 469 210 469> 476 84<98 343 98 462>
LayerCount: 2
Fore
SplineSet
91 0 m 1
 91 91 l 1
 343 476 l 1
 98 476 l 1
 98 560 l 1
 462 560 l 1
 462 469 l 1
 210 84 l 1
 469 84 l 1
 469 0 l 1
 91 0 l 1
EndSplineSet
EndChar

StartChar: bracketleft
Encoding: 91 91 60
Width: 329
Flags: MW
HStem: -84 84<168 252 168 252> 504 84<168 252 168 168>
VStem: 77 91<0 504 0 588 0 588> 77 175<-84 0 504 588>
LayerCount: 2
Fore
SplineSet
77 -84 m 1xd0
 77 588 l 1
 252 588 l 1
 252 504 l 1xd0
 168 504 l 1
 168 0 l 1xe0
 252 0 l 1
 252 -84 l 1
 77 -84 l 1xd0
EndSplineSet
EndChar

StartChar: backslash
Encoding: 92 92 61
Width: 523
Flags: W
LayerCount: 2
Fore
SplineSet
384.001953125 -84.00390625 m 1
 42 602 l 1
 146 602 l 2
 147 601 481 -84 481 -84 c 1
 384.001953125 -84.00390625 l 1
EndSplineSet
EndChar

StartChar: bracketright
Encoding: 93 93 62
Width: 329
Flags: MW
HStem: -84 84<77 161 77 252> 504 84<77 161 161 161>
VStem: 77 175<-84 0 -84 588 504 588 504 504> 161 91<0 504 0 0>
LayerCount: 2
Fore
SplineSet
252 -84 m 1xc0
 252 588 l 1
 77 588 l 1
 77 504 l 1
 161 504 l 1
 161 0 l 1
 77 0 l 1
 77 -84 l 1
 252 -84 l 1xc0
EndSplineSet
EndChar

StartChar: asciicircum
Encoding: 94 94 63
Width: 452
Flags: MW
HStem: 448 168<70 263 70 263 189 382 189 328>
VStem: 70 312<448 448>
LayerCount: 2
Fore
SplineSet
263 616 m 1
 382 448 l 1
 328 448 l 1
 226 546 l 1
 124 448 l 1
 70 448 l 1
 189 616 l 1
 263 616 l 1
EndSplineSet
EndChar

StartChar: underscore
Encoding: 95 95 64
Width: 500
Flags: MW
HStem: -139 55<0 500 0 500>
LayerCount: 2
Fore
SplineSet
0 -84 m 1
 500 -84 l 1
 500 -139 l 1
 0 -139 l 1
 0 -84 l 1
EndSplineSet
EndChar

StartChar: grave
Encoding: 96 96 65
Width: 292
Flags: MW
HStem: 441 147<65 227 65 227>
LayerCount: 2
Fore
SplineSet
156 588 m 1
 65 588 l 1
 176 441 l 1
 227 441 l 1
 156 588 l 1
EndSplineSet
EndChar

StartChar: a
Encoding: 97 97 66
Width: 476
Flags: MW
HStem: -14 70<210 224> 189 63<308 308> 336 70<203 248.5>
VStem: 70 91<112 112.116 112.116 150.5 94.5 178.238> 308 84<119 189 189 189 252 266>
LayerCount: 2
Fore
SplineSet
238 406 m 0
 329 406 392 336 392 266 c 2
 392 91 l 2
 392 56 413 56 427 56 c 1
 392 -14 l 1
 343 -14 315 -7 308 49 c 1
 294 21 252 -14 196 -14 c 0
 140 -14 70.0673828125 28 70 112 c 2
 70 112.116210938 l 2
 70 244.359375 252.016601562 238.00390625 308 252 c 1
 308 273 l 2
 308 301 273 336 224 336 c 0
 182 336 140 308 119 289 c 1
 77 357 l 1
 112 378 168 406 238 406 c 0
308 189 m 1
 273 175 161 182 161 119 c 0
 161 70 203 56 217 56 c 0
 259 56 308 112 308 119 c 2
 308 189 l 1
EndSplineSet
EndChar

StartChar: b
Encoding: 98 98 67
Width: 497
Flags: MW
HStem: -14 77<246 290.5 246 301> 0 21G<84 154 84 84> 336 70<248 287 238 290.5> 540 20G<84 168 168 168>
VStem: 84 70<0 560> 84 84<42 42 133 280 357 360.5 360.5 560> 357 84<154 238>
LayerCount: 2
Fore
SplineSet
266 -14 m 0xb6
 196 -14 168 42 168 42 c 1xb6
 162 31 157 17 154 0 c 1
 84 0 l 1x7a
 84 560 l 1
 168 560 l 1
 168 357 l 2
 168 364 210 406 266 406 c 0
 308 406 441 371 441 196 c 0
 441 28 336 -14 266 -14 c 0xb6
266 63 m 0
 315 63 357 112 357 196 c 0
 357 280 315 336 266 336 c 0
 230 336 189 315 168 280 c 1
 168 133 l 1
 189 91 226 63 266 63 c 0
EndSplineSet
EndChar

StartChar: c
Encoding: 99 99 68
Width: 476
Flags: MW
HStem: -14 70<224 273 224 291> 336 70<224 273>
VStem: 63 91<154 238 154 259>
LayerCount: 2
Fore
SplineSet
252 406 m 0
 330 406 393 362 420 287 c 1
 341 257 l 1
 326 308 294 336 252 336 c 0
 196 336 154 280 154 196 c 0
 154 112 196 56 252 56 c 0
 294 56 326 84 341 135 c 1
 420 105 l 1
 393 30 330 -14 252 -14 c 0
 147 -14 63 70 63 196 c 0
 63 322 147 406 252 406 c 0
EndSplineSet
EndChar

StartChar: d
Encoding: 100 100 69
Width: 497
Flags: MW
HStem: -14 77<234.5 279 234.5 294> 0 20G 336 70<238 277> 539 21G
VStem: 84 84<154 238 154 283.5> 357 84<42 42 133 280 280 280 357 560 0 560> 371 70<0 560>
LayerCount: 2
Fore
SplineSet
259 -14 m 0x00
 189 -14 84 28 84 196 c 0
 84 371 217 406 259 406 c 0
 315 406 357 364 357 357 c 2
 357 560 l 1
 441 560 l 1
 441 0 l 1
 371 0 l 1
 368 17 363 31 357 42 c 1
 357 42 329 -14 259 -14 c 0x00
259 63 m 0
 299 63 336 91 357 133 c 1
 357 280 l 1
 336 315 295 336 259 336 c 0
 210 336 168 280 168 196 c 0
 168 112 210 63 259 63 c 0
EndSplineSet
EndChar

StartChar: e
Encoding: 101 101 70
Width: 504
Flags: MW
HStem: -14 77<248.5 283.5 248.5 290.5> 168 70<161 336 336 338.5 161 413 161 336> 336 70<229.5 272.5>
VStem: 68 93<133 168 126 226.5> 343 91<248.5 262.5 199.5 272.5>
LayerCount: 2
Fore
SplineSet
252 336 m 0
 207 336 161 308 161 238 c 1
 336 238 l 2
 341 238 343 245 343 252 c 0
 343 293 293 336 252 336 c 0
413 168 m 2
 161 168 l 1
 161 84 231 63 266 63 c 0
 301 63 322 81 350 116 c 1
 418 77 l 1
 369 14 315 -14 266 -14 c 0
 161 -14 68 70 68 196 c 0
 68 257 79 301 108 336 c 0
 142 378 199 406 252 406 c 0
 350 406 434 315 434 210 c 0
 434 189 425 168 413 168 c 2
EndSplineSet
EndChar

StartChar: f
Encoding: 102 102 71
Width: 364
Flags: MW
HStem: 0 21G<126 126 126 210> 315 77<63 126 63 126 210 308> 483 77<241.5 262.5 203 276.5>
VStem: 126 84<0 315 0 315 392 441>
LayerCount: 2
Fore
SplineSet
126 0 m 1
 126 315 l 1
 63 315 l 1
 63 392 l 1
 126 392 l 5
 126 469 l 2
 126 518 168 560 238 560 c 0
 287 560 329 546 329 546 c 1
 308 476 l 1
 308 476 294 483 259 483 c 0
 224 483 210 462 210 441 c 2
 210 392 l 1
 308 392 l 1
 308 315 l 1
 210 315 l 1
 210 0 l 1
 126 0 l 1
EndSplineSet
EndChar

StartChar: g
Encoding: 103 103 72
Width: 483
Flags: MW
HStem: -179 71<210 266 210 290.5> -14 70<220.501 273.001 220.501 276.5> 329 77<220.501 265.073> 372 20G<357 427 427 427>
VStem: 56 84 343 84<-21 42 38.5 42> 357 70<392 392>
LayerCount: 2
Fore
SplineSet
245 406 m 0xec
 315 406 343.000976562 350 343.000976562 350 c 1xec
 349.395507812 360.544921875 353.938476562 374.790039062 357 392 c 1
 427 392 l 1xda
 427 -21 l 2
 427 -126 336 -179 245 -179 c 0
 151.245117188 -179 77 -147 56 -126 c 1
 91 -63 l 1
 112 -77 175 -108 245 -108 c 0
 287 -108 343 -77 343 -21 c 2
 343 42 l 2
 343 35 308 -14 245 -14 c 0
 182 -14 56 21 56 196 c 0
 56 364 175 406 245 406 c 0xec
245.000976562 329 m 0
 196.000976562 329 140.000976562 280 140.000976562 196 c 0
 140.000976562 112 196.000976562 56 245.000976562 56 c 0
 301.000976562 56 322.000976562 98 343.000976562 133 c 1
 343.000976562 259 l 1
 322.000976562 301 285.145507812 329 245.000976562 329 c 0
EndSplineSet
EndChar

StartChar: h
Encoding: 104 104 73
Width: 469
Flags: MW
HStem: 0 21G<91 175 91 91 329 413 329 329> 329 70<259 294> 540 20G<91 175 175 175>
VStem: 91 84<0 252 336 560> 329 84<0 273 273 280 0 283.5>
LayerCount: 2
Fore
SplineSet
294 399 m 0
 371 399 413 350 413 280 c 2
 413 0 l 1
 329 0 l 1
 329 273 l 2
 329 294 315 329 273 329 c 0
 232.85546875 329 196 294 175 252 c 1
 175 0 l 1
 91 0 l 1
 91 560 l 1
 175 560 l 1
 175 336 l 1
 175 336 224 399 294 399 c 0
EndSplineSet
EndChar

StartChar: i
Encoding: 105 105 74
Width: 252
Flags: MW
HStem: 0 21G<84 84 84 168> 372 20G<84 168 168 168> 460 122<109.164 142.836>
VStem: 65 122<504.164 537.836> 84 84<0 392 0 392>
LayerCount: 2
Fore
SplineSet
187 521 m 0x30
 187 487.328125 159.671875 460 126 460 c 0
 92.328125 460 65 487.328125 65 521 c 0
 65 554.671875 92.328125 582 126 582 c 0
 159.671875 582 187 554.671875 187 521 c 0x30
84 0 m 1xc8
 84 392 l 1
 168 392 l 1
 168 0 l 1
 84 0 l 1xc8
EndSplineSet
EndChar

StartChar: j
Encoding: 106 106 75
Width: 252
Flags: MW
HStem: -167.852 80.7067 372 20G<84 168 84 168 84 168 168 168> 460 122<109.164 142.836>
VStem: 65 122<504.164 537.836> 84 84<-56 392>
LayerCount: 2
Fore
SplineSet
187 521 m 0x30
 187 487.328125 159.671875 460 126 460 c 0
 92.328125 460 65 487.328125 65 521 c 0
 65 554.671875 92.328125 582 126 582 c 0
 159.671875 582 187 554.671875 187 521 c 0x30
84 392 m 1xc8
 168 392 l 1
 168 -70 l 2
 168 -132.8671875 112.236328125 -167.8515625 84.1533203125 -167.8515625 c 0
 42.1357421875 -167.740234375 20.9873046875 -167.995117188 -14 -154 c 1
 7 -84 l 1
 18.09765625 -85.79296875 29.638671875 -87.1455078125 40.3046875 -87.1455078125 c 0
 64.3818359375 -87.1455078125 84 -80.255859375 84 -56 c 2
 84 392 l 1xc8
84 392 m 1
 168 392 l 1
 84 392 l 1
EndSplineSet
EndChar

StartChar: k
Encoding: 107 107 76
Width: 474
Flags: MW
HStem: 0 21G<98 182 98 98 313 418 313 313> 372 20G<312 415 415 415> 540 20G<98 182 182 182>
VStem: 98 84<0 209 214 560>
LayerCount: 2
Fore
SplineSet
98 560 m 1
 182 560 l 1
 182 214 l 1
 312 392 l 1
 415 392 l 1
 280 207 l 1
 418 0 l 1
 313 0 l 1
 182 209 l 1
 182 0 l 1
 98 0 l 1
 98 560 l 1
EndSplineSet
EndChar

StartChar: l
Encoding: 108 108 77
Width: 321
Flags: MW
HStem: -7 77<149 227.5 206.5 217> 540 20G<98 182 182 182>
VStem: 98 84<91 105 105 560>
LayerCount: 2
Fore
SplineSet
98 560 m 1
 182 560 l 1
 182 105 l 2
 182 77 196 70 217 70 c 0
 238 70 259 77 259 77 c 1
 273 0 l 1
 252 -7 231 -7 217 -7 c 2
 175 -7 l 2
 123 -7 98 19 98 63 c 2
 98 560 l 1
EndSplineSet
EndChar

StartChar: m
Encoding: 109 109 78
Width: 672
Flags: MW
HStem: 0 21G<84.001 168.001 84.001 84.001 308.001 392.001 308.001 308.001 532.001 616.001 532.001 532.001> 329 70<245 280.001 478.147 504.001> 372 20G<84.001 156.001 156.001 156.001>
VStem: 84 72 84 84 308 84 532 84
LayerCount: 2
Fore
SplineSet
280 399 m 0xd6
 334.606445312 399 371.000976562 371 385.000976562 329 c 1
 399.000976562 371 452.293945312 399 504.000976562 399 c 0
 581.000976562 399 616.000976562 350 616.000976562 280 c 2
 616.000976562 0 l 1
 532.000976562 0 l 1
 532.000976562 273 l 2
 532.000976562 294 525.000976562 329 483.000976562 329 c 0
 442.856445312 329 413.000976562 294 392.000976562 252 c 1
 392.000976562 0 l 1
 308.000976562 0 l 1
 308.000976562 273 l 2
 308.000976562 294 301.000976562 329 259.000976562 329 c 0
 218.856445312 329 189.000976562 294 168.000976562 252 c 1
 168.000976562 0 l 1
 84.0009765625 0 l 1xce
 84.0009765625 392 l 1
 156.000976562 392 l 1xb6
 159.0625 374.790039062 163.60546875 356.544921875 170 346 c 1
 170 346 210 399 280 399 c 0xd6
EndSplineSet
EndChar

StartChar: n
Encoding: 110 110 79
Width: 469
Flags: MW
HStem: 0 21G<91.001 175.001 91.001 91.001 329.001 413.001 329.001 329.001> 329 70<259 294.001> 372 20G<91.001 163.001 163.001 163.001>
VStem: 91 72 91 84 329 84
LayerCount: 2
Fore
SplineSet
294 399 m 0xd4
 371 399 413.000976562 350 413.000976562 280 c 2
 413.000976562 0 l 1
 329.000976562 0 l 1
 329.000976562 273 l 2
 329.000976562 294 315.000976562 329 273.000976562 329 c 0
 232.856445312 329 196.000976562 294 175.000976562 252 c 1
 175.000976562 0 l 1
 91.0009765625 0 l 1xcc
 91.0009765625 392 l 1
 163.000976562 392 l 1xb4
 166.0625 374.790039062 170.60546875 356.544921875 177 346 c 1
 177 346 224 399 294 399 c 0xd4
EndSplineSet
EndChar

StartChar: o
Encoding: 111 111 80
Width: 504
Flags: MW
HStem: -14 70<224 280 224 304.5> 336 70<224 280>
VStem: 70 84<154 238 154 259> 350 84<154 238>
LayerCount: 2
Fore
SplineSet
252 406 m 0
 357 406 434 322 434 196 c 0
 434 70 357 -14 252 -14 c 0
 147 -14 70 70 70 196 c 0
 70 322 147 406 252 406 c 0
252 336 m 0
 196 336 154 280 154 196 c 0
 154 112 196 56 252 56 c 0
 308 56 350 112 350 196 c 0
 350 280 308 336 252 336 c 0
EndSplineSet
EndChar

StartChar: p
Encoding: 112 112 81
Width: 497
Flags: MW
HStem: -168 21G<84 168 84 84> -14 70<248 287> 329 77<246 290.5> 372 20G<84 154 154 154>
VStem: 84 70<-168 392 392 392> 84 84<-168 35 -168 112 112 259> 357 84<154 238>
LayerCount: 2
Fore
SplineSet
266 406 m 0xe6
 336 406 441 364 441 196 c 0
 441 21 308 -14 266 -14 c 0
 210 -14 168 28 168 35 c 2
 168 -168 l 1
 84 -168 l 1xe6
 84 392 l 1
 154 392 l 1xda
 157 375 162 361 168 350 c 1
 168 350 196 406 266 406 c 0xe6
266 329 m 0
 226 329 189 301 168 259 c 1
 168 112 l 1
 189 77 230 56 266 56 c 0
 315 56 357 112 357 196 c 0
 357 280 315 329 266 329 c 0
EndSplineSet
EndChar

StartChar: q
Encoding: 113 113 82
Width: 497
Flags: MW
HStem: -168 21G<357 441 357 357> -14 70<238 277 234.5 287> 329 77<234.5 279> 372 20G<371 441 441 441>
VStem: 84 84<154 238 154 280> 357 84<-168 35 31.5 35 112 259 259 259 350 350> 371 70<-168 392>
LayerCount: 2
Fore
SplineSet
259 406 m 0xec
 329 406 357 350 357 350 c 1xec
 363 361 368 375 371 392 c 1
 441 392 l 1xda
 441 -168 l 1
 357 -168 l 1
 357 35 l 2
 357 28 315 -14 259 -14 c 0
 217 -14 84 21 84 196 c 0
 84 364 189 406 259 406 c 0xec
259 329 m 0
 210 329 168 280 168 196 c 0
 168 112 210 56 259 56 c 0
 295 56 336 77 357 112 c 1
 357 259 l 1
 336 301 299 329 259 329 c 0
EndSplineSet
EndChar

StartChar: r
Encoding: 114 114 83
Width: 406
Flags: MW
HStem: 0 21G<84.001 168.001 84.001 84.001> 315 84<245 269.501> 372 20G<84.001 156.001 156.001 156.001>
VStem: 84 72 84 84
LayerCount: 2
Fore
SplineSet
280 399 m 0xd0
 308.775390625 399 324.952148438 398.500976562 343.000976562 385 c 1
 315.000976562 301 l 1
 301.000976562 315 280.000976562 315 259.000976562 315 c 0
 218.856445312 315 189.000976562 294 168.000976562 252 c 1
 168.000976562 0 l 1
 84.0009765625 0 l 1xc8
 84.0009765625 392 l 1
 156.000976562 392 l 1xb0
 159.0625 374.790039062 163.60546875 356.544921875 170 346 c 1
 170 346 210 399 280 399 c 0xd0
EndSplineSet
EndChar

StartChar: s
Encoding: 115 115 84
Width: 455
Flags: MW
HStem: -14 77<217 255.5 217 296.5> 336 70<227.5 269.5>
VStem: 88 90<273.5 301 273.5 312> 308 91<106 130.5>
LayerCount: 2
Fore
SplineSet
62 56 m 1
 117 112 l 1
 147 84 196 63 238 63 c 0
 273 63 308 92 308 120 c 0
 308 141 289 160 214 175 c 0
 103 198 88 249 88 284 c 0
 88 340 152 406 245 406 c 0
 316 406 398 350 398 350 c 1
 343 294 l 1
 329 308 287 336 252 336 c 0
 203 336 178 311 178 291 c 0
 178 256 217 256 266 242 c 0
 355 217 399 192 399 125 c 0
 399 64 348 -14 245 -14 c 0
 133 -14 62 56 62 56 c 1
EndSplineSet
EndChar

StartChar: t
Encoding: 116 116 85
Width: 392
Flags: MW
HStem: -7 76.9626 315 77<63 119 63 119> 540 20G<203 203>
VStem: 119 84<98.001 112.001 112.001 315 315 315 392.001 525 525 525>
LayerCount: 2
Fore
SplineSet
203 560 m 1
 203 392.000976562 l 1
 315 392.000976562 l 1
 315 315.000976562 l 1
 203 315.000976562 l 1
 203 112.000976562 l 2
 203 84.0009765625 231.008789062 70.623046875 252 70.0009765625 c 0
 252.84765625 69.9755859375 253.704101562 69.962890625 254.569335938 69.962890625 c 0
 275.66796875 69.962890625 301.432617188 77.275390625 312 84 c 1
 329 7 l 1
 308 0 259 -7 245 -7 c 0
 174.282226562 -7 119 21 119 91 c 2
 119 315 l 1
 63 315 l 1
 63 392 l 1
 119 392 l 1
 119 525 l 1
 203 560 l 1
EndSplineSet
EndChar

StartChar: u
Encoding: 117 117 86
Width: 469
Flags: MW
HStem: -7 70<210 245> 0 20G 371 21G
VStem: 91 84<112 119 119 392> 329 84<140 392 0 392> 341 72<0 392>
LayerCount: 2
Fore
SplineSet
210 -7 m 0x00
 133 -7 91 42 91 112 c 2
 91 392 l 1
 175 392 l 1
 175 119 l 2
 175 98 189 63 231 63 c 0
 271.14453125 63 308 98 329 140 c 1
 329 392 l 1
 413 392 l 1
 413 0 l 1
 341 0 l 1
 337.938476562 17.2099609375 333.39453125 35.455078125 327 46 c 1
 327 46 280 -7 210 -7 c 0x00
EndSplineSet
EndChar

StartChar: v
Encoding: 118 118 87
Width: 448
Flags: MW
HStem: 0 21G<175 175 175 273> 372 20G<49 143 143 143 305 399 399 399>
LayerCount: 2
Fore
SplineSet
175 0 m 1
 49 392 l 1
 143 392 l 1
 224 119 l 1
 305 392 l 1
 399 392 l 1
 273 0 l 1
 175 0 l 1
EndSplineSet
EndChar

StartChar: w
Encoding: 119 119 88
Width: 679
Flags: MW
HStem: 0 21G<175 175 175 273 399 399 399 497> 372 20G<63 157 157 157 294 385 385 385 522 616 616 616>
LayerCount: 2
Fore
SplineSet
175 0 m 1
 63 392 l 1
 157 392 l 1
 228 126 l 1
 294 392 l 1
 385 392 l 1
 451 126 l 1
 522 392 l 1
 616 392 l 1
 497 0 l 1
 399 0 l 1
 336 252 l 1
 273 0 l 1
 175 0 l 1
EndSplineSet
EndChar

StartChar: x
Encoding: 120 120 89
Width: 448
Flags: MW
HStem: 0 21G<42 140 42 42 308 406 308 308> 372 20G<56 161 161 161 287 392 392 392>
LayerCount: 2
Fore
SplineSet
161 392 m 1
 224 280 l 1
 287 392 l 1
 392 392 l 1
 273 208 l 1
 406 0 l 1
 308 0 l 1
 224 140 l 1
 140 0 l 1
 42 0 l 1
 175 208 l 1
 56 392 l 1
 161 392 l 1
EndSplineSet
EndChar

StartChar: y
Encoding: 121 121 90
Width: 490
Flags: MW
HStem: -168 75.64 372 20G<56 154 154 154 315 413 413 413>
LayerCount: 2
Fore
SplineSet
84 -84 m 1
 96.1123046875 -89.8037109375 106.950195312 -92.3603515625 116.66015625 -92.3603515625 c 0
 145.4296875 -92.3603515625 164.290039062 -69.916015625 177 -43 c 0
 183 -29 187 -14 191 0 c 1
 56 392 l 1
 154 392 l 1
 238 156 l 1
 315 392 l 1
 413 392 l 1
 252 -91 l 1
 231 -140 182 -168 140 -168 c 0
 112 -168 94 -165 70 -161 c 1
 84 -84 l 1
EndSplineSet
EndChar

StartChar: z
Encoding: 122 122 91
Width: 467
Flags: MW
HStem: 0 77<98 98 203 385> 315 77<98 280 98 378>
VStem: 98 287<0 77 0 77 0 392>
LayerCount: 2
Fore
SplineSet
98 0 m 1
 98 77 l 1
 280 315 l 1
 98 315 l 1
 98 392 l 1
 378 392 l 1
 378 308 l 1
 203 77 l 1
 385 77 l 1
 385 0 l 1
 98 0 l 1
EndSplineSet
EndChar

StartChar: braceleft
Encoding: 123 123 92
Width: 364
Flags: MW
HStem: -168 70<224 308 280 308 280 308> 154 84<56 91 56 91> 490 63<254.5 280 280 308>
VStem: 140 84<0 70 322 379>
LayerCount: 2
Fore
SplineSet
56 238 m 1
 91 238 l 2
 119 238 140 280 140 364 c 0
 140 476 196 553 252 553 c 2
 308 553 l 1
 308 490 l 1
 280 490 l 2
 229 490 224 422 224 336 c 0
 224 224 134 207 112 196 c 1
 130 187 224 168 224 56 c 0
 224 -56 242 -98 280 -98 c 2
 308 -98 l 1
 308 -168 l 1
 252 -168 l 2
 196 -168 140 -84 140 28 c 0
 140 112 119 154 91 154 c 2
 56 154 l 1
 56 238 l 1
EndSplineSet
EndChar

StartChar: bar
Encoding: 124 124 93
Width: 245
Flags: MW
VStem: 77 91<-84 588>
LayerCount: 2
Fore
SplineSet
168 -84 m 1
 77 -84 l 1
 77 588 l 1
 168 588 l 1
 168 -84 l 1
EndSplineSet
EndChar

StartChar: braceright
Encoding: 125 125 94
Width: 364
Flags: MW
HStem: -168 63<56 84 84 109.5 56 112 56 84> 147 84<259 308 273 308> 483 70<56 84 56 112>
VStem: 140 84<6 63 -35 105 315 385>
LayerCount: 2
Fore
SplineSet
308 147 m 1
 273 147 l 2
 245 147 224 105 224 21 c 0
 224 -91 168 -168 112 -168 c 2
 56 -168 l 1
 56 -105 l 1
 84 -105 l 2
 135 -105 140 -37 140 49 c 0
 140 161 230 178 252 189 c 1
 234 198 140 217 140 329 c 0
 140 441 122 483 84 483 c 2
 56 483 l 1
 56 553 l 1
 112 553 l 2
 168 553 224 469 224 357 c 0
 224 273 245 231 273 231 c 2
 308 231 l 1
 308 147 l 1
EndSplineSet
EndChar

StartChar: asciitilde
Encoding: 126 126 95
Width: 393
Flags: MW
HStem: 448 58<238 266 238 270> 499 59<120 148>
VStem: 50 293<504 511>
LayerCount: 2
Fore
SplineSet
50 504 m 1x60
 50 504 95 558 137 558 c 0x60
 179 558 224 506 252 506 c 0
 280 506 305 535 312 542 c 1
 343 511 l 1
 336 504 291 448 249 448 c 0xa0
 207 448 162 499 134 499 c 0
 106 499 88 480 81 473 c 1
 50 504 l 1x60
EndSplineSet
EndChar

StartChar: exclamdown
Encoding: 161 161 96
Width: 252
Flags: MW
HStem: -4 20G 442 122<109 143>
VStem: 65 122<486 520>
LayerCount: 2
Fore
SplineSet
187 503 m 0
 187 537 160 564 126 564 c 0
 92 564 65 537 65 503 c 0
 65 469 92 442 126 442 c 0
 160 442 187 469 187 503 c 0
94 377 m 1
 94 377 67 97 67 55 c 0
 67 34 77 -4 126 -4 c 0
 175 -4 185 34 185 55 c 0
 185 97 158 377 158 377 c 1
 94 377 l 1
EndSplineSet
EndChar

StartChar: dieresis
Encoding: 168 168 97
Width: 406
Flags: MW
HStem: 457 122<94.1641 127.836 278.164 311.836>
VStem: 50 122<501.164 534.836> 234 122<501.164 534.836>
LayerCount: 2
Fore
SplineSet
356 518 m 0
 356 484.328125 328.671875 457 295 457 c 0
 261.328125 457 234 484.328125 234 518 c 0
 234 551.671875 261.328125 579 295 579 c 0
 328.671875 579 356 551.671875 356 518 c 0
172 518 m 0
 172 484.328125 144.671875 457 111 457 c 0
 77.328125 457 50 484.328125 50 518 c 0
 50 551.671875 77.328125 579 111 579 c 0
 144.671875 579 172 551.671875 172 518 c 0
EndSplineSet
EndChar

StartChar: copyright
Encoding: 169 169 98
Width: 728
Flags: MW
HStem: -84 28 1 73 374 73 504 28
VStem: 56 28<146.499 301.499 146.499 308.999> 137.851 94.937 644 28<146.499 301.499>
LayerCount: 2
Fore
SplineSet
362 447 m 0
 381 447 400 445.999023438 419 442.999023438 c 0
 485 432.999023438 543 386.999023438 570 326.999023438 c 1
 476 300.999023438 l 1
 465 327.999023438 448 348.999023438 419 363.999023438 c 0
 403 370.999023438 385 373.999023438 367 373.999023438 c 0
 335 373.999023438 304 363.999023438 280 342.999023438 c 0
 249 314.999023438 234 272.999023438 233 231.999023438 c 0
 232.859375 228.965820312 232.788085938 225.91796875 232.788085938 222.861328125 c 0
 232.788085938 182.579101562 245.1875 140.7421875 274.000976562 110.999023438 c 0
 298.000976562 85.9990234375 333.000976562 73.9990234375 367.000976562 73.9990234375 c 0
 375.000976562 73.9990234375 381.000976562 74.9990234375 389.000976562 75.9990234375 c 0
 429.000976562 79.9990234375 463.000976562 109.999023438 475.000976562 147.999023438 c 1
 568.000976562 118.999023438 l 1
 556.000976562 90.9990234375 533.000976562 62.9990234375 509.000976562 43.9990234375 c 0
 469.000976562 12.9990234375 417.000976562 0.9990234375 367.000976562 0.9990234375 c 0
 361.000976562 0.9990234375 354.000976562 1.9990234375 348.000976562 1.9990234375 c 0
 293.000976562 3.9990234375 237.000976562 21.9990234375 198.000976562 61.9990234375 c 0
 156.184570312 103.815429688 137.8515625 164.599609375 137.8515625 222.890625 c 0
 137.8515625 225.934570312 137.901367188 228.97265625 138 232 c 0
 139 290 160 349 202 389 c 0
 245 430 304 447 362 447 c 0
364 531.999023438 m 0
 534 531.999023438 672 393.999023438 672 223.999023438 c 0
 672 53.9990234375 534 -84.0009765625 364 -84.0009765625 c 0
 194 -84.0009765625 56 53.9990234375 56 223.999023438 c 0
 56 393.999023438 194 531.999023438 364 531.999023438 c 0
364 503.999023438 m 0
 209 503.999023438 84 378.999023438 84 223.999023438 c 0
 84 68.9990234375 209 -56.0009765625 364 -56.0009765625 c 0
 519 -56.0009765625 644 68.9990234375 644 223.999023438 c 0
 644 378.999023438 519 503.999023438 364 503.999023438 c 0
EndSplineSet
EndChar

StartChar: guillemotleft
Encoding: 171 171 99
Width: 392
Flags: MW
HStem: 372 21G
VStem: 48.5 287.5<56 224.25>
LayerCount: 2
Fore
SplineSet
175 224 m 1
 273 392 l 1
 336 392 l 1
 238 224 l 1
 336 56 l 1
 273 56 l 1
 175 224 l 1
48.5 224.25 m 1
 146.5 392.25 l 1
 209.5 392.25 l 1
 111.5 224.25 l 1
 209.5 56.25 l 1
 146.5 56.25 l 1
 48.5 224.25 l 1
EndSplineSet
EndChar

StartChar: logicalnot
Encoding: 172 172 100
Width: 504
Flags: MW
HStem: 252 84<56 364 56 448>
VStem: 364 84<168 252 252 252>
LayerCount: 2
Fore
SplineSet
56 336 m 1
 448 336 l 1
 448 168 l 1
 364 168 l 1
 364 252 l 1
 56 252 l 1
 56 336 l 1
EndSplineSet
EndChar

StartChar: uni00AD
Encoding: 173 173 101
Width: 336
Flags: MW
HStem: 147 91<70 266 70 266>
VStem: 70 196<147 238 147 238>
LayerCount: 2
Fore
SplineSet
70 147 m 1
 70 238 l 1
 266 238 l 1
 266 147 l 1
 70 147 l 1
EndSplineSet
EndChar

StartChar: macron
Encoding: 175 175 102
Width: 476
Flags: MW
HStem: 459 60<105 371 105 371>
VStem: 105 266<459 519 459 519>
LayerCount: 2
Fore
SplineSet
105 459 m 1
 105 519 l 1
 371 519 l 1
 371 459 l 1
 105 459 l 1
EndSplineSet
EndChar

StartChar: degree
Encoding: 176 176 103
Width: 254
Flags: MW
HStem: 440 40<115.5 138.5 115.5 149.5> 562 40<115.5 138.5>
VStem: 46 40<509.5 532.5 509.5 543.5> 168 40<509.5 532.5>
LayerCount: 2
Fore
SplineSet
208 521 m 0
 208 476 172 440 127 440 c 0
 82 440 46 476 46 521 c 0
 46 566 82 602 127 602 c 0
 172 602 208 566 208 521 c 0
168 521 m 0
 168 544 150 562 127 562 c 0
 104 562 86 544 86 521 c 0
 86 498 104 480 127 480 c 0
 150 480 168 498 168 521 c 0
EndSplineSet
EndChar

StartChar: plusminus
Encoding: 177 177 104
Width: 504
Flags: MW
HStem: 56 84<56 448 56 448> 332 84<56 210 56 210 294 448>
VStem: 210 84<218 332 218 332 416 530>
LayerCount: 2
Fore
SplineSet
210 530 m 1
 294 530 l 1
 294 416 l 1
 448 416 l 1
 448 332 l 1
 294 332 l 1
 294 218 l 1
 210 218 l 1
 210 332 l 1
 56 332 l 1
 56 416 l 1
 210 416 l 1
 210 530 l 1
56 56 m 1
 56 140 l 1
 448 140 l 1
 448 56 l 1
 56 56 l 1
EndSplineSet
EndChar

StartChar: uni00B2
Encoding: 178 178 105
Width: 392
Flags: MW
HStem: 280 63<168 315> 511 63<178.5 213.5>
VStem: 252 84<476 490>
LayerCount: 2
Fore
SplineSet
56 518 m 1
 88.75 544.8203125 140 574 196 574 c 0
 252 574 336 553 336 483 c 0
 336 413 224 371 168 343 c 1
 336 343 l 1
 336 322 329 301 315 280 c 1
 56 280 l 1
 56 339.58984375 l 1
 117.447265625 374.098632812 196 413 224 434 c 0
 252 455 252 469 252 483 c 0
 252 497 231 511 196 511 c 0
 161 511 122.978515625 486.635742188 98 469 c 1
 56 518 l 1
EndSplineSet
EndChar

StartChar: uni00B3
Encoding: 179 179 106
Width: 393
Flags: MW
HStem: 266 63<157.5 182.5> 392 56<161 161> 511 63<172.5 191.5>
VStem: 238 84<479.5 500.5> 252 85<353.5 374.5>
CounterMasks: 1 e0
LayerCount: 2
Fore
SplineSet
196 574 m 0xf0
 252 574 322 546 322 497 c 0
 322 448 273 441 238 434 c 1xf0
 294 427 337 406 337 364 c 0
 337 322 308 301 280 287 c 0
 252 273 197 266 168 266 c 0
 112 266 98 273 70 280 c 1
 56 350 l 1
 95 342 140 329 175 329 c 0
 210 329 252 343 252 364 c 0xe8
 252 385 238 399 217 399 c 0
 196 399 161 392 161 392 c 1
 161 448 l 1
 189 455 238 469 238 490 c 0
 238 511 201 511 182 511 c 0
 163 511 111 498 84 483 c 1
 63 546 l 1
 109 561 140 574 196 574 c 0xf0
EndSplineSet
EndChar

StartChar: acute
Encoding: 180 180 107
Width: 292
Flags: MW
HStem: 441 147<65 227 65 227>
VStem: 65 162<441 588>
LayerCount: 2
Fore
SplineSet
136 588 m 1
 227 588 l 1
 116 441 l 1
 65 441 l 1
 136 588 l 1
EndSplineSet
EndChar

StartChar: mu
Encoding: 181 181 108
Width: 469
Flags: MW
HStem: -168 21G<91 175 91 91> -7 70<219.977 251.072 210 258> 0 21G<341 413 341 341> 372 20G<91 175 175 175 329 413 413 413>
VStem: 91 84<-168 21.7578 128.5 139 139 392> 329 84<140 392 0 392> 341 72<0 392>
LayerCount: 2
Fore
SplineSet
91 392 m 1xda
 175 392 l 1
 175 139 l 2
 175 118 189 63 231 63 c 0
 271.14453125 63 308 98 329 140 c 1
 329 392 l 1
 413 392 l 1xdc
 413 0 l 1
 341 0 l 1xba
 337.938476562 17.2099609375 333.39453125 35.455078125 327 46 c 1
 327 46 286 -7 230 -7 c 0
 209.953125 -7 191.48828125 4.046875 175 21.7578125 c 1
 175 -168 l 1
 91 -168 l 1
 91 392 l 1xda
EndSplineSet
EndChar

StartChar: periodcentered
Encoding: 183 183 109
Width: 224
Flags: MW
HStem: 135 122<95.1641 128.836>
VStem: 51 122<179.164 212.836>
LayerCount: 2
Fore
SplineSet
173 196 m 0
 173 162.328125 145.671875 135 112 135 c 0
 78.328125 135 51 162.328125 51 196 c 0
 51 229.671875 78.328125 257 112 257 c 0
 145.671875 257 173 229.671875 173 196 c 0
EndSplineSet
EndChar

StartChar: uni00B9
Encoding: 185 185 110
Width: 238
Flags: MW
HStem: 280 280<98 175 98 175 91 175>
VStem: 91 84<280 469 469 469>
LayerCount: 2
Fore
SplineSet
98 560 m 1
 175 560 l 1
 175 280 l 1
 91 280 l 1
 91 469 l 1
 28 441 l 1
 7 476 l 1
 98 560 l 1
EndSplineSet
EndChar

StartChar: guillemotright
Encoding: 187 187 111
Width: 392
Flags: MW
HStem: 372 21G
VStem: 56 287.5<56 224.25 224.25 392>
LayerCount: 2
Fore
SplineSet
217 224 m 1
 119 392 l 1
 56 392 l 1
 154 224 l 1
 56 56 l 1
 119 56 l 1
 217 224 l 1
343.5 224.25 m 1
 245.5 392.25 l 1
 182.5 392.25 l 1
 280.5 224.25 l 1
 182.5 56.25 l 1
 245.5 56.25 l 1
 343.5 224.25 l 1
EndSplineSet
EndChar

StartChar: questiondown
Encoding: 191 191 112
Width: 476
Flags: MW
HStem: -8 77<245 248.667 235.667 278.667> 442 122<259.667 300.333>
VStem: 77 98<127.667 133.667> 219 122<482.667 523.333>
LayerCount: 2
Fore
SplineSet
341 503 m 0
 341 462.333007812 320.666992188 442 280 442 c 0
 239.333007812 442 219 462.333007812 219 503 c 0
 219 543.666992188 239.333007812 564 280 564 c 0
 320.666992188 564 341 543.666992188 341 503 c 0
322 384 m 1
 319.5 369.5 l 2
 317.833007812 359.833007812 313.5 346.666992188 306.5 330 c 0
 299.5 313.333007812 290.666992188 298 280 284 c 0
 272.666992188 274 259.166992188 259 239.5 239 c 0
 219.833007812 219 204.166992188 201 192.5 185 c 0
 180.833007812 169 175 153.666992188 175 139 c 0
 175 116.333007812 182 99 196 87 c 0
 210 75 226.333007812 69 245 69 c 0
 252.333007812 69 259.833007812 69.6669921875 267.5 71 c 0
 275.166992188 72.3330078125 281.833007812 74 287.5 76 c 0
 293.166992188 78 299.333007812 81 306 85 c 0
 312.666992188 89 317.833007812 92.1669921875 321.5 94.5 c 0
 325.166992188 96.8330078125 330.333007812 100.833007812 337 106.5 c 0
 343.666992188 112.168945312 348 115.8359375 350 117.5 c 0
 352 119.170898438 356.166992188 123.337890625 362.5 130 c 0
 368.833007812 136.66796875 372.333007812 140.334960938 373 141 c 2
 430 76 l 1
 374 20 312.333007812 -8 245 -8 c 0
 193.666015625 -7.9970703125 152.833007812 3.1689453125 122.5 25.5 c 0
 92.166015625 47.8330078125 77 81 77 125 c 0
 77 142.333007812 79.5 158.833007812 84.5 174.5 c 0
 89.5 190.166992188 97.1669921875 205.166992188 107.5 219.5 c 0
 117.833007812 233.833007812 126.5 245 133.5 253 c 0
 140.5 261 151 271.5 165 284.5 c 0
 179 297.5 187 305 189 307 c 0
 195.666992188 313.666992188 201.166992188 319.666992188 205.5 325 c 0
 209.833007812 330.333984375 213.166992188 336.166992188 215.5 342.5 c 0
 217.833007812 348.833984375 219.333007812 353 220 355 c 0
 220.666992188 357 221.5 362 222.5 370 c 0
 223.5 378 224 382.666992188 224 384 c 2
 322 384 l 1
EndSplineSet
EndChar

StartChar: Agrave
Encoding: 192 192 113
Width: 616
Flags: MW
HStem: 0 21G<70 175 70 70 441 546 441 441> 112 84<238 378 238 406 210 378> 540 20G<252 364 364 364> 634 147<171.5 333.5 171.5 333.5>
LayerCount: 2
Fore
SplineSet
262.5 781 m 1
 171.5 781 l 1
 282.5 634 l 1
 333.5 634 l 1
 262.5 781 l 1
238 196 m 1
 378 196 l 1
 308 434 l 1
 238 196 l 1
252 560 m 1
 364 560 l 1
 546 0 l 1
 441 0 l 1
 406 112 l 1
 210 112 l 1
 175 0 l 1
 70 0 l 1
 252 560 l 1
EndSplineSet
EndChar

StartChar: Aacute
Encoding: 193 193 114
Width: 616
Flags: MW
HStem: 0 21G<70 175 70 70 441 546 441 441> 112 84<238 378 238 406 210 378> 540 20G<252 364 364 364> 634 147<282.5 444.5 282.5 444.5>
VStem: 282.5 162<634 781>
LayerCount: 2
Fore
SplineSet
353.5 781 m 1
 444.5 781 l 1
 333.5 634 l 1
 282.5 634 l 1
 353.5 781 l 1
238 196 m 1
 378 196 l 1
 308 434 l 1
 238 196 l 1
252 560 m 1
 364 560 l 1
 546 0 l 1
 441 0 l 1
 406 112 l 1
 210 112 l 1
 175 0 l 1
 70 0 l 1
 252 560 l 1
EndSplineSet
EndChar

StartChar: Acircumflex
Encoding: 194 194 115
Width: 616
Flags: MW
HStem: 0 21G<70 175 70 70 441 546 441 441> 112 84<238 378 238 406 210 378> 540 20G<252 364 364 364> 634 168<152 345 152 345 271 464 271 410>
VStem: 152 312<634 634>
LayerCount: 2
Fore
SplineSet
345 802 m 1
 464 634 l 1
 410 634 l 1
 308 732 l 1
 206 634 l 1
 152 634 l 1
 271 802 l 1
 345 802 l 1
238 196 m 1
 378 196 l 1
 308 434 l 1
 238 196 l 1
252 560 m 1
 364 560 l 1
 546 0 l 1
 441 0 l 1
 406 112 l 1
 210 112 l 1
 175 0 l 1
 70 0 l 1
 252 560 l 1
EndSplineSet
EndChar

StartChar: Atilde
Encoding: 195 195 116
Width: 616
Flags: MW
HStem: 0 21G<70 175 70 70 441 546 441 441> 112 84<238 378 238 406 210 378> 540 20G<252 364 364 364> 634 58<349.5 377.5 349.5 381.5> 685 59<231.5 259.5>
VStem: 161.5 293<690 697>
LayerCount: 2
Fore
SplineSet
161.5 690 m 1x0c
 161.5 690 206.5 744 248.5 744 c 0x0c
 290.5 744 335.5 692 363.5 692 c 0
 391.5 692 416.5 721 423.5 728 c 1
 454.5 697 l 1
 447.5 690 402.5 634 360.5 634 c 0x14
 318.5 634 273.5 685 245.5 685 c 0
 217.5 685 199.5 666 192.5 659 c 1
 161.5 690 l 1x0c
238 196 m 1xe0
 378 196 l 1
 308 434 l 1
 238 196 l 1xe0
252 560 m 1
 364 560 l 1
 546 0 l 1
 441 0 l 1
 406 112 l 1
 210 112 l 1
 175 0 l 1
 70 0 l 1
 252 560 l 1
EndSplineSet
EndChar

StartChar: Adieresis
Encoding: 196 196 117
Width: 616
Flags: MW
HStem: 0 21G<70 175 70 70 441 546 441 441> 112 84<238 378 238 406 210 378> 540 20G<252 364 364 364> 634 122<199.164 232.836 383.164 416.836>
VStem: 155 122<678.164 711.836> 339 122<678.164 711.836>
LayerCount: 2
Fore
SplineSet
461 695 m 0
 461 661.328125 433.671875 634 400 634 c 0
 366.328125 634 339 661.328125 339 695 c 0
 339 728.671875 366.328125 756 400 756 c 0
 433.671875 756 461 728.671875 461 695 c 0
277 695 m 0
 277 661.328125 249.671875 634 216 634 c 0
 182.328125 634 155 661.328125 155 695 c 0
 155 728.671875 182.328125 756 216 756 c 0
 249.671875 756 277 728.671875 277 695 c 0
238 196 m 1
 378 196 l 1
 308 434 l 1
 238 196 l 1
252 560 m 1
 364 560 l 1
 546 0 l 1
 441 0 l 1
 406 112 l 1
 210 112 l 1
 175 0 l 1
 70 0 l 1
 252 560 l 1
EndSplineSet
EndChar

StartChar: Aring
Encoding: 197 197 118
Width: 616
Flags: MW
HStem: 0 21G<70 175 70 70 441 546 441 441> 112 84<238 378 238 406 210 378> 540 20G<252 364 364 364> 597 40<296.5 319.5 296.5 330.5> 719 40<296.5 319.5>
VStem: 227 40<666.5 689.5 666.5 700.5> 349 40<666.5 689.5>
LayerCount: 2
Fore
SplineSet
389 678 m 0
 389 633 353 597 308 597 c 0
 263 597 227 633 227 678 c 0
 227 723 263 759 308 759 c 0
 353 759 389 723 389 678 c 0
349 678 m 0
 349 701 331 719 308 719 c 0
 285 719 267 701 267 678 c 0
 267 655 285 637 308 637 c 0
 331 637 349 655 349 678 c 0
238 196 m 1
 378 196 l 1
 308 434 l 1
 238 196 l 1
252 560 m 1
 364 560 l 1
 546 0 l 1
 441 0 l 1
 406 112 l 1
 210 112 l 1
 175 0 l 1
 70 0 l 1
 252 560 l 1
EndSplineSet
EndChar

StartChar: AE
Encoding: 198 198 119
Width: 868
Flags: MW
HStem: 0 84<525 777 525 777> 112 84<278.123 427 278.123 434 233 427> 252 84<525 728 525 728> 476 84<525 777 525 525>
VStem: 427 98<196 252 336 469 469 469>
LayerCount: 2
Fore
SplineSet
371 560 m 1
 777 560 l 1
 777 476 l 1
 525 476 l 1
 525 336 l 1
 728 336 l 1
 728 252 l 1
 525 252 l 1
 525 84 l 1
 777 84 l 1
 777 0 l 1
 434 0 l 1
 434 112 l 1
 233 112 l 1
 175 0 l 1
 63 0 l 1
 371 560 l 1
427 469 m 1
 278.123046875 196 l 1
 427 196 l 1
 427 469 l 1
EndSplineSet
EndChar

StartChar: Egrave
Encoding: 200 200 120
Width: 539
Flags: MW
HStem: 0 84<189 448 189 448> 252 84<189 392 189 392> 469 91<189 441 189 189> 634 147<129.5 291.5 129.5 291.5>
VStem: 91 98<84 252 336 469>
LayerCount: 2
Fore
SplineSet
220.5 781 m 1
 129.5 781 l 1
 240.5 634 l 1
 291.5 634 l 1
 220.5 781 l 1
91 0 m 1
 91 560 l 1
 441 560 l 1
 441 469 l 1
 189 469 l 1
 189 336 l 1
 392 336 l 1
 392 252 l 1
 189 252 l 1
 189 84 l 1
 448 84 l 1
 448 0 l 1
 91 0 l 1
EndSplineSet
EndChar

StartChar: Eacute
Encoding: 201 201 121
Width: 539
Flags: MW
HStem: 0 84<189 448 189 448> 252 84<189 392 189 392> 469 91<189 441 189 189> 634 147<240.5 402.5 240.5 402.5>
VStem: 91 98<84 252 336 469> 240.5 162<634 781>
LayerCount: 2
Fore
SplineSet
311.5 781 m 1
 402.5 781 l 1
 291.5 634 l 1
 240.5 634 l 1
 311.5 781 l 1
91 0 m 1
 91 560 l 1
 441 560 l 1
 441 469 l 1
 189 469 l 1
 189 336 l 1
 392 336 l 1
 392 252 l 1
 189 252 l 1
 189 84 l 1
 448 84 l 1
 448 0 l 1
 91 0 l 1
EndSplineSet
EndChar

StartChar: Ecircumflex
Encoding: 202 202 122
Width: 539
Flags: MW
HStem: 0 84<189 448 189 448> 252 84<189 392 189 392> 469 91<189 441 189 189> 634 168<110 303 110 303 229 422 229 368>
VStem: 91 98<84 252 336 469> 110 312<634 634>
LayerCount: 2
Fore
SplineSet
303 802 m 1x14
 422 634 l 1
 368 634 l 1
 266 732 l 1
 164 634 l 1
 110 634 l 1
 229 802 l 1
 303 802 l 1x14
91 0 m 1xe8
 91 560 l 1
 441 560 l 1
 441 469 l 1
 189 469 l 1
 189 336 l 1
 392 336 l 1
 392 252 l 1
 189 252 l 1
 189 84 l 1
 448 84 l 1
 448 0 l 1
 91 0 l 1xe8
EndSplineSet
EndChar

StartChar: Edieresis
Encoding: 203 203 123
Width: 539
Flags: MW
HStem: 0 84<189 448 189 448> 252 84<189 392 189 392> 469 91<189 441 189 189> 634 122<157.164 190.836 341.164 374.836>
VStem: 91 98<84 252 336 469> 113 122<678.164 711.836> 297 122<678.164 711.836>
LayerCount: 2
Fore
SplineSet
419 695 m 0x16
 419 661.328125 391.671875 634 358 634 c 0
 324.328125 634 297 661.328125 297 695 c 0
 297 728.671875 324.328125 756 358 756 c 0
 391.671875 756 419 728.671875 419 695 c 0x16
235 695 m 0
 235 661.328125 207.671875 634 174 634 c 0
 140.328125 634 113 661.328125 113 695 c 0
 113 728.671875 140.328125 756 174 756 c 0
 207.671875 756 235 728.671875 235 695 c 0
91 0 m 1xe8
 91 560 l 1
 441 560 l 1
 441 469 l 1
 189 469 l 1
 189 336 l 1
 392 336 l 1
 392 252 l 1
 189 252 l 1
 189 84 l 1
 448 84 l 1
 448 0 l 1
 91 0 l 1xe8
EndSplineSet
EndChar

StartChar: Igrave
Encoding: 204 204 124
Width: 280
Flags: MW
HStem: 0 21G<91 91 91 189> 540 20G<91 189 189 189> 634 147<3.5 165.5 3.5 165.5>
VStem: 91 98<0 560 0 560>
LayerCount: 2
Fore
SplineSet
94.5 781 m 1
 3.5 781 l 1
 114.5 634 l 1
 165.5 634 l 1
 94.5 781 l 1
91 0 m 1
 91 560 l 1
 189 560 l 1
 189 0 l 1
 91 0 l 1
EndSplineSet
EndChar

StartChar: Iacute
Encoding: 205 205 125
Width: 280
Flags: MW
HStem: 0 21G<91 91 91 189> 540 20G<91 189 189 189> 634 147<114.5 276.5 114.5 276.5>
VStem: 91 98<0 560 0 560> 114.5 162<634 781>
LayerCount: 2
Fore
SplineSet
185.5 781 m 1x28
 276.5 781 l 1
 165.5 634 l 1
 114.5 634 l 1
 185.5 781 l 1x28
91 0 m 1xd0
 91 560 l 1
 189 560 l 1
 189 0 l 1
 91 0 l 1xd0
EndSplineSet
EndChar

StartChar: Icircumflex
Encoding: 206 206 126
Width: 280
Flags: MW
HStem: 0 21G<91 91 91 189> 540 20G<91 189 189 189> 634 168<-16 177 -16 177 103 296 103 242>
VStem: -16 312<634 634> 91 98<0 560 0 560>
LayerCount: 2
Fore
SplineSet
177 802 m 1x30
 296 634 l 1
 242 634 l 1
 140 732 l 1
 38 634 l 1
 -16 634 l 1
 103 802 l 1
 177 802 l 1x30
91 0 m 1xc8
 91 560 l 1
 189 560 l 1
 189 0 l 1
 91 0 l 1xc8
EndSplineSet
EndChar

StartChar: Idieresis
Encoding: 207 207 127
Width: 280
Flags: MW
HStem: 0 21G<91 91 91 189> 540 20G<91 189 189 189> 625 122<31.1641 64.8359 215.164 248.836>
VStem: -13 122<669.164 702.836> 91 98<0 560 0 560> 171 122<669.164 702.836>
LayerCount: 2
Fore
SplineSet
293 686 m 0x34
 293 652.328125 265.671875 625 232 625 c 0
 198.328125 625 171 652.328125 171 686 c 0
 171 719.671875 198.328125 747 232 747 c 0
 265.671875 747 293 719.671875 293 686 c 0x34
109 686 m 0
 109 652.328125 81.671875 625 48 625 c 0
 14.328125 625 -13 652.328125 -13 686 c 0
 -13 719.671875 14.328125 747 48 747 c 0
 81.671875 747 109 719.671875 109 686 c 0
91 0 m 1xc8
 91 560 l 1
 189 560 l 1
 189 0 l 1
 91 0 l 1xc8
EndSplineSet
EndChar

StartChar: Eth
Encoding: 208 208 128
Width: 651
Flags: MW
HStem: 0 84<252 336 336 343> 238 84<70 154 70 154 252 336> 476 84<252 252 252 336>
VStem: 154 98<84 238 84 238 84 238 322 476> 483 102<213.5 346.5>
CounterMasks: 1 e0
LayerCount: 2
Fore
SplineSet
154 560 m 1
 343 560 l 2
 497 560 585 442 585 280 c 0
 585 118 497 0 343 0 c 2
 154 0 l 1
 154 238 l 1
 70 238 l 1
 70 322 l 1
 154 322 l 1
 154 560 l 1
252 476 m 1
 252 322 l 1
 336 322 l 1
 336 238 l 1
 252 238 l 1
 252 84 l 1
 336 84 l 2
 413 84 483 147 483 280 c 0
 483 413 413 476 336 476 c 2
 252 476 l 1
EndSplineSet
EndChar

StartChar: Ntilde
Encoding: 209 209 129
Width: 588
Flags: MW
HStem: 0 21G<84 84 84 182 392 392 392 504> 540 20G<84 196 196 196 406 504 504 504> 634 58<335.5 363.5 335.5 367.5> 685 59<217.5 245.5>
VStem: 84 98<0 406 0 560> 147.5 293<690 697> 406 98<161 560 0 560>
LayerCount: 2
Fore
SplineSet
147.5 690 m 1x14
 147.5 690 192.5 744 234.5 744 c 0x14
 276.5 744 321.5 692 349.5 692 c 0
 377.5 692 402.5 721 409.5 728 c 1
 440.5 697 l 1
 433.5 690 388.5 634 346.5 634 c 0x24
 304.5 634 259.5 685 231.5 685 c 0
 203.5 685 185.5 666 178.5 659 c 1
 147.5 690 l 1x14
84 0 m 1xca
 84 560 l 1
 196 560 l 1
 406 161 l 1
 406 560 l 1
 504 560 l 1
 504 0 l 1
 392 0 l 1
 182 406 l 1
 182 0 l 1
 84 0 l 1xca
EndSplineSet
EndChar

StartChar: Ograve
Encoding: 210 210 130
Width: 588
Flags: MW
HStem: -14 91<255.5 332.5 255.5 371> 483 91<255.5 332.5> 634 147<157.5 319.5 157.5 319.5>
VStem: 66 95<217 343 217 361> 427 95<217 343>
LayerCount: 2
Fore
SplineSet
248.5 781 m 1
 157.5 781 l 1
 268.5 634 l 1
 319.5 634 l 1
 248.5 781 l 1
294 574 m 0
 448 574 522 442 522 280 c 0
 522 118 448 -14 294 -14 c 0
 140 -14 66 118 66 280 c 0
 66 442 140 574 294 574 c 0
294 483 m 0
 217 483 161 406 161 280 c 0
 161 154 217 77 294 77 c 0
 371 77 427 154 427 280 c 0
 427 406 371 483 294 483 c 0
EndSplineSet
EndChar

StartChar: Oacute
Encoding: 211 211 131
Width: 588
Flags: MW
HStem: -14 91<255.5 332.5 255.5 371> 483 91<255.5 332.5> 634 147<268.5 430.5 268.5 430.5>
VStem: 66 95<217 343 217 361> 268.5 162<634 781> 427 95<217 343>
LayerCount: 2
Fore
SplineSet
339.5 781 m 1x28
 430.5 781 l 1
 319.5 634 l 1
 268.5 634 l 1
 339.5 781 l 1x28
294 574 m 0xd4
 448 574 522 442 522 280 c 0
 522 118 448 -14 294 -14 c 0
 140 -14 66 118 66 280 c 0
 66 442 140 574 294 574 c 0xd4
294 483 m 0
 217 483 161 406 161 280 c 0
 161 154 217 77 294 77 c 0
 371 77 427 154 427 280 c 0
 427 406 371 483 294 483 c 0
EndSplineSet
EndChar

StartChar: Ocircumflex
Encoding: 212 212 132
Width: 588
Flags: MW
HStem: -14 91<255.5 332.5 255.5 371> 483 91<255.5 332.5> 634 168<138 331 138 331 257 450 257 396>
VStem: 66 95<217 343 217 361> 138 312<634 634> 427 95<217 343>
LayerCount: 2
Fore
SplineSet
331 802 m 1x28
 450 634 l 1
 396 634 l 1
 294 732 l 1
 192 634 l 1
 138 634 l 1
 257 802 l 1
 331 802 l 1x28
294 574 m 0xd4
 448 574 522 442 522 280 c 0
 522 118 448 -14 294 -14 c 0
 140 -14 66 118 66 280 c 0
 66 442 140 574 294 574 c 0xd4
294 483 m 0
 217 483 161 406 161 280 c 0
 161 154 217 77 294 77 c 0
 371 77 427 154 427 280 c 0
 427 406 371 483 294 483 c 0
EndSplineSet
EndChar

StartChar: Otilde
Encoding: 213 213 133
Width: 588
Flags: MW
HStem: -14 91<255.5 332.5 255.5 371> 483 91<255.5 332.5> 634 58<335.5 363.5 335.5 367.5> 685 59<217.5 245.5>
VStem: 66 95<217 343 217 361> 147.5 293<690 697> 427 95<217 343>
LayerCount: 2
Fore
SplineSet
147.5 690 m 1x14
 147.5 690 192.5 744 234.5 744 c 0x14
 276.5 744 321.5 692 349.5 692 c 0
 377.5 692 402.5 721 409.5 728 c 1
 440.5 697 l 1
 433.5 690 388.5 634 346.5 634 c 0x24
 304.5 634 259.5 685 231.5 685 c 0
 203.5 685 185.5 666 178.5 659 c 1
 147.5 690 l 1x14
294 574 m 0xca
 448 574 522 442 522 280 c 0
 522 118 448 -14 294 -14 c 0
 140 -14 66 118 66 280 c 0
 66 442 140 574 294 574 c 0xca
294 483 m 0
 217 483 161 406 161 280 c 0
 161 154 217 77 294 77 c 0
 371 77 427 154 427 280 c 0
 427 406 371 483 294 483 c 0
EndSplineSet
EndChar

StartChar: Odieresis
Encoding: 214 214 134
Width: 588
Flags: MW
HStem: -14 91<255.5 332.5 255.5 371> 483 91<255.5 332.5> 625 122<184.164 217.836 368.164 401.836>
VStem: 66 95<217 343 217 361> 140 122<669.164 702.836> 324 122<669.164 702.836> 427 95<217 343>
LayerCount: 2
Fore
SplineSet
446 686 m 0x2c
 446 652.328125 418.671875 625 385 625 c 0
 351.328125 625 324 652.328125 324 686 c 0
 324 719.671875 351.328125 747 385 747 c 0
 418.671875 747 446 719.671875 446 686 c 0x2c
262 686 m 0
 262 652.328125 234.671875 625 201 625 c 0
 167.328125 625 140 652.328125 140 686 c 0
 140 719.671875 167.328125 747 201 747 c 0
 234.671875 747 262 719.671875 262 686 c 0
294 574 m 0xd2
 448 574 522 442 522 280 c 0
 522 118 448 -14 294 -14 c 0
 140 -14 66 118 66 280 c 0
 66 442 140 574 294 574 c 0xd2
294 483 m 0
 217 483 161 406 161 280 c 0
 161 154 217 77 294 77 c 0
 371 77 427 154 427 280 c 0
 427 406 371 483 294 483 c 0
EndSplineSet
EndChar

StartChar: multiply
Encoding: 215 215 135
Width: 504
Flags: W
LayerCount: 2
Fore
SplineSet
371 469 m 1
 427 413 l 1
 315 301 l 1
 306 294 l 1
 315 287 l 1
 427 175 l 1
 371 119 l 1
 259 231 l 1
 252 240 l 1
 245 231 l 1
 133 119 l 1
 77 175 l 1
 189 287 l 1
 198 294 l 1
 189 301 l 1
 77 413 l 1
 133 469 l 1
 245 357 l 1
 252 348 l 1
 259 357 l 1
 371 469 l 1
EndSplineSet
EndChar

StartChar: Ugrave
Encoding: 217 217 136
Width: 588
Flags: MW
HStem: -7 77<273 315 273 392> 540 20G<91 189 189 189 399 497 497 497> 634 147<157.5 319.5 157.5 319.5>
VStem: 91 98<182 560> 399 98<178.5 182 182 560>
LayerCount: 2
Fore
SplineSet
248.5 781 m 1
 157.5 781 l 1
 268.5 634 l 1
 319.5 634 l 1
 248.5 781 l 1
91 560 m 1
 189 560 l 1
 189 175 l 2
 189 98 252 70 294 70 c 0
 336 70 399 98 399 175 c 2
 399 560 l 1
 497 560 l 1
 497 182 l 2
 497 175 490 -7 294 -7 c 0
 98 -7 91 175 91 182 c 2
 91 560 l 1
EndSplineSet
EndChar

StartChar: Uacute
Encoding: 218 218 137
Width: 588
Flags: MW
HStem: -7 77<273 315 273 392> 540 20G<91 189 189 189 399 497 497 497> 634 147<268.5 430.5 268.5 430.5>
VStem: 91 98<182 560> 268.5 162<634 781> 399 98<178.5 182 182 560>
LayerCount: 2
Fore
SplineSet
339.5 781 m 1x28
 430.5 781 l 1
 319.5 634 l 1
 268.5 634 l 1
 339.5 781 l 1x28
91 560 m 1xd4
 189 560 l 1
 189 175 l 2
 189 98 252 70 294 70 c 0
 336 70 399 98 399 175 c 2
 399 560 l 1
 497 560 l 1
 497 182 l 2
 497 175 490 -7 294 -7 c 0
 98 -7 91 175 91 182 c 2
 91 560 l 1xd4
EndSplineSet
EndChar

StartChar: Ucircumflex
Encoding: 219 219 138
Width: 588
Flags: MW
HStem: -7 77<273 315 273 392> 540 20G<91 189 189 189 399 497 497 497> 634 168<138 331 138 331 257 450 257 396>
VStem: 91 98<182 560> 138 312<634 634> 399 98<178.5 182 182 560>
LayerCount: 2
Fore
SplineSet
331 802 m 1x28
 450 634 l 1
 396 634 l 1
 294 732 l 1
 192 634 l 1
 138 634 l 1
 257 802 l 1
 331 802 l 1x28
91 560 m 1xd4
 189 560 l 1
 189 175 l 2
 189 98 252 70 294 70 c 0
 336 70 399 98 399 175 c 2
 399 560 l 1
 497 560 l 1
 497 182 l 2
 497 175 490 -7 294 -7 c 0
 98 -7 91 175 91 182 c 2
 91 560 l 1xd4
EndSplineSet
EndChar

StartChar: Udieresis
Encoding: 220 220 139
Width: 588
Flags: MW
HStem: -7 77<273 315 273 392> 540 20G<91 189 189 189 399 497 497 497> 625 122<187.164 220.836 371.164 404.836>
VStem: 91 98<182 560> 143 122<669.164 702.836> 327 122<669.164 702.836> 399 98<178.5 182 182 560>
LayerCount: 2
Fore
SplineSet
449 686 m 0x2c
 449 652.328125 421.671875 625 388 625 c 0
 354.328125 625 327 652.328125 327 686 c 0
 327 719.671875 354.328125 747 388 747 c 0
 421.671875 747 449 719.671875 449 686 c 0x2c
265 686 m 0
 265 652.328125 237.671875 625 204 625 c 0
 170.328125 625 143 652.328125 143 686 c 0
 143 719.671875 170.328125 747 204 747 c 0
 237.671875 747 265 719.671875 265 686 c 0
91 560 m 1xd2
 189 560 l 1
 189 175 l 2
 189 98 252 70 294 70 c 0
 336 70 399 98 399 175 c 2
 399 560 l 1
 497 560 l 1
 497 182 l 2
 497 175 490 -7 294 -7 c 0
 98 -7 91 175 91 182 c 2
 91 560 l 1xd2
EndSplineSet
EndChar

StartChar: Yacute
Encoding: 221 221 140
Width: 588
Flags: MW
HStem: 0 21G<245 245 245 343> 540 20G<70 182 182 182 406 518 518 518> 634 147<268.5 430.5 268.5 430.5>
VStem: 245 98<0 224 0 224> 268.5 162<634 781>
LayerCount: 2
Fore
SplineSet
339.5 781 m 1x28
 430.5 781 l 1
 319.5 634 l 1
 268.5 634 l 1
 339.5 781 l 1x28
245 0 m 1xd0
 245 224 l 1
 70 560 l 1
 182 560 l 1
 294 329 l 1
 406 560 l 1
 518 560 l 1
 343 224 l 1
 343 0 l 1
 245 0 l 1xd0
EndSplineSet
EndChar

StartChar: Thorn
Encoding: 222 222 141
Width: 560
Flags: MW
HStem: 0 21G<91 189 91 91> 116 84<189 252 252 280 189 252> 396 84<189 280 189 252> 540 20G<91 189 189 189>
VStem: 91 98<0 116 0 200 200 396 480 560> 364 98<263 333>
LayerCount: 2
Fore
SplineSet
91 560 m 1
 189 560 l 1
 189 480 l 1
 280 480 l 2
 413 480 462 375 462 298 c 0
 462 221 413 116 280 116 c 2
 189 116 l 1
 189 0 l 1
 91 0 l 1
 91 560 l 1
189 396 m 1
 189 200 l 1
 252 200 l 2
 308 200 364 228 364 298 c 0
 364 368 308 396 252 396 c 2
 189 396 l 1
EndSplineSet
EndChar

StartChar: germandbls
Encoding: 223 223 142
Width: 480
Flags: MW
HStem: -168 21G<84 84 84 168> 0 21G<238 319 238 238> 252 70<217 252> 504 70<213.5 262.5>
VStem: 84 84<-168 434 -168 465.5> 308 86<392.5 437.5> 322 91<157.5 199.5>
LayerCount: 2
Fore
SplineSet
84 -168 m 1xfc
 84 434 l 2
 84 497 154 574 238 574 c 0
 315 574 394 515 394 431 c 0
 394 354 350 315 308 301 c 1xfc
 371 287 413 245 413 189 c 0
 413 126 364 63 319 0 c 1
 238 0 l 1
 238 0 322 98 322 168 c 0xfa
 322 231 287 252 217 252 c 1
 217 322 l 1
 259 329 308 357 308 420 c 0
 308 455 287 504 238 504 c 0
 189 504 168 448 168 434 c 2
 168 -168 l 1
 84 -168 l 1xfc
EndSplineSet
EndChar

StartChar: agrave
Encoding: 224 224 143
Width: 476
Flags: MW
HStem: -14 70<210 224> 189 63<308 308> 336 70<203 248.5> 466 147<87.5 249.5 87.5 249.5>
VStem: 70 91<112 112.116 112.116 150.5 94.5 178.238> 308 84<119 189 189 189 252 266>
LayerCount: 2
Fore
SplineSet
178.5 613 m 1
 87.5 613 l 1
 198.5 466 l 1
 249.5 466 l 1
 178.5 613 l 1
238 406 m 0
 329 406 392 336 392 266 c 2
 392 91 l 2
 392 56 413 56 427 56 c 1
 392 -14 l 1
 343 -14 315 -7 308 49 c 1
 294 21 252 -14 196 -14 c 0
 140 -14 70.0673828125 28 70 112 c 2
 70 112.116210938 l 2
 70 244.359375 252.016601562 238.00390625 308 252 c 1
 308 273 l 2
 308 301 273 336 224 336 c 0
 182 336 140 308 119 289 c 1
 77 357 l 1
 112 378 168 406 238 406 c 0
308 189 m 1
 273 175 161 182 161 119 c 0
 161 70 203 56 217 56 c 0
 259 56 308 112 308 119 c 2
 308 189 l 1
EndSplineSet
EndChar

StartChar: aacute
Encoding: 225 225 144
Width: 476
Flags: MW
HStem: -14 70<210 224> 189 63<308 308> 336 70<203 248.5> 466 147<198.5 360.5 198.5 360.5>
VStem: 70 91<112 112.116 112.116 150.5 94.5 178.238> 198.5 162<466 613> 308 84<119 189 189 189 252 266>
LayerCount: 2
Fore
SplineSet
269.5 613 m 1x14
 360.5 613 l 1
 249.5 466 l 1
 198.5 466 l 1
 269.5 613 l 1x14
238 406 m 0xea
 329 406 392 336 392 266 c 2
 392 91 l 2
 392 56 413 56 427 56 c 1
 392 -14 l 1
 343 -14 315 -7 308 49 c 1
 294 21 252 -14 196 -14 c 0
 140 -14 70.0673828125 28 70 112 c 2
 70 112.116210938 l 2
 70 244.359375 252.016601562 238.00390625 308 252 c 1
 308 273 l 2
 308 301 273 336 224 336 c 0
 182 336 140 308 119 289 c 1
 77 357 l 1
 112 378 168 406 238 406 c 0xea
308 189 m 1
 273 175 161 182 161 119 c 0
 161 70 203 56 217 56 c 0
 259 56 308 112 308 119 c 2
 308 189 l 1
EndSplineSet
EndChar

StartChar: acircumflex
Encoding: 226 226 145
Width: 476
Flags: MW
HStem: -14 70<210 224> 189 63<308 308> 336 70<203 248.5> 466 168<68 261 68 261 187 380 187 326>
VStem: 68 312<466 466> 70 91<112 112.116 112.116 150.5 94.5 178.238> 308 84<119 189 189 189 252 266>
LayerCount: 2
Fore
SplineSet
261 634 m 1x18
 380 466 l 1
 326 466 l 1
 224 564 l 1
 122 466 l 1
 68 466 l 1
 187 634 l 1
 261 634 l 1x18
238 406 m 0xe6
 329 406 392 336 392 266 c 2
 392 91 l 2
 392 56 413 56 427 56 c 1
 392 -14 l 1
 343 -14 315 -7 308 49 c 1
 294 21 252 -14 196 -14 c 0
 140 -14 70.0673828125 28 70 112 c 2
 70 112.116210938 l 2
 70 244.359375 252.016601562 238.00390625 308 252 c 1
 308 273 l 2
 308 301 273 336 224 336 c 0
 182 336 140 308 119 289 c 1
 77 357 l 1
 112 378 168 406 238 406 c 0xe6
308 189 m 1
 273 175 161 182 161 119 c 0
 161 70 203 56 217 56 c 0
 259 56 308 112 308 119 c 2
 308 189 l 1
EndSplineSet
EndChar

StartChar: atilde
Encoding: 227 227 146
Width: 476
Flags: MW
HStem: -14 70<210 224> 189 63<308 308> 336 70<203 248.5> 466 58<265.5 293.5 265.5 297.5> 517 59<147.5 175.5>
VStem: 70 91<112 112.116 112.116 150.5 94.5 178.238> 77.5 293<522 529> 308 84<119 189 189 189 252 266>
LayerCount: 2
Fore
SplineSet
77.5 522 m 1x0a
 77.5 522 122.5 576 164.5 576 c 0x0a
 206.5 576 251.5 524 279.5 524 c 0
 307.5 524 332.5 553 339.5 560 c 1
 370.5 529 l 1
 363.5 522 318.5 466 276.5 466 c 0x12
 234.5 466 189.5 517 161.5 517 c 0
 133.5 517 115.5 498 108.5 491 c 1
 77.5 522 l 1x0a
238 406 m 0xe5
 329 406 392 336 392 266 c 2
 392 91 l 2
 392 56 413 56 427 56 c 1
 392 -14 l 1
 343 -14 315 -7 308 49 c 1
 294 21 252 -14 196 -14 c 0
 140 -14 70.0673828125 28 70 112 c 2
 70 112.116210938 l 2
 70 244.359375 252.016601562 238.00390625 308 252 c 1
 308 273 l 2
 308 301 273 336 224 336 c 0
 182 336 140 308 119 289 c 1
 77 357 l 1
 112 378 168 406 238 406 c 0xe5
308 189 m 1
 273 175 161 182 161 119 c 0
 161 70 203 56 217 56 c 0
 259 56 308 112 308 119 c 2
 308 189 l 1
EndSplineSet
EndChar

StartChar: adieresis
Encoding: 228 228 147
Width: 476
Flags: MW
HStem: -14 70<210 224> 189 63<308 308> 336 70<203 248.5> 466 122<115.164 148.836 299.164 332.836>
VStem: 70 91<112 112.116 112.116 150.5 94.5 178.238> 71 122<510.164 543.836> 255 122<510.164 543.836> 308 84<119 189 189 189 252 266>
LayerCount: 2
Fore
SplineSet
377 527 m 0x16
 377 493.328125 349.671875 466 316 466 c 0
 282.328125 466 255 493.328125 255 527 c 0
 255 560.671875 282.328125 588 316 588 c 0
 349.671875 588 377 560.671875 377 527 c 0x16
193 527 m 0
 193 493.328125 165.671875 466 132 466 c 0
 98.328125 466 71 493.328125 71 527 c 0
 71 560.671875 98.328125 588 132 588 c 0
 165.671875 588 193 560.671875 193 527 c 0
238 406 m 0xe9
 329 406 392 336 392 266 c 2
 392 91 l 2
 392 56 413 56 427 56 c 1
 392 -14 l 1
 343 -14 315 -7 308 49 c 1
 294 21 252 -14 196 -14 c 0
 140 -14 70.0673828125 28 70 112 c 2
 70 112.116210938 l 2
 70 244.359375 252.016601562 238.00390625 308 252 c 1
 308 273 l 2
 308 301 273 336 224 336 c 0
 182 336 140 308 119 289 c 1
 77 357 l 1
 112 378 168 406 238 406 c 0xe9
308 189 m 1
 273 175 161 182 161 119 c 0
 161 70 203 56 217 56 c 0
 259 56 308 112 308 119 c 2
 308 189 l 1
EndSplineSet
EndChar

StartChar: aring
Encoding: 229 229 148
Width: 476
Flags: MW
HStem: -14 70<210 224> 189 63<308 308> 336 70<203 248.5> 466 40<226.5 249.5 226.5 260.5> 588 40<226.5 249.5>
VStem: 70 91<112 112.116 112.116 150.5 94.5 178.238> 157 40<535.5 558.5 535.5 569.5> 279 40<535.5 558.5> 308 84<119 189 189 189 252 266>
LayerCount: 2
Fore
SplineSet
319 547 m 0x1b
 319 502 283 466 238 466 c 0
 193 466 157 502 157 547 c 0
 157 592 193 628 238 628 c 0
 283 628 319 592 319 547 c 0x1b
279 547 m 0
 279 570 261 588 238 588 c 0
 215 588 197 570 197 547 c 0
 197 524 215 506 238 506 c 0
 261 506 279 524 279 547 c 0
238 406 m 0xe480
 329 406 392 336 392 266 c 2
 392 91 l 2
 392 56 413 56 427 56 c 1
 392 -14 l 1
 343 -14 315 -7 308 49 c 1
 294 21 252 -14 196 -14 c 0
 140 -14 70.0673828125 28 70 112 c 2
 70 112.116210938 l 2
 70 244.359375 252.016601562 238.00390625 308 252 c 1
 308 273 l 2
 308 301 273 336 224 336 c 0
 182 336 140 308 119 289 c 1
 77 357 l 1
 112 378 168 406 238 406 c 0xe480
308 189 m 1
 273 175 161 182 161 119 c 0
 161 70 203 56 217 56 c 0
 259 56 308 112 308 119 c 2
 308 189 l 1
EndSplineSet
EndChar

StartChar: ae
Encoding: 230 230 149
Width: 709
Flags: MW
HStem: -14 70 -14 77<457.978 488.5 457.978 495.5> 168 63<380 546> 336 70<203 248.5>
VStem: 70 84<91.001 147.001 91.001 178.5> 296 84<112.001 168 112 168.001 112 168.001 231 273 273 287> 546 93<231 259.14>
LayerCount: 2
Fore
SplineSet
238 406 m 0xbe
 282.659179688 406 317.194335938 385.767578125 340.794921875 363.5078125 c 1
 373.810546875 389.88671875 416.322265625 406 457 406 c 0
 555 406 639 315 639 210 c 0
 639 189 629.666992188 168 618 168 c 2
 380 168 l 1
 380 112 l 1
 401.541992188 71.44140625 444.956054688 63 471 63 c 0
 506 63 535 81 563 116 c 1
 631 77 l 1
 582 14 520 -14 471 -14 c 0x7e
 415.384765625 -14 362.61328125 9.578125 325.548828125 50.470703125 c 1
 304.18359375 17.408203125 268.94140625 -14 196 -14 c 0
 140 -14 70 28 70 112 c 0
 70 245 226 224 296 231 c 1
 296 273 l 2
 296 301 273 336 224 336 c 0
 182 336 140 308 119 289 c 1
 77 357 l 1
 112 378 168 406 238 406 c 0xbe
546 231 m 1
 546 287.280273438 502.670898438 336.005859375 456.01171875 336.005859375 c 0
 425.385742188 336.005859375 397.037109375 320.5 380 289.931640625 c 1
 380 231 l 1
 546 231 l 1
296 168.000976562 m 1
 247 161.000976562 154 182.000976562 154 112.000976562 c 0
 154 70.0009765625 189 56.0009765625 210 56.0009765625 c 0xbe
 252 56.0009765625 296 105.000976562 296 112.000976562 c 2
 296 168.000976562 l 1
EndSplineSet
EndChar

StartChar: egrave
Encoding: 232 232 150
Width: 504
Flags: MW
HStem: -14 77<248.5 283.5 248.5 290.5> 168 70<161 336 336 338.5 161 413 161 336> 336 70<229.5 272.5> 466 147<115.5 277.5 115.5 277.5>
VStem: 68 93<133 168 126 226.5> 343 91<248.5 262.5 199.5 272.5>
LayerCount: 2
Fore
SplineSet
206.5 613 m 1
 115.5 613 l 1
 226.5 466 l 1
 277.5 466 l 1
 206.5 613 l 1
252 336 m 0
 207 336 161 308 161 238 c 1
 336 238 l 2
 341 238 343 245 343 252 c 0
 343 293 293 336 252 336 c 0
413 168 m 2
 161 168 l 1
 161 84 231 63 266 63 c 0
 301 63 322 81 350 116 c 1
 418 77 l 1
 369 14 315 -14 266 -14 c 0
 161 -14 68 70 68 196 c 0
 68 257 79 301 108 336 c 0
 142 378 199 406 252 406 c 0
 350 406 434 315 434 210 c 0
 434 189 425 168 413 168 c 2
EndSplineSet
EndChar

StartChar: eacute
Encoding: 233 233 151
Width: 504
Flags: MW
HStem: -14 77<248.5 283.5 248.5 290.5> 168 70<161 336 336 338.5 161 413 161 336> 336 70<229.5 272.5> 466 147<226.5 388.5 226.5 388.5>
VStem: 68 93<133 168 126 226.5> 226.5 162<466 613> 343 91<248.5 262.5 199.5 272.5>
LayerCount: 2
Fore
SplineSet
297.5 613 m 1x14
 388.5 613 l 1
 277.5 466 l 1
 226.5 466 l 1
 297.5 613 l 1x14
252 336 m 0xea
 207 336 161 308 161 238 c 1
 336 238 l 2
 341 238 343 245 343 252 c 0
 343 293 293 336 252 336 c 0xea
413 168 m 2
 161 168 l 1
 161 84 231 63 266 63 c 0
 301 63 322 81 350 116 c 1
 418 77 l 1
 369 14 315 -14 266 -14 c 0
 161 -14 68 70 68 196 c 0
 68 257 79 301 108 336 c 0
 142 378 199 406 252 406 c 0
 350 406 434 315 434 210 c 0
 434 189 425 168 413 168 c 2
EndSplineSet
EndChar

StartChar: ecircumflex
Encoding: 234 234 152
Width: 504
Flags: MW
HStem: -14 77<248.5 283.5 248.5 290.5> 168 70<161 336 336 338.5 161 413 161 336> 336 70<229.5 272.5> 466 168<96 289 96 289 215 408 215 354>
VStem: 68 93<133 168 126 226.5> 96 312<466 466> 343 91<248.5 262.5 199.5 272.5>
LayerCount: 2
Fore
SplineSet
289 634 m 1x14
 408 466 l 1
 354 466 l 1
 252 564 l 1
 150 466 l 1
 96 466 l 1
 215 634 l 1
 289 634 l 1x14
252 336 m 0xea
 207 336 161 308 161 238 c 1
 336 238 l 2
 341 238 343 245 343 252 c 0
 343 293 293 336 252 336 c 0xea
413 168 m 2
 161 168 l 1
 161 84 231 63 266 63 c 0
 301 63 322 81 350 116 c 1
 418 77 l 1
 369 14 315 -14 266 -14 c 0
 161 -14 68 70 68 196 c 0
 68 257 79 301 108 336 c 0
 142 378 199 406 252 406 c 0
 350 406 434 315 434 210 c 0
 434 189 425 168 413 168 c 2
EndSplineSet
EndChar

StartChar: edieresis
Encoding: 235 235 153
Width: 504
Flags: MW
HStem: -14 77<248.5 283.5 248.5 290.5> 168 70<161 336 336 338.5 161 413 161 336> 336 70<229.5 272.5> 457 122<144.164 177.836 328.164 361.836>
VStem: 68 93<133 168 126 226.5> 100 122<501.164 534.836> 284 122<501.164 534.836> 343 91<248.5 262.5 199.5 272.5>
LayerCount: 2
Fore
SplineSet
406 518 m 0x16
 406 484.328125 378.671875 457 345 457 c 0
 311.328125 457 284 484.328125 284 518 c 0
 284 551.671875 311.328125 579 345 579 c 0
 378.671875 579 406 551.671875 406 518 c 0x16
222 518 m 0
 222 484.328125 194.671875 457 161 457 c 0
 127.328125 457 100 484.328125 100 518 c 0
 100 551.671875 127.328125 579 161 579 c 0
 194.671875 579 222 551.671875 222 518 c 0
252 336 m 0xe9
 207 336 161 308 161 238 c 1
 336 238 l 2
 341 238 343 245 343 252 c 0
 343 293 293 336 252 336 c 0xe9
413 168 m 2
 161 168 l 1
 161 84 231 63 266 63 c 0
 301 63 322 81 350 116 c 1
 418 77 l 1
 369 14 315 -14 266 -14 c 0
 161 -14 68 70 68 196 c 0
 68 257 79 301 108 336 c 0
 142 378 199 406 252 406 c 0
 350 406 434 315 434 210 c 0
 434 189 425 168 413 168 c 2
EndSplineSet
EndChar

StartChar: igrave
Encoding: 236 236 154
Width: 252
Flags: MW
HStem: 0 21G<84 84 84 168> 372 20G<84 168 168 168> 466 147<-10.5 151.5 -10.5 151.5>
VStem: 84 84<0 392 0 392>
LayerCount: 2
Fore
SplineSet
80.5 613 m 1
 -10.5 613 l 1
 100.5 466 l 1
 151.5 466 l 1
 80.5 613 l 1
84 0 m 1
 84 392 l 1
 168 392 l 1
 168 0 l 1
 84 0 l 1
EndSplineSet
EndChar

StartChar: iacute
Encoding: 237 237 155
Width: 252
Flags: MW
HStem: 0 21G<84 84 84 168> 372 20G<84 168 168 168> 466 147<100.5 262.5 100.5 262.5>
VStem: 84 84<0 392 0 392> 100.5 162<466 613>
LayerCount: 2
Fore
SplineSet
171.5 613 m 1x28
 262.5 613 l 1
 151.5 466 l 1
 100.5 466 l 1
 171.5 613 l 1x28
84 0 m 1xd0
 84 392 l 1
 168 392 l 1
 168 0 l 1
 84 0 l 1xd0
EndSplineSet
EndChar

StartChar: icircumflex
Encoding: 238 238 156
Width: 252
Flags: MW
HStem: 0 21G<84 84 84 168> 372 20G<84 168 168 168> 466 168<-30 163 -30 163 89 282 89 228>
VStem: -30 312<466 466> 84 84<0 392 0 392>
LayerCount: 2
Fore
SplineSet
163 634 m 1x30
 282 466 l 1
 228 466 l 1
 126 564 l 1
 24 466 l 1
 -30 466 l 1
 89 634 l 1
 163 634 l 1x30
84 0 m 1xc8
 84 392 l 1
 168 392 l 1
 168 0 l 1
 84 0 l 1xc8
EndSplineSet
EndChar

StartChar: idieresis
Encoding: 239 239 157
Width: 366
Flags: MW
HStem: 0 21G<140 140 140 224> 372 20G<140 224 224 224> 457 122<74.1641 107.836 258.164 291.836>
VStem: 30 122<501.164 534.836> 140 84<0 392 0 392> 214 122<501.164 534.836>
LayerCount: 2
Fore
SplineSet
336 518 m 0x34
 336 484.328125 308.671875 457 275 457 c 0
 241.328125 457 214 484.328125 214 518 c 0
 214 551.671875 241.328125 579 275 579 c 0
 308.671875 579 336 551.671875 336 518 c 0x34
152 518 m 0
 152 484.328125 124.671875 457 91 457 c 0
 57.328125 457 30 484.328125 30 518 c 0
 30 551.671875 57.328125 579 91 579 c 0
 124.671875 579 152 551.671875 152 518 c 0
140 0 m 1xc8
 140 392 l 1
 224 392 l 1
 224 0 l 1
 140 0 l 1xc8
EndSplineSet
EndChar

StartChar: eth
Encoding: 240 240 158
Width: 511
Flags: MW
HStem: -14 70<231 269.5 231 329> 322 70<231 269.5> 504.574 75.5996
VStem: 70 91<140 238 140 255.5> 364 77<213.5 353.033>
LayerCount: 2
Fore
SplineSet
364 588 m 1
 406 532 l 1
 369.1328125 506.642578125 l 1
 424.426757812 447.8203125 441 359.255859375 441 280 c 0
 441 147 406 -14 252 -14 c 0
 133 -14 70 91 70 189 c 0
 70 322 147 392 245 392 c 0
 315 392 350 350 364 322 c 1
 364 384.06640625 348.39453125 436.814453125 313.806640625 466.951171875 c 1
 252 420 l 1
 210 476 l 1
 241.08203125 497.150390625 l 1
 215.178710938 501.865234375 186.858398438 502.3671875 157.287109375 504.57421875 c 1
 195.0859375 580.173828125 l 1
 228.892578125 573.987304688 247.319335938 570.275390625 273 563.5 c 0
 286.8515625 559.845703125 299.596679688 553.198242188 311.3515625 547.708984375 c 1
 364 588 l 1
252 322 m 0
 210 322 161 287 161 189 c 0
 161 91 210 56 252 56 c 0
 287 56 343 91 343 189 c 0
 343 287 287 322 252 322 c 0
EndSplineSet
EndChar

StartChar: ntilde
Encoding: 241 241 159
Width: 469
Flags: MW
HStem: 0 21G<91 175 91 91 329 413 329 329> 329 70<259 294> 372 20G<91 163 163 163> 466 58<293.5 321.5 293.5 325.5> 517 59<175.5 203.5>
VStem: 91 72<0 392 392 392> 91 84<0 252 0 392> 105.5 293<522 529> 329 84<0 273 273 280 0 283.5>
LayerCount: 2
Fore
SplineSet
105.5 522 m 1x09
 105.5 522 150.5 576 192.5 576 c 0x09
 234.5 576 279.5 524 307.5 524 c 0
 335.5 524 360.5 553 367.5 560 c 1
 398.5 529 l 1
 391.5 522 346.5 466 304.5 466 c 0x11
 262.5 466 217.5 517 189.5 517 c 0
 161.5 517 143.5 498 136.5 491 c 1
 105.5 522 l 1x09
294 399 m 0xc480
 371 399 413 350 413 280 c 2
 413 0 l 1
 329 0 l 1
 329 273 l 2
 329 294 315 329 273 329 c 0
 232.85546875 329 196 294 175 252 c 1
 175 0 l 1
 91 0 l 1xc280
 91 392 l 1
 163 392 l 1xa480
 166.061523438 374.790039062 170.60546875 356.544921875 177 346 c 1
 177 346 224 399 294 399 c 0xc480
EndSplineSet
EndChar

StartChar: ograve
Encoding: 242 242 160
Width: 504
Flags: MW
HStem: -14 70<224 280 224 304.5> 336 70<224 280> 466 147<115.5 277.5 115.5 277.5>
VStem: 70 84<154 238 154 259> 350 84<154 238>
LayerCount: 2
Fore
SplineSet
206.5 613 m 1
 115.5 613 l 1
 226.5 466 l 1
 277.5 466 l 1
 206.5 613 l 1
252 406 m 0
 357 406 434 322 434 196 c 0
 434 70 357 -14 252 -14 c 0
 147 -14 70 70 70 196 c 0
 70 322 147 406 252 406 c 0
252 336 m 0
 196 336 154 280 154 196 c 0
 154 112 196 56 252 56 c 0
 308 56 350 112 350 196 c 0
 350 280 308 336 252 336 c 0
EndSplineSet
EndChar

StartChar: oacute
Encoding: 243 243 161
Width: 504
Flags: MW
HStem: -14 70<224 280 224 304.5> 336 70<224 280> 466 147<226.5 388.5 226.5 388.5>
VStem: 70 84<154 238 154 259> 226.5 162<466 613> 350 84<154 238>
LayerCount: 2
Fore
SplineSet
297.5 613 m 1x28
 388.5 613 l 1
 277.5 466 l 1
 226.5 466 l 1
 297.5 613 l 1x28
252 406 m 0xd4
 357 406 434 322 434 196 c 0
 434 70 357 -14 252 -14 c 0
 147 -14 70 70 70 196 c 0
 70 322 147 406 252 406 c 0xd4
252 336 m 0
 196 336 154 280 154 196 c 0
 154 112 196 56 252 56 c 0
 308 56 350 112 350 196 c 0
 350 280 308 336 252 336 c 0
EndSplineSet
EndChar

StartChar: ocircumflex
Encoding: 244 244 162
Width: 504
Flags: MW
HStem: -14 70<224 280 224 304.5> 336 70<224 280> 466 168<96 289 96 289 215 408 215 354>
VStem: 70 84<154 238 154 259> 96 312<466 466> 350 84<154 238>
LayerCount: 2
Fore
SplineSet
289 634 m 1x28
 408 466 l 1
 354 466 l 1
 252 564 l 1
 150 466 l 1
 96 466 l 1
 215 634 l 1
 289 634 l 1x28
252 406 m 0xd4
 357 406 434 322 434 196 c 0
 434 70 357 -14 252 -14 c 0
 147 -14 70 70 70 196 c 0
 70 322 147 406 252 406 c 0xd4
252 336 m 0
 196 336 154 280 154 196 c 0
 154 112 196 56 252 56 c 0
 308 56 350 112 350 196 c 0
 350 280 308 336 252 336 c 0
EndSplineSet
EndChar

StartChar: otilde
Encoding: 245 245 163
Width: 504
Flags: MW
HStem: -14 70<224 280 224 304.5> 336 70<224 280> 466 58<293.5 321.5 293.5 325.5> 517 59<175.5 203.5>
VStem: 70 84<154 238 154 259> 105.5 293<522 529> 350 84<154 238>
LayerCount: 2
Fore
SplineSet
105.5 522 m 1x14
 105.5 522 150.5 576 192.5 576 c 0x14
 234.5 576 279.5 524 307.5 524 c 0
 335.5 524 360.5 553 367.5 560 c 1
 398.5 529 l 1
 391.5 522 346.5 466 304.5 466 c 0x24
 262.5 466 217.5 517 189.5 517 c 0
 161.5 517 143.5 498 136.5 491 c 1
 105.5 522 l 1x14
252 406 m 0xca
 357 406 434 322 434 196 c 0
 434 70 357 -14 252 -14 c 0
 147 -14 70 70 70 196 c 0
 70 322 147 406 252 406 c 0xca
252 336 m 0
 196 336 154 280 154 196 c 0
 154 112 196 56 252 56 c 0
 308 56 350 112 350 196 c 0
 350 280 308 336 252 336 c 0
EndSplineSet
EndChar

StartChar: odieresis
Encoding: 246 246 164
Width: 504
Flags: MW
HStem: -14 70<224 280 224 304.5> 336 70<224 280> 457 122<141.564 175.236 325.564 359.236>
VStem: 70 84<154 238 154 259> 97.4 122 281.4 122 350 84<154 238>
LayerCount: 2
Fore
SplineSet
403.400390625 518 m 0x20
 403.400390625 484.328125 376.072265625 457 342.400390625 457 c 0
 308.728515625 457 281.400390625 484.328125 281.400390625 518 c 0
 281.400390625 551.671875 308.728515625 579 342.400390625 579 c 0
 376.072265625 579 403.400390625 551.671875 403.400390625 518 c 0x20
219.400390625 518 m 0
 219.400390625 484.328125 192.072265625 457 158.400390625 457 c 0
 124.728515625 457 97.400390625 484.328125 97.400390625 518 c 0
 97.400390625 551.671875 124.728515625 579 158.400390625 579 c 0
 192.072265625 579 219.400390625 551.671875 219.400390625 518 c 0
252 406 m 0xd2
 357 406 434 322 434 196 c 0
 434 70 357 -14 252 -14 c 0
 147 -14 70 70 70 196 c 0
 70 322 147 406 252 406 c 0xd2
252 336 m 0
 196 336 154 280 154 196 c 0
 154 112 196 56 252 56 c 0
 308 56 350 112 350 196 c 0
 350 280 308 336 252 336 c 0
EndSplineSet
EndChar

StartChar: divide
Encoding: 247 247 165
Width: 504
Flags: MW
HStem: 93 122<234.164 267.836> 252 84<56 448 56 448> 373 122<234.164 267.836>
VStem: 190 122<137.164 170.836 417.164 450.836>
CounterMasks: 1 e0
LayerCount: 2
Fore
SplineSet
56 252 m 1
 56 336 l 1
 448 336 l 1
 448 252 l 1
 56 252 l 1
312 154 m 0
 312 120.328125 284.671875 93 251 93 c 0
 217.328125 93 190 120.328125 190 154 c 0
 190 187.671875 217.328125 215 251 215 c 0
 284.671875 215 312 187.671875 312 154 c 0
312 434 m 0
 312 400.328125 284.671875 373 251 373 c 0
 217.328125 373 190 400.328125 190 434 c 0
 190 467.671875 217.328125 495 251 495 c 0
 284.671875 495 312 467.671875 312 434 c 0
EndSplineSet
EndChar

StartChar: ugrave
Encoding: 249 249 166
Width: 469
Flags: MW
HStem: -7 70<210 245> 0 20G 371 21G 466 147<115.5 277.5 115.5 277.5>
VStem: 91 84<112 119 119 392> 329 84<140 392 0 392> 341 72<0 392>
LayerCount: 2
Fore
SplineSet
206.5 613 m 1x10
 115.5 613 l 1
 226.5 466 l 1
 277.5 466 l 1
 206.5 613 l 1x10
210 -7 m 0x00
 133 -7 91 42 91 112 c 2
 91 392 l 1
 175 392 l 1
 175 119 l 2
 175 98 189 63 231 63 c 0
 271.14453125 63 308 98 329 140 c 1
 329 392 l 1
 413 392 l 1
 413 0 l 1
 341 0 l 1
 337.938476562 17.2099609375 333.39453125 35.455078125 327 46 c 1
 327 46 280 -7 210 -7 c 0x00
EndSplineSet
EndChar

StartChar: uacute
Encoding: 250 250 167
Width: 469
Flags: MW
HStem: -7 70<210 245> 0 20G 371 21G 466 147<226.5 388.5 226.5 388.5>
VStem: 91 84<112 119 119 392> 226.5 162<466 613> 329 84<140 392 0 392> 341 72<0 392>
LayerCount: 2
Fore
SplineSet
297.5 613 m 1x14
 388.5 613 l 1
 277.5 466 l 1
 226.5 466 l 1
 297.5 613 l 1x14
210 -7 m 0x00
 133 -7 91 42 91 112 c 2
 91 392 l 1
 175 392 l 1
 175 119 l 2
 175 98 189 63 231 63 c 0
 271.14453125 63 308 98 329 140 c 1
 329 392 l 1
 413 392 l 1
 413 0 l 1
 341 0 l 1
 337.938476562 17.2099609375 333.39453125 35.455078125 327 46 c 1
 327 46 280 -7 210 -7 c 0x00
EndSplineSet
EndChar

StartChar: ucircumflex
Encoding: 251 251 168
Width: 469
Flags: MW
HStem: -7 70<210 245> 0 20G 371 21G 466 168<96 289 96 289 215 408 215 354>
VStem: 91 84<112 119 119 392> 96 312<466 466> 329 84<140 392 0 392> 341 72<0 392>
LayerCount: 2
Fore
SplineSet
289 634 m 1x14
 408 466 l 1
 354 466 l 1
 252 564 l 1
 150 466 l 1
 96 466 l 1
 215 634 l 1
 289 634 l 1x14
210 -7 m 0x00
 133 -7 91 42 91 112 c 2
 91 392 l 1
 175 392 l 1
 175 119 l 2
 175 98 189 63 231 63 c 0
 271.14453125 63 308 98 329 140 c 1
 329 392 l 1
 413 392 l 1
 413 0 l 1
 341 0 l 1
 337.938476562 17.2099609375 333.39453125 35.455078125 327 46 c 1
 327 46 280 -7 210 -7 c 0x00
EndSplineSet
EndChar

StartChar: udieresis
Encoding: 252 252 169
Width: 469
Flags: MW
HStem: -7 70<210 245> 0 20G 371 21G 457 122<144.164 177.836 328.164 361.836>
VStem: 91 84<112 119 119 392> 100 122<501.164 534.836> 284 122<501.164 534.836> 329 84<140 392 0 392> 341 72<0 392>
LayerCount: 2
Fore
SplineSet
406 518 m 0x16
 406 484.328125 378.671875 457 345 457 c 0
 311.328125 457 284 484.328125 284 518 c 0
 284 551.671875 311.328125 579 345 579 c 0
 378.671875 579 406 551.671875 406 518 c 0x16
222 518 m 0
 222 484.328125 194.671875 457 161 457 c 0
 127.328125 457 100 484.328125 100 518 c 0
 100 551.671875 127.328125 579 161 579 c 0
 194.671875 579 222 551.671875 222 518 c 0
210 -7 m 0x00
 133 -7 91 42 91 112 c 2
 91 392 l 1
 175 392 l 1
 175 119 l 2
 175 98 189 63 231 63 c 0
 271.14453125 63 308 98 329 140 c 1
 329 392 l 1
 413 392 l 1
 413 0 l 1
 341 0 l 1
 337.938476562 17.2099609375 333.39453125 35.455078125 327 46 c 1
 327 46 280 -7 210 -7 c 0x00
EndSplineSet
EndChar

StartChar: yacute
Encoding: 253 253 170
Width: 490
Flags: MW
HStem: -168 75.64 372 20G<56 154 154 154 315 413 413 413> 466 147<209 371 209 371>
VStem: 209 162<466 613>
LayerCount: 2
Fore
SplineSet
280 613 m 1
 371 613 l 1
 260 466 l 1
 209 466 l 1
 280 613 l 1
84 -84 m 1
 96.1123046875 -89.8037109375 106.950195312 -92.3603515625 116.66015625 -92.3603515625 c 0
 145.4296875 -92.3603515625 164.290039062 -69.916015625 177 -43 c 0
 183 -29 187 -14 191 0 c 1
 56 392 l 1
 154 392 l 1
 238 156 l 1
 315 392 l 1
 413 392 l 1
 252 -91 l 1
 231 -140 182 -168 140 -168 c 0
 112 -168 94 -165 70 -161 c 1
 84 -84 l 1
EndSplineSet
EndChar

StartChar: thorn
Encoding: 254 254 171
Width: 497
Flags: MW
HStem: -168 21G<84 168 84 84> -14 70<248 287> 329 77<246 290.5>
VStem: 84 84<-168 35 -168 112 112 259 350 392 392 546> 357 84<154 238>
LayerCount: 2
Fore
SplineSet
84 546 m 1
 168 546 l 1
 168 350 l 1
 168 350 196 406 266 406 c 0
 336 406 441 364 441 196 c 0
 441 21 308 -14 266 -14 c 0
 210 -14 168 28 168 35 c 2
 168 -168 l 1
 84 -168 l 1
 84 322 l 1
 84 392 l 1
 84 546 l 1
266 329 m 0
 226 329 189 301 168 259 c 1
 168 112 l 1
 189 77 230 56 266 56 c 0
 315 56 357 112 357 196 c 0
 357 280 315 329 266 329 c 0
EndSplineSet
EndChar

StartChar: ydieresis
Encoding: 255 255 172
Width: 490
Flags: MW
HStem: -168 75.64 372 20G<56 154 154 154 315 413 413 413> 457 122<128.164 161.836 312.164 345.836>
VStem: 84 122<501.164 534.836> 268 122<501.164 534.836>
LayerCount: 2
Fore
SplineSet
390 518 m 0
 390 484.328125 362.671875 457 329 457 c 0
 295.328125 457 268 484.328125 268 518 c 0
 268 551.671875 295.328125 579 329 579 c 0
 362.671875 579 390 551.671875 390 518 c 0
206 518 m 0
 206 484.328125 178.671875 457 145 457 c 0
 111.328125 457 84 484.328125 84 518 c 0
 84 551.671875 111.328125 579 145 579 c 0
 178.671875 579 206 551.671875 206 518 c 0
84 -84 m 1
 96.1123046875 -89.8037109375 106.950195312 -92.3603515625 116.66015625 -92.3603515625 c 0
 145.4296875 -92.3603515625 164.290039062 -69.916015625 177 -43 c 0
 183 -29 187 -14 191 0 c 1
 56 392 l 1
 154 392 l 1
 238 156 l 1
 315 392 l 1
 413 392 l 1
 252 -91 l 1
 231 -140 182 -168 140 -168 c 0
 112 -168 94 -165 70 -161 c 1
 84 -84 l 1
EndSplineSet
EndChar

StartChar: Amacron
Encoding: 256 256 173
Width: 616
Flags: MW
HStem: 0 21G<70 175 70 70 441 546 441 441> 112 84<238 378 238 406 210 378> 540 20G<252 364 364 364> 634 60<175 441 175 441>
VStem: 175 266<0 0 634 694>
LayerCount: 2
Fore
SplineSet
175 634 m 1
 175 694 l 1
 441 694 l 1
 441 634 l 1
 175 634 l 1
238 196 m 1
 378 196 l 1
 308 434 l 1
 238 196 l 1
252 560 m 1
 364 560 l 1
 546 0 l 1
 441 0 l 1
 406 112 l 1
 210 112 l 1
 175 0 l 1
 70 0 l 1
 252 560 l 1
EndSplineSet
EndChar

StartChar: amacron
Encoding: 257 257 174
Width: 476
Flags: MW
HStem: -14 70<210 224> 189 63<308 308> 336 70<203 248.5> 466 60<91 357 91 357>
VStem: 70 91<112 112.116 112.116 150.5 94.5 178.238> 91 266<466 526 466 526> 308 84<119 189 189 189 252 266>
LayerCount: 2
Fore
SplineSet
91 466 m 1x14
 91 526 l 1
 357 526 l 1
 357 466 l 1
 91 466 l 1x14
238 406 m 0xea
 329 406 392 336 392 266 c 2
 392 91 l 2
 392 56 413 56 427 56 c 1
 392 -14 l 1
 343 -14 315 -7 308 49 c 1
 294 21 252 -14 196 -14 c 0
 140 -14 70.0673828125 28 70 112 c 2
 70 112.116210938 l 2
 70 244.359375 252.016601562 238.00390625 308 252 c 1
 308 273 l 2
 308 301 273 336 224 336 c 0
 182 336 140 308 119 289 c 1
 77 357 l 1
 112 378 168 406 238 406 c 0xea
308 189 m 1
 273 175 161 182 161 119 c 0
 161 70 203 56 217 56 c 0
 259 56 308 112 308 119 c 2
 308 189 l 1
EndSplineSet
EndChar

StartChar: Abreve
Encoding: 258 258 175
Width: 616
Flags: MW
HStem: 0 21G<70 175 70 70 441 546 441 441> 112 84<238 378 238 406 210 378> 540 20G<252 364 364 364> 634 63<283.5 339.5 283.5 360.5>
VStem: 157.5 70<753 774 753 774> 395.5 63<753 774>
LayerCount: 2
Fore
SplineSet
227.5 774 m 1
 227.5 732 255.5 697 311.5 697 c 0
 367.5 697 395.5 732 395.5 774 c 1
 458.5 774 l 1
 458.5 718 409.5 634 311.5 634 c 0
 213.5 634 157.5 718 157.5 774 c 1
 227.5 774 l 1
238 196 m 1
 378 196 l 1
 308 434 l 1
 238 196 l 1
252 560 m 1
 364 560 l 1
 546 0 l 1
 441 0 l 1
 406 112 l 1
 210 112 l 1
 175 0 l 1
 70 0 l 1
 252 560 l 1
EndSplineSet
EndChar

StartChar: abreve
Encoding: 259 259 176
Width: 476
Flags: MW
HStem: -14 70<210 224> 189 63<308 308> 336 70<203 248.5> 466 63<199.5 255.5 199.5 276.5>
VStem: 70 91<112 112.116 112.116 150.5 94.5 178.238> 73.5 70<585 606 585 606> 308 84<119 189 189 189 252 266> 311.5 63<585 606>
LayerCount: 2
Fore
SplineSet
143.5 606 m 1x15
 143.5 564 171.5 529 227.5 529 c 0
 283.5 529 311.5 564 311.5 606 c 1
 374.5 606 l 1
 374.5 550 325.5 466 227.5 466 c 0
 129.5 466 73.5 550 73.5 606 c 1
 143.5 606 l 1x15
238 406 m 0xea
 329 406 392 336 392 266 c 2
 392 91 l 2
 392 56 413 56 427 56 c 1
 392 -14 l 1
 343 -14 315 -7 308 49 c 1
 294 21 252 -14 196 -14 c 0
 140 -14 70.0673828125 28 70 112 c 2
 70 112.116210938 l 2
 70 244.359375 252.016601562 238.00390625 308 252 c 1
 308 273 l 2
 308 301 273 336 224 336 c 0
 182 336 140 308 119 289 c 1
 77 357 l 1
 112 378 168 406 238 406 c 0xea
308 189 m 1
 273 175 161 182 161 119 c 0
 161 70 203 56 217 56 c 0
 259 56 308 112 308 119 c 2
 308 189 l 1
EndSplineSet
EndChar

StartChar: Aogonek
Encoding: 260 260 177
Width: 616
Flags: MW
HStem: -217.017 53 -20.0167 20G 0 21G<70 175 70 70 441 546 441 441> 112 84<238 378 238 406 210 378> 540 20G<252 364 364 364>
VStem: 406 63<-140.017 -94.5166 -140.017 -87.5166>
LayerCount: 2
Fore
SplineSet
546 -0.0166015625 m 1
 560 -42.0166015625 l 1
 560 -42.0166015625 469 -70.0166015625 469 -119.016601562 c 0
 469 -161.016601562 504 -164.016601562 525 -164.016601562 c 0
 546 -164.016601562 588 -140.016601562 588 -140.016601562 c 1
 602 -175.016601562 l 1
 602 -175.016601562 567 -217.016601562 504 -217.016601562 c 0
 441 -217.016601562 406 -175.016601562 406 -126.016601562 c 0
 406 -49.0166015625 511 -14.0166015625 546 -0.0166015625 c 1
238 196 m 1
 378 196 l 1
 308 434 l 1
 238 196 l 1
252 560 m 1
 364 560 l 1
 546 0 l 1
 441 0 l 1
 406 112 l 1
 210 112 l 1
 175 0 l 1
 70 0 l 1
 252 560 l 1
EndSplineSet
EndChar

StartChar: aogonek
Encoding: 261 261 178
Width: 476
Flags: MW
HStem: -223.767 53 -26.7667 20G -14 70<210 224> 189 63<308 308> 336 70<203 248.5>
VStem: 70 91<112 112.116 112.116 150.5 94.5 178.238> 253 63<-146.767 -101.267 -146.767 -94.2666> 308 84<119 189 189 189 252 266>
LayerCount: 2
Fore
SplineSet
393 -6.7666015625 m 1x02
 407 -48.7666015625 l 1
 407 -48.7666015625 316 -76.7666015625 316 -125.766601562 c 0
 316 -167.766601562 351 -170.766601562 372 -170.766601562 c 0
 393 -170.766601562 435 -146.766601562 435 -146.766601562 c 1
 449 -181.766601562 l 1
 449 -181.766601562 414 -223.766601562 351 -223.766601562 c 0
 288 -223.766601562 253 -181.766601562 253 -132.766601562 c 0
 253 -55.7666015625 358 -20.7666015625 393 -6.7666015625 c 1x02
238 406 m 0x3d
 329 406 392 336 392 266 c 2
 392 91 l 2
 392 56 413 56 427 56 c 1
 392 -14 l 1
 343 -14 315 -7 308 49 c 1
 294 21 252 -14 196 -14 c 0
 140 -14 70.0673828125 28 70 112 c 2
 70 112.116210938 l 2
 70 244.359375 252.016601562 238.00390625 308 252 c 1
 308 273 l 2
 308 301 273 336 224 336 c 0
 182 336 140 308 119 289 c 1
 77 357 l 1
 112 378 168 406 238 406 c 0x3d
308 189 m 1
 273 175 161 182 161 119 c 0
 161 70 203 56 217 56 c 0
 259 56 308 112 308 119 c 2
 308 189 l 1
EndSplineSet
EndChar

StartChar: Cacute
Encoding: 262 262 179
Width: 560
Flags: MW
HStem: -14 91<255.5 319.958 255.5 347.195> 483 91<255.5 319.958> 634 147<268.5 430.5 268.5 430.5>
VStem: 66 95<217 343 217 361.186> 268.5 162<634 781>
LayerCount: 2
Fore
SplineSet
339.5 781 m 1
 430.5 781 l 1
 319.5 634 l 1
 268.5 634 l 1
 339.5 781 l 1
294 574 m 0
 400.390625 574 462 511 497 420 c 1
 403 385 l 1
 382 455 345.916992188 483 294 483 c 0
 217 483 161 406 161 280 c 0
 161 154 217 77 294 77 c 0
 345.916992188 77 382 105 403 175 c 1
 497 140 l 1
 462 49 400.390625 -14 294 -14 c 0
 140 -14 66 117.627929688 66 280 c 0
 66 442.372070312 140 574 294 574 c 0
EndSplineSet
EndChar

StartChar: cacute
Encoding: 263 263 180
Width: 476
Flags: MW
HStem: -14 70<224 273 224 291> 336 70<224 273> 466 147<226.5 388.5 226.5 388.5>
VStem: 63 91<154 238 154 259> 226.5 162<466 613>
LayerCount: 2
Fore
SplineSet
297.5 613 m 1
 388.5 613 l 1
 277.5 466 l 1
 226.5 466 l 1
 297.5 613 l 1
252 406 m 0
 330 406 393 362 420 287 c 1
 341 257 l 1
 326 308 294 336 252 336 c 0
 196 336 154 280 154 196 c 0
 154 112 196 56 252 56 c 0
 294 56 326 84 341 135 c 1
 420 105 l 1
 393 30 330 -14 252 -14 c 0
 147 -14 63 70 63 196 c 0
 63 322 147 406 252 406 c 0
EndSplineSet
EndChar

StartChar: Ccircumflex
Encoding: 264 264 181
Width: 560
Flags: MW
HStem: -14 91<255.5 319.958 255.5 347.195> 483 91<255.5 319.958> 634 168<138 331 138 331 257 450 257 396>
VStem: 66 95<217 343 217 361.186> 138 312<634 634>
LayerCount: 2
Fore
SplineSet
331 802 m 1x28
 450 634 l 1
 396 634 l 1
 294 732 l 1
 192 634 l 1
 138 634 l 1
 257 802 l 1
 331 802 l 1x28
294 574 m 0xd0
 400.390625 574 462 511 497 420 c 1
 403 385 l 1
 382 455 345.916992188 483 294 483 c 0
 217 483 161 406 161 280 c 0
 161 154 217 77 294 77 c 0
 345.916992188 77 382 105 403 175 c 1
 497 140 l 1
 462 49 400.390625 -14 294 -14 c 0
 140 -14 66 117.627929688 66 280 c 0
 66 442.372070312 140 574 294 574 c 0xd0
EndSplineSet
EndChar

StartChar: ccircumflex
Encoding: 265 265 182
Width: 476
Flags: MW
HStem: -14 70<224 273 224 291> 336 70<224 273> 466 168<96 289 96 289 215 408 215 354>
VStem: 63 91<154 238 154 259> 96 312<466 466>
LayerCount: 2
Fore
SplineSet
289 634 m 1x28
 408 466 l 1
 354 466 l 1
 252 564 l 1
 150 466 l 1
 96 466 l 1
 215 634 l 1
 289 634 l 1x28
252 406 m 0xd0
 330 406 393 362 420 287 c 1
 341 257 l 1
 326 308 294 336 252 336 c 0
 196 336 154 280 154 196 c 0
 154 112 196 56 252 56 c 0
 294 56 326 84 341 135 c 1
 420 105 l 1
 393 30 330 -14 252 -14 c 0
 147 -14 63 70 63 196 c 0
 63 322 147 406 252 406 c 0xd0
EndSplineSet
EndChar

StartChar: Cdotaccent
Encoding: 266 266 183
Width: 560
Flags: MW
HStem: -14 91<255.5 319.958 255.5 347.195> 483 91<255.5 319.958> 634 122<277.164 310.836>
VStem: 66 95<217 343 217 361.186> 233 122<678.164 711.836>
LayerCount: 2
Fore
SplineSet
355 695 m 0
 355 661.328125 327.671875 634 294 634 c 0
 260.328125 634 233 661.328125 233 695 c 0
 233 728.671875 260.328125 756 294 756 c 0
 327.671875 756 355 728.671875 355 695 c 0
294 574 m 0
 400.390625 574 462 511 497 420 c 1
 403 385 l 1
 382 455 345.916992188 483 294 483 c 0
 217 483 161 406 161 280 c 0
 161 154 217 77 294 77 c 0
 345.916992188 77 382 105 403 175 c 1
 497 140 l 1
 462 49 400.390625 -14 294 -14 c 0
 140 -14 66 117.627929688 66 280 c 0
 66 442.372070312 140 574 294 574 c 0
EndSplineSet
EndChar

StartChar: cdotaccent
Encoding: 267 267 184
Width: 476
Flags: MW
HStem: -14 70<224 273 224 291> 336 70<224 273> 466 122<235.164 268.836>
VStem: 63 91<154 238 154 259> 191 122<510.164 543.836>
LayerCount: 2
Fore
SplineSet
313 527 m 0
 313 493.328125 285.671875 466 252 466 c 0
 218.328125 466 191 493.328125 191 527 c 0
 191 560.671875 218.328125 588 252 588 c 0
 285.671875 588 313 560.671875 313 527 c 0
252 406 m 0
 330 406 393 362 420 287 c 1
 341 257 l 1
 326 308 294 336 252 336 c 0
 196 336 154 280 154 196 c 0
 154 112 196 56 252 56 c 0
 294 56 326 84 341 135 c 1
 420 105 l 1
 393 30 330 -14 252 -14 c 0
 147 -14 63 70 63 196 c 0
 63 322 147 406 252 406 c 0
EndSplineSet
EndChar

StartChar: Ccaron
Encoding: 268 268 185
Width: 560
Flags: MW
HStem: -14 91<255.5 319.958 255.5 347.195> 483 91<255.5 319.958> 634 168<138 257 138 331>
VStem: 66 95<217 343 217 361.186> 138 312<802 802>
LayerCount: 2
Fore
SplineSet
257 634 m 1x28
 138 802 l 1
 192 802 l 1
 294 704 l 1
 396 802 l 1
 450 802 l 1
 331 634 l 1
 257 634 l 1x28
294 574 m 0xd0
 400.390625 574 462 511 497 420 c 1
 403 385 l 1
 382 455 345.916992188 483 294 483 c 0
 217 483 161 406 161 280 c 0
 161 154 217 77 294 77 c 0
 345.916992188 77 382 105 403 175 c 1
 497 140 l 1
 462 49 400.390625 -14 294 -14 c 0
 140 -14 66 117.627929688 66 280 c 0
 66 442.372070312 140 574 294 574 c 0xd0
EndSplineSet
EndChar

StartChar: ccaron
Encoding: 269 269 186
Width: 476
Flags: MW
HStem: -14 70<224 273 224 291> 336 70<224 273> 466 168<96 215 96 289>
VStem: 63 91<154 238 154 259> 96 312<634 634>
LayerCount: 2
Fore
SplineSet
215 466 m 1x28
 96 634 l 1
 150 634 l 1
 252 536 l 1
 354 634 l 1
 408 634 l 1
 289 466 l 1
 215 466 l 1x28
252 406 m 0xd0
 330 406 393 362 420 287 c 1
 341 257 l 1
 326 308 294 336 252 336 c 0
 196 336 154 280 154 196 c 0
 154 112 196 56 252 56 c 0
 294 56 326 84 341 135 c 1
 420 105 l 1
 393 30 330 -14 252 -14 c 0
 147 -14 63 70 63 196 c 0
 63 322 147 406 252 406 c 0xd0
EndSplineSet
EndChar

StartChar: Dcaron
Encoding: 270 270 187
Width: 588
Flags: MW
HStem: 0 84<189 273 273 280> 476 84<189 273 189 189> 634 168<150.5 269.5 150.5 343.5>
VStem: 91 98<84 476 84 560 84 560> 150.5 312<802 802> 420 102<213.5 346.5>
LayerCount: 2
Fore
SplineSet
269.5 634 m 1x28
 150.5 802 l 1
 204.5 802 l 1
 306.5 704 l 1
 408.5 802 l 1
 462.5 802 l 1
 343.5 634 l 1
 269.5 634 l 1x28
280 560 m 2xd4
 434 560 522 442 522 280 c 0
 522 118 434 0 280 0 c 2
 91 0 l 1
 91 560 l 1
 280 560 l 2xd4
273 476 m 2
 189 476 l 1
 189 84 l 1
 273 84 l 2
 350 84 420 147 420 280 c 0
 420 413 350 476 273 476 c 2
EndSplineSet
EndChar

StartChar: dcaron
Encoding: 271 271 188
Width: 497
Flags: MW
HStem: -14 77<234.5 279 234.5 294> 0 20G 336 70<238 277> 448 112<571.5 590.5> 539 21G
VStem: 84 84<154 238 154 283.5> 357 84<42 42 133 280 280 280 357 560 0 560> 371 70<0 560> 608 38<445 452 452 452>
LayerCount: 2
Fore
SplineSet
587 560 m 0x1080
 601 560 614 554 624 546 c 0
 630 541 646 527 646 478 c 0
 646 408 571 366 571 366 c 1
 564 383 l 1
 564 383 608 410 608 445 c 2
 608 452 l 1
 602 449 594 448 587 448 c 0
 556 448 531 473 531 504 c 0
 531 535 556 560 587 560 c 0x1080
259 -14 m 0x00
 189 -14 84 28 84 196 c 0
 84 371 217 406 259 406 c 0
 315 406 357 364 357 357 c 2
 357 560 l 1
 441 560 l 1
 441 0 l 1
 371 0 l 1
 368 17 363 31 357 42 c 1
 357 42 329 -14 259 -14 c 0x00
259 63 m 0
 299 63 336 91 357 133 c 1
 357 280 l 1
 336 315 295 336 259 336 c 0
 210 336 168 280 168 196 c 0
 168 112 210 63 259 63 c 0
EndSplineSet
EndChar

StartChar: Dcroat
Encoding: 272 272 189
Width: 651
Flags: MW
HStem: 0 84<252 336 336 343> 238 84<70 154 70 154 252 336> 476 84<252 252 252 336>
VStem: 154 98<84 238 84 238 84 238 322 476> 483 102<213.5 346.5>
CounterMasks: 1 e0
LayerCount: 2
Fore
SplineSet
154 560 m 1
 343 560 l 2
 497 560 585 442 585 280 c 0
 585 118 497 0 343 0 c 2
 154 0 l 1
 154 238 l 1
 70 238 l 1
 70 322 l 1
 154 322 l 1
 154 560 l 1
252 476 m 1
 252 322 l 1
 336 322 l 1
 336 238 l 1
 252 238 l 1
 252 84 l 1
 336 84 l 2
 413 84 483 147 483 280 c 0
 483 413 413 476 336 476 c 2
 252 476 l 1
EndSplineSet
EndChar

StartChar: dcroat
Encoding: 273 273 190
Width: 553
Flags: MW
HStem: -14 77<234.5 279.072 234.5 294> 0 21G<371 441 371 371> 336 70<238 276.809> 434 77<301 357 301 357 441 497> 540 20G<357 441 441 441>
VStem: 84 84<154 238 154 283.5> 357 84<42 42 133 280 280 280 357 434 0 434 511 560> 371 70<0 434>
LayerCount: 2
Fore
SplineSet
357 560 m 1xbe
 441 560 l 1
 441 511 l 1
 497 511 l 1
 497 434 l 1
 441 434 l 1xbe
 441 0 l 1
 371 0 l 1x7d
 367.938476562 17.2099609375 363.39453125 31.455078125 357 42 c 1
 357 42 329 -14 259 -14 c 0
 189 -14 84 28 84 196 c 0
 84 371 217 406 259 406 c 0
 315 406 357 364 357 357 c 2
 357 434 l 1
 301 434 l 1
 301 511 l 1
 357 511 l 1
 357 560 l 1xbe
259 336 m 0
 210 336 168 280 168 196 c 0
 168 112 210 63 259 63 c 0
 299.14453125 63 336 91 357 133 c 1
 357 280 l 1
 336 315 294.6171875 336 259 336 c 0
EndSplineSet
EndChar

StartChar: Emacron
Encoding: 274 274 191
Width: 539
Flags: MW
HStem: 0 84<189 448 189 448> 252 84<189 392 189 392> 469 91<189 441 189 189> 634 60<133 399 133 399>
VStem: 91 98<84 252 336 469> 133 266<634 694 634 694>
LayerCount: 2
Fore
SplineSet
133 634 m 1x14
 133 694 l 1
 399 694 l 1
 399 634 l 1
 133 634 l 1x14
91 0 m 1xe8
 91 560 l 1
 441 560 l 1
 441 469 l 1
 189 469 l 1
 189 336 l 1
 392 336 l 1
 392 252 l 1
 189 252 l 1
 189 84 l 1
 448 84 l 1
 448 0 l 1
 91 0 l 1xe8
EndSplineSet
EndChar

StartChar: emacron
Encoding: 275 275 192
Width: 504
Flags: MW
HStem: -14 77<248.5 283.5 248.5 290.5> 168 70<161 336 336 338.5 161 413 161 336> 336 70<229.5 272.5> 466 60<119 385 119 385>
VStem: 68 93<133 168 126 226.5> 119 266<466 526 466 526> 343 91<248.5 262.5 199.5 272.5>
LayerCount: 2
Fore
SplineSet
119 466 m 1x14
 119 526 l 1
 385 526 l 1
 385 466 l 1
 119 466 l 1x14
252 336 m 0xea
 207 336 161 308 161 238 c 1
 336 238 l 2
 341 238 343 245 343 252 c 0
 343 293 293 336 252 336 c 0xea
413 168 m 2
 161 168 l 1
 161 84 231 63 266 63 c 0
 301 63 322 81 350 116 c 1
 418 77 l 1
 369 14 315 -14 266 -14 c 0
 161 -14 68 70 68 196 c 0
 68 257 79 301 108 336 c 0
 142 378 199 406 252 406 c 0
 350 406 434 315 434 210 c 0
 434 189 425 168 413 168 c 2
EndSplineSet
EndChar

StartChar: Ebreve
Encoding: 276 276 193
Width: 539
Flags: MW
HStem: 0 84<189 448 189 448> 252 84<189 392 189 392> 469 91<189 441 189 189> 634 63<241.5 297.5 241.5 318.5>
VStem: 91 98<84 252 336 469> 115.5 70<753 774 753 774> 353.5 63<753 774>
LayerCount: 2
Fore
SplineSet
185.5 774 m 1x16
 185.5 732 213.5 697 269.5 697 c 0
 325.5 697 353.5 732 353.5 774 c 1
 416.5 774 l 1
 416.5 718 367.5 634 269.5 634 c 0
 171.5 634 115.5 718 115.5 774 c 1
 185.5 774 l 1x16
91 0 m 1xe8
 91 560 l 1
 441 560 l 1
 441 469 l 1
 189 469 l 1
 189 336 l 1
 392 336 l 1
 392 252 l 1
 189 252 l 1
 189 84 l 1
 448 84 l 1
 448 0 l 1
 91 0 l 1xe8
EndSplineSet
EndChar

StartChar: ebreve
Encoding: 277 277 194
Width: 504
Flags: MW
HStem: -14 77<248.5 283.5 248.5 290.5> 168 70<161 336 336 338.5 161 413 161 336> 336 70<229.5 272.5> 466 63<227.5 283.5 227.5 304.5>
VStem: 68 93<133 168 126 226.5> 101.5 70<585 606 585 606> 339.5 63<585 606> 343 91<248.5 262.5 199.5 272.5>
LayerCount: 2
Fore
SplineSet
171.5 606 m 1x16
 171.5 564 199.5 529 255.5 529 c 0
 311.5 529 339.5 564 339.5 606 c 1
 402.5 606 l 1
 402.5 550 353.5 466 255.5 466 c 0
 157.5 466 101.5 550 101.5 606 c 1
 171.5 606 l 1x16
252 336 m 0xe9
 207 336 161 308 161 238 c 1
 336 238 l 2
 341 238 343 245 343 252 c 0
 343 293 293 336 252 336 c 0xe9
413 168 m 2
 161 168 l 1
 161 84 231 63 266 63 c 0
 301 63 322 81 350 116 c 1
 418 77 l 1
 369 14 315 -14 266 -14 c 0
 161 -14 68 70 68 196 c 0
 68 257 79 301 108 336 c 0
 142 378 199 406 252 406 c 0
 350 406 434 315 434 210 c 0
 434 189 425 168 413 168 c 2
EndSplineSet
EndChar

StartChar: Edotaccent
Encoding: 278 278 195
Width: 539
Flags: MW
HStem: 0 84<189 448 189 448> 252 84<189 392 189 392> 469 91<189 441 189 189> 625 122<264.164 297.836>
VStem: 91 98<84 252 336 469> 220 122<669.164 702.836>
LayerCount: 2
Fore
SplineSet
342 686 m 0
 342 652.328125 314.671875 625 281 625 c 0
 247.328125 625 220 652.328125 220 686 c 0
 220 719.671875 247.328125 747 281 747 c 0
 314.671875 747 342 719.671875 342 686 c 0
91 0 m 1
 91 560 l 1
 441 560 l 1
 441 469 l 1
 189 469 l 1
 189 336 l 1
 392 336 l 1
 392 252 l 1
 189 252 l 1
 189 84 l 1
 448 84 l 1
 448 0 l 1
 91 0 l 1
EndSplineSet
EndChar

StartChar: edotaccent
Encoding: 279 279 196
Width: 504
Flags: MW
HStem: -14 77<248.5 283.5 248.5 290.5> 168 70<161 336 336 338.5 161 413 161 336> 336 70<229.5 272.5> 460 122<235.164 268.836>
VStem: 68 93<133 168 126 226.5> 191 122<504.164 537.836> 343 91<248.5 262.5 199.5 272.5>
LayerCount: 2
Fore
SplineSet
313 521 m 0
 313 487.328125 285.671875 460 252 460 c 0
 218.328125 460 191 487.328125 191 521 c 0
 191 554.671875 218.328125 582 252 582 c 0
 285.671875 582 313 554.671875 313 521 c 0
252 336 m 0
 207 336 161 308 161 238 c 1
 336 238 l 2
 341 238 343 245 343 252 c 0
 343 293 293 336 252 336 c 0
413 168 m 2
 161 168 l 1
 161 84 231 63 266 63 c 0
 301 63 322 81 350 116 c 1
 418 77 l 1
 369 14 315 -14 266 -14 c 0
 161 -14 68 70 68 196 c 0
 68 257 79 301 108 336 c 0
 142 378 199 406 252 406 c 0
 350 406 434 315 434 210 c 0
 434 189 425 168 413 168 c 2
EndSplineSet
EndChar

StartChar: Eogonek
Encoding: 280 280 197
Width: 539
Flags: MW
HStem: -216.767 53 -19.7667 20G 0 84<189 448 189 448> 252 84<189 392 189 392> 469 91<189 441 189 189>
VStem: 91 98<84 252 336 469> 162.5 63<-139.767 -94.2666 -139.767 -87.2666>
LayerCount: 2
Fore
SplineSet
302.5 0.2333984375 m 1x02
 316.5 -41.7666015625 l 1
 316.5 -41.7666015625 225.5 -69.7666015625 225.5 -118.766601562 c 0
 225.5 -160.766601562 260.5 -163.766601562 281.5 -163.766601562 c 0
 302.5 -163.766601562 344.5 -139.766601562 344.5 -139.766601562 c 1
 358.5 -174.766601562 l 1
 358.5 -174.766601562 323.5 -216.766601562 260.5 -216.766601562 c 0
 197.5 -216.766601562 162.5 -174.766601562 162.5 -125.766601562 c 0
 162.5 -48.7666015625 267.5 -13.7666015625 302.5 0.2333984375 c 1x02
91 0 m 1x3c
 91 560 l 1
 441 560 l 1
 441 469 l 1
 189 469 l 1
 189 336 l 1
 392 336 l 1
 392 252 l 1
 189 252 l 1
 189 84 l 1
 448 84 l 1
 448 0 l 1
 91 0 l 1x3c
EndSplineSet
EndChar

StartChar: eogonek
Encoding: 281 281 198
Width: 504
Flags: MW
HStem: -230.767 53 -33.7667 20G -14 77<248.5 283.5 248.5 290.5> 168 70<161 336 336 338.5 161 413 161 336> 336 70<229.5 272.5>
VStem: 68 93<133 168 126 226.5> 128 63<-153.767 -108.267 -153.767 -101.267> 343 91<248.5 262.5 199.5 272.5>
LayerCount: 2
Fore
SplineSet
268 -13.7666015625 m 1x42
 282 -55.7666015625 l 1
 282 -55.7666015625 191 -83.7666015625 191 -132.766601562 c 0
 191 -174.766601562 226 -177.766601562 247 -177.766601562 c 0
 268 -177.766601562 310 -153.766601562 310 -153.766601562 c 1
 324 -188.766601562 l 1
 324 -188.766601562 289 -230.766601562 226 -230.766601562 c 0
 163 -230.766601562 128 -188.766601562 128 -139.766601562 c 0
 128 -62.7666015625 233 -27.7666015625 268 -13.7666015625 c 1x42
252 336 m 0x3d
 207 336 161 308 161 238 c 1
 336 238 l 2
 341 238 343 245 343 252 c 0
 343 293 293 336 252 336 c 0x3d
413 168 m 2
 161 168 l 1
 161 84 231 63 266 63 c 0
 301 63 322 81 350 116 c 1
 418 77 l 1
 369 14 315 -14 266 -14 c 0
 161 -14 68 70 68 196 c 0
 68 257 79 301 108 336 c 0
 142 378 199 406 252 406 c 0
 350 406 434 315 434 210 c 0
 434 189 425 168 413 168 c 2
EndSplineSet
EndChar

StartChar: Ecaron
Encoding: 282 282 199
Width: 539
Flags: MW
HStem: 0 84<189 448 189 448> 252 84<189 392 189 392> 469 91<189 441 189 189> 634 168<110 229 110 303>
VStem: 91 98<84 252 336 469> 110 312<802 802>
LayerCount: 2
Fore
SplineSet
229 634 m 1x14
 110 802 l 1
 164 802 l 1
 266 704 l 1
 368 802 l 1
 422 802 l 1
 303 634 l 1
 229 634 l 1x14
91 0 m 1xe8
 91 560 l 1
 441 560 l 1
 441 469 l 1
 189 469 l 1
 189 336 l 1
 392 336 l 1
 392 252 l 1
 189 252 l 1
 189 84 l 1
 448 84 l 1
 448 0 l 1
 91 0 l 1xe8
EndSplineSet
EndChar

StartChar: ecaron
Encoding: 283 283 200
Width: 504
Flags: MW
HStem: -14 77<248.5 283.5 248.5 290.5> 168 70<161 336 336 338.5 161 413 161 336> 336 70<229.5 272.5> 466 168<96 215 96 289>
VStem: 68 93<133 168 126 226.5> 96 312<634 634> 343 91<248.5 262.5 199.5 272.5>
LayerCount: 2
Fore
SplineSet
215 466 m 1x14
 96 634 l 1
 150 634 l 1
 252 536 l 1
 354 634 l 1
 408 634 l 1
 289 466 l 1
 215 466 l 1x14
252 336 m 0xea
 207 336 161 308 161 238 c 1
 336 238 l 2
 341 238 343 245 343 252 c 0
 343 293 293 336 252 336 c 0xea
413 168 m 2
 161 168 l 1
 161 84 231 63 266 63 c 0
 301 63 322 81 350 116 c 1
 418 77 l 1
 369 14 315 -14 266 -14 c 0
 161 -14 68 70 68 196 c 0
 68 257 79 301 108 336 c 0
 142 378 199 406 252 406 c 0
 350 406 434 315 434 210 c 0
 434 189 425 168 413 168 c 2
EndSplineSet
EndChar

StartChar: Gcircumflex
Encoding: 284 284 201
Width: 588
Flags: MW
HStem: -14 91<269.5 325.5 269.5 335> 0 21G<441 525 441 441> 196 84<322 420 322 525> 483 91<269.5 334> 634 168<152 345 152 345 271 464 271 410>
VStem: 71 104<217 343 217 361> 152 312<634 634> 420 105<49 49 171.5 196>
LayerCount: 2
Fore
SplineSet
345 802 m 1x0a
 464 634 l 1
 410 634 l 1
 308 732 l 1
 206 634 l 1
 152 634 l 1
 271 802 l 1
 345 802 l 1x0a
308 574 m 0xb5
 414 574 476 511 511 420 c 1
 417 385 l 1
 396 455 360 483 308 483 c 0
 231 483 175 406 175 280 c 0
 175 154 231 77 308 77 c 0xb5
 343 77 364 84 385 105 c 0
 413 133 420 147 420 196 c 1
 322 196 l 1
 322 280 l 1
 525 280 l 1
 525 0 l 1
 441 0 l 1x75
 420 49 l 1
 396 15 362 -14 308 -14 c 0
 154 -14 71 118 71 280 c 0
 71 442 154 574 308 574 c 0xb5
EndSplineSet
EndChar

StartChar: gcircumflex
Encoding: 285 285 202
Width: 483
Flags: MW
HStem: -179 71<210 266 210 290.5> -14 70<220.5 273 220.5 276.5> 329 77<220.5 265.072> 372 20G<357 427 427 427> 466 168<89 282 89 282 208 401 208 347>
VStem: 56 84<154 238 154 280> 89 312<466 466> 343 84<-21 42 38.5 42 133 259 259 259 350 350> 357 70<392 392>
LayerCount: 2
Fore
SplineSet
282 634 m 1x0a
 401 466 l 1
 347 466 l 1
 245 564 l 1
 143 466 l 1
 89 466 l 1
 208 634 l 1
 282 634 l 1x0a
245 406 m 0xe5
 315 406 343 350 343 350 c 1xe5
 349.39453125 360.544921875 353.938476562 374.790039062 357 392 c 1
 427 392 l 1xd480
 427 -21 l 2
 427 -126 336 -179 245 -179 c 0
 151.245117188 -179 77 -147 56 -126 c 1
 91 -63 l 1
 112 -77 175 -108 245 -108 c 0
 287 -108 343 -77 343 -21 c 2
 343 42 l 2
 343 35 308 -14 245 -14 c 0
 182 -14 56 21 56 196 c 0
 56 364 175 406 245 406 c 0xe5
245 329 m 0
 196 329 140 280 140 196 c 0
 140 112 196 56 245 56 c 0
 301 56 322 98 343 133 c 1
 343 259 l 1
 322 301 285.14453125 329 245 329 c 0
EndSplineSet
EndChar

StartChar: Gbreve
Encoding: 286 286 203
Width: 588
Flags: MW
HStem: -14 91<269.5 325.5 269.5 335> 0 21G<441 525 441 441> 196 84<322 420 322 525> 483 91<269.5 334> 634 63<283.5 339.5 283.5 360.5>
VStem: 71 104<217 343 217 361> 157.5 70<753 774 753 774> 395.5 63<753 774> 420 105<49 49 171.5 196>
LayerCount: 2
Fore
SplineSet
227.5 774 m 1x0b
 227.5 732 255.5 697 311.5 697 c 0
 367.5 697 395.5 732 395.5 774 c 1
 458.5 774 l 1
 458.5 718 409.5 634 311.5 634 c 0
 213.5 634 157.5 718 157.5 774 c 1
 227.5 774 l 1x0b
308 574 m 0xb480
 414 574 476 511 511 420 c 1
 417 385 l 1
 396 455 360 483 308 483 c 0
 231 483 175 406 175 280 c 0
 175 154 231 77 308 77 c 0xb480
 343 77 364 84 385 105 c 0
 413 133 420 147 420 196 c 1
 322 196 l 1
 322 280 l 1
 525 280 l 1
 525 0 l 1
 441 0 l 1x7480
 420 49 l 1
 396 15 362 -14 308 -14 c 0
 154 -14 71 118 71 280 c 0
 71 442 154 574 308 574 c 0xb480
EndSplineSet
EndChar

StartChar: gbreve
Encoding: 287 287 204
Width: 483
Flags: MW
HStem: -179 71<210 266 210 290.5> -14 70<220.5 273 220.5 276.5> 329 77<220.5 265.072> 372 20G<357 427 427 427> 466 63<220.5 276.5 220.5 297.5>
VStem: 56 84<154 238 154 280> 94.5 70<585 606 585 606> 332.5 63<585 606> 343 84<-21 42 38.5 42 133 259 259 259 350 350> 357 70<392 392>
LayerCount: 2
Fore
SplineSet
164.5 606 m 1x0b
 164.5 564 192.5 529 248.5 529 c 0
 304.5 529 332.5 564 332.5 606 c 1
 395.5 606 l 1
 395.5 550 346.5 466 248.5 466 c 0
 150.5 466 94.5 550 94.5 606 c 1
 164.5 606 l 1x0b
245 406 m 0xe480
 315 406 343 350 343 350 c 1xe480
 349.39453125 360.544921875 353.938476562 374.790039062 357 392 c 1
 427 392 l 1xd440
 427 -21 l 2
 427 -126 336 -179 245 -179 c 0
 151.245117188 -179 77 -147 56 -126 c 1
 91 -63 l 1
 112 -77 175 -108 245 -108 c 0
 287 -108 343 -77 343 -21 c 2
 343 42 l 2
 343 35 308 -14 245 -14 c 0
 182 -14 56 21 56 196 c 0
 56 364 175 406 245 406 c 0xe480
245 329 m 0
 196 329 140 280 140 196 c 0
 140 112 196 56 245 56 c 0
 301 56 322 98 343 133 c 1
 343 259 l 1
 322 301 285.14453125 329 245 329 c 0
EndSplineSet
EndChar

StartChar: Gdotaccent
Encoding: 288 288 205
Width: 588
Flags: MW
HStem: -14 91<269.5 325.5 269.5 335> 0 21G<441 525 441 441> 196 84<322 420 322 525> 483 91<269.5 334> 634 122<291.164 324.836>
VStem: 71 104<217 343 217 361> 247 122<678.164 711.836> 420 105<49 49 171.5 196>
LayerCount: 2
Fore
SplineSet
369 695 m 0x0a
 369 661.328125 341.671875 634 308 634 c 0
 274.328125 634 247 661.328125 247 695 c 0
 247 728.671875 274.328125 756 308 756 c 0
 341.671875 756 369 728.671875 369 695 c 0x0a
308 574 m 0xb5
 414 574 476 511 511 420 c 1
 417 385 l 1
 396 455 360 483 308 483 c 0
 231 483 175 406 175 280 c 0
 175 154 231 77 308 77 c 0xb5
 343 77 364 84 385 105 c 0
 413 133 420 147 420 196 c 1
 322 196 l 1
 322 280 l 1
 525 280 l 1
 525 0 l 1
 441 0 l 1x75
 420 49 l 1
 396 15 362 -14 308 -14 c 0
 154 -14 71 118 71 280 c 0
 71 442 154 574 308 574 c 0xb5
EndSplineSet
EndChar

StartChar: gdotaccent
Encoding: 289 289 206
Width: 483
Flags: MW
HStem: -179 71<210 266 210 290.5> -14 70<220.5 273 220.5 276.5> 329 77<220.5 265.072> 372 20G<357 427 427 427> 466 122<228.164 261.836>
VStem: 56 84<154 238 154 280> 184 122<510.164 543.836> 343 84<-21 42 38.5 42 133 259 259 259 350 350> 357 70<392 392>
LayerCount: 2
Fore
SplineSet
306 527 m 0x0a
 306 493.328125 278.671875 466 245 466 c 0
 211.328125 466 184 493.328125 184 527 c 0
 184 560.671875 211.328125 588 245 588 c 0
 278.671875 588 306 560.671875 306 527 c 0x0a
245 406 m 0xe5
 315 406 343 350 343 350 c 1xe5
 349.39453125 360.544921875 353.938476562 374.790039062 357 392 c 1
 427 392 l 1xd480
 427 -21 l 2
 427 -126 336 -179 245 -179 c 0
 151.245117188 -179 77 -147 56 -126 c 1
 91 -63 l 1
 112 -77 175 -108 245 -108 c 0
 287 -108 343 -77 343 -21 c 2
 343 42 l 2
 343 35 308 -14 245 -14 c 0
 182 -14 56 21 56 196 c 0
 56 364 175 406 245 406 c 0xe5
245 329 m 0
 196 329 140 280 140 196 c 0
 140 112 196 56 245 56 c 0
 301 56 322 98 343 133 c 1
 343 259 l 1
 322 301 285.14453125 329 245 329 c 0
EndSplineSet
EndChar

StartChar: Gcommaaccent
Encoding: 290 290 207
Width: 588
Flags: MW
HStem: -186 112<291 310> -14 91<269.5 325.5 269.5 335> 0 21G<441 525 441 441> 196 84<322 420 322 525> 483 91<269.5 334>
VStem: 71 104<217 343 217 361> 327.5 38<-189 -182 -182 -182> 420 105<49 49 171.5 196>
LayerCount: 2
Fore
SplineSet
306.5 -74 m 0x82
 320.5 -74 333.5 -80 343.5 -88 c 0
 349.5 -93 365.5 -107 365.5 -156 c 0
 365.5 -226 290.5 -268 290.5 -268 c 1
 283.5 -251 l 1
 283.5 -251 327.5 -224 327.5 -189 c 2
 327.5 -182 l 1
 321.5 -185 313.5 -186 306.5 -186 c 0
 275.5 -186 250.5 -161 250.5 -130 c 0
 250.5 -99 275.5 -74 306.5 -74 c 0x82
308 574 m 0x5d
 414 574 476 511 511 420 c 1
 417 385 l 1
 396 455 360 483 308 483 c 0
 231 483 175 406 175 280 c 0
 175 154 231 77 308 77 c 0x5d
 343 77 364 84 385 105 c 0
 413 133 420 147 420 196 c 1
 322 196 l 1
 322 280 l 1
 525 280 l 1
 525 0 l 1
 441 0 l 1x3d
 420 49 l 1
 396 15 362 -14 308 -14 c 0
 154 -14 71 118 71 280 c 0
 71 442 154 574 308 574 c 0x5d
EndSplineSet
EndChar

StartChar: gcommaaccent
Encoding: 291 291 208
Width: 483
Flags: MW
HStem: -179 71<210 266 210 290.5> -14 70<220.5 273 220.5 276.5> 329 77<220.5 265.072> 372 20G<357 427 427 427> 466 112<243 262 243 262>
VStem: 56 84<154 238 154 280> 187.5 38<574 581 574 583> 343 84<-21 42 38.5 42 133 259 259 259 350 350> 357 70<392 392>
LayerCount: 2
Fore
SplineSet
246.5 466 m 0x0a
 232.5 466 219.5 472 209.5 480 c 0
 203.5 485 187.5 499 187.5 548 c 0
 187.5 618 262.5 660 262.5 660 c 1
 269.5 643 l 1
 269.5 643 225.5 616 225.5 581 c 2
 225.5 574 l 1
 231.5 577 239.5 578 246.5 578 c 0
 277.5 578 302.5 553 302.5 522 c 0
 302.5 491 277.5 466 246.5 466 c 0x0a
245 406 m 0xe5
 315 406 343 350 343 350 c 1xe5
 349.39453125 360.544921875 353.938476562 374.790039062 357 392 c 1
 427 392 l 1xd480
 427 -21 l 2
 427 -126 336 -179 245 -179 c 0
 151.245117188 -179 77 -147 56 -126 c 1
 91 -63 l 1
 112 -77 175 -108 245 -108 c 0
 287 -108 343 -77 343 -21 c 2
 343 42 l 2
 343 35 308 -14 245 -14 c 0
 182 -14 56 21 56 196 c 0
 56 364 175 406 245 406 c 0xe5
245 329 m 0
 196 329 140 280 140 196 c 0
 140 112 196 56 245 56 c 0
 301 56 322 98 343 133 c 1
 343 259 l 1
 322 301 285.14453125 329 245 329 c 0
EndSplineSet
EndChar

StartChar: Hcircumflex
Encoding: 292 292 209
Width: 588
Flags: MW
HStem: 0 21G<91 91 91 189 399 399 399 497> 252 84<189 399 189 399> 540 20G<91 189 189 189 399 497 497 497> 634 168<138 331 138 331 257 450 257 396>
VStem: 91 98<0 252 336 560> 138 312<634 634> 399 98<0 252 252 252 336 560 0 560>
LayerCount: 2
Fore
SplineSet
331 802 m 1x14
 450 634 l 1
 396 634 l 1
 294 732 l 1
 192 634 l 1
 138 634 l 1
 257 802 l 1
 331 802 l 1x14
91 0 m 1xea
 91 560 l 1
 189 560 l 1
 189 336 l 1
 399 336 l 1
 399 560 l 1
 497 560 l 1
 497 0 l 1
 399 0 l 1
 399 252 l 1
 189 252 l 1
 189 0 l 1
 91 0 l 1xea
EndSplineSet
EndChar

StartChar: hcircumflex
Encoding: 293 293 210
Width: 469
Flags: MW
HStem: 0 21G<91 175 91 91 329 413 329 329> 329 70<259 294> 540 20G<91 175 175 175> 620 168<96 289 96 289 215 408 215 354>
VStem: 91 84<0 252 336 560> 96 312<620 620> 329 84<0 273 273 280 0 283.5>
LayerCount: 2
Fore
SplineSet
289 788 m 1x14
 408 620 l 1
 354 620 l 1
 252 718 l 1
 150 620 l 1
 96 620 l 1
 215 788 l 1
 289 788 l 1x14
294 399 m 0xea
 371 399 413 350 413 280 c 2
 413 0 l 1
 329 0 l 1
 329 273 l 2
 329 294 315 329 273 329 c 0
 232.85546875 329 196 294 175 252 c 1
 175 0 l 1
 91 0 l 1
 91 560 l 1
 175 560 l 1
 175 336 l 1
 175 336 224 399 294 399 c 0xea
EndSplineSet
EndChar

StartChar: hbar
Encoding: 295 295 211
Width: 518
Flags: MW
HStem: 0 21G<140 224 140 140 378 462 378 378> 329 70<308 343> 434 77<84 140 84 140 224 308> 540 20G<140 224 224 224>
VStem: 140 84<0 252 336 434 511 560> 378 84<0 273 273 280 0 283.5>
LayerCount: 2
Fore
SplineSet
140 560 m 1
 224 560 l 1
 224 511 l 1
 308 511 l 1
 308 434 l 1
 224 434 l 1
 224 336 l 1
 224 336 273 399 343 399 c 0
 420 399 462 350 462 280 c 2
 462 0 l 1
 378 0 l 1
 378 273 l 2
 378 294 364 329 322 329 c 0
 282 329 245 294 224 252 c 1
 224 0 l 1
 140 0 l 1
 140 434 l 1
 84 434 l 1
 84 511 l 1
 140 511 l 1
 140 560 l 1
EndSplineSet
EndChar

StartChar: Itilde
Encoding: 296 296 212
Width: 280
Flags: MW
HStem: 0 21G<91 91 91 189> 540 20G<91 189 189 189> 634 58<181.5 209.5 181.5 213.5> 685 59<63.5 91.5>
VStem: -6.5 293<690 697> 91 98<0 560 0 560>
LayerCount: 2
Fore
SplineSet
-6.5 690 m 1x18
 -6.5 690 38.5 744 80.5 744 c 0x18
 122.5 744 167.5 692 195.5 692 c 0
 223.5 692 248.5 721 255.5 728 c 1
 286.5 697 l 1
 279.5 690 234.5 634 192.5 634 c 0x28
 150.5 634 105.5 685 77.5 685 c 0
 49.5 685 31.5 666 24.5 659 c 1
 -6.5 690 l 1x18
91 0 m 1xc4
 91 560 l 1
 189 560 l 1
 189 0 l 1
 91 0 l 1xc4
EndSplineSet
EndChar

StartChar: itilde
Encoding: 297 297 213
Width: 252
Flags: MW
HStem: 0 21G<84 84 84 168> 372 20G<84 168 168 168> 466 58<167.5 195.5 167.5 199.5> 517 59<49.5 77.5>
VStem: -20.5 293<522 529> 84 84<0 392 0 392>
LayerCount: 2
Fore
SplineSet
-20.5 522 m 1x18
 -20.5 522 24.5 576 66.5 576 c 0x18
 108.5 576 153.5 524 181.5 524 c 0
 209.5 524 234.5 553 241.5 560 c 1
 272.5 529 l 1
 265.5 522 220.5 466 178.5 466 c 0x28
 136.5 466 91.5 517 63.5 517 c 0
 35.5 517 17.5 498 10.5 491 c 1
 -20.5 522 l 1x18
84 0 m 1xc4
 84 392 l 1
 168 392 l 1
 168 0 l 1
 84 0 l 1xc4
EndSplineSet
EndChar

StartChar: Imacron
Encoding: 298 298 214
Width: 280
Flags: MW
HStem: 0 21G<91 91 91 189> 540 20G<91 189 189 189> 634 60<7 273 7 273>
VStem: 7 266<634 694 634 694> 91 98<0 560 0 560>
LayerCount: 2
Fore
SplineSet
7 634 m 1x30
 7 694 l 1
 273 694 l 1
 273 634 l 1
 7 634 l 1x30
91 0 m 1xc8
 91 560 l 1
 189 560 l 1
 189 0 l 1
 91 0 l 1xc8
EndSplineSet
EndChar

StartChar: imacron
Encoding: 299 299 215
Width: 252
Flags: MW
HStem: 0 21G<84 84 84 168> 372 20G<84 168 168 168> 466 60<-7 259 -7 259>
VStem: -7 266<466 526 466 526> 84 84<0 392 0 392>
LayerCount: 2
Fore
SplineSet
-7 466 m 1x30
 -7 526 l 1
 259 526 l 1
 259 466 l 1
 -7 466 l 1x30
84 0 m 1xc8
 84 392 l 1
 168 392 l 1
 168 0 l 1
 84 0 l 1xc8
EndSplineSet
EndChar

StartChar: Ibreve
Encoding: 300 300 216
Width: 280
Flags: MW
HStem: 0 21G<91 91 91 189> 540 20G<91 189 189 189> 634 63<115.5 171.5 115.5 192.5>
VStem: -10.5 70<753 774 753 774> 91 98<0 560 0 560> 227.5 63<753 774>
LayerCount: 2
Fore
SplineSet
59.5 774 m 1
 59.5 732 87.5 697 143.5 697 c 0
 199.5 697 227.5 732 227.5 774 c 1
 290.5 774 l 1
 290.5 718 241.5 634 143.5 634 c 0
 45.5 634 -10.5 718 -10.5 774 c 1
 59.5 774 l 1
91 0 m 1
 91 560 l 1
 189 560 l 1
 189 0 l 1
 91 0 l 1
EndSplineSet
EndChar

StartChar: ibreve
Encoding: 301 301 217
Width: 252
Flags: MW
HStem: 0 21G<84 84 84 168> 372 20G<84 168 168 168> 466 63<101.5 157.5 101.5 178.5>
VStem: -24.5 70<585 606 585 606> 84 84<0 392 0 392> 213.5 63<585 606>
LayerCount: 2
Fore
SplineSet
45.5 606 m 1
 45.5 564 73.5 529 129.5 529 c 0
 185.5 529 213.5 564 213.5 606 c 1
 276.5 606 l 1
 276.5 550 227.5 466 129.5 466 c 0
 31.5 466 -24.5 550 -24.5 606 c 1
 45.5 606 l 1
84 0 m 1
 84 392 l 1
 168 392 l 1
 168 0 l 1
 84 0 l 1
EndSplineSet
EndChar

StartChar: Iogonek
Encoding: 302 302 218
Width: 280
Flags: MW
HStem: -216.767 53 -19.7667 20G 0 21G<91 91 91 189> 540 20G<91 189 189 189>
VStem: 49 63<-139.767 -94.2666 -139.767 -87.2666> 91 98<0 560 0 560>
LayerCount: 2
Fore
SplineSet
189 0.2333984375 m 1x08
 203 -41.7666015625 l 1
 203 -41.7666015625 112 -69.7666015625 112 -118.766601562 c 0
 112 -160.766601562 147 -163.766601562 168 -163.766601562 c 0
 189 -163.766601562 231 -139.766601562 231 -139.766601562 c 1
 245 -174.766601562 l 1
 245 -174.766601562 210 -216.766601562 147 -216.766601562 c 0
 84 -216.766601562 49 -174.766601562 49 -125.766601562 c 0
 49 -48.7666015625 154 -13.7666015625 189 0.2333984375 c 1x08
91 0 m 1x34
 91 560 l 1
 189 560 l 1
 189 0 l 1
 91 0 l 1x34
EndSplineSet
EndChar

StartChar: iogonek
Encoding: 303 303 219
Width: 252
Flags: MW
HStem: -217 53<136.5 157.5 136.5 157.5> -20 20G<84 84 84 168 168 168> 0 21G<84 84 84 168 168 168> 372 20G<84 168 168 168> 460 122<109 143>
VStem: 28 63<-140 -94.5 -140 -87.5> 65 122<504 538> 84 84<0 392 0 392>
LayerCount: 2
Fore
SplineSet
187 521 m 0x9a
 187 487 160 460 126 460 c 0
 92 460 65 487 65 521 c 0
 65 555 92 582 126 582 c 0
 160 582 187 555 187 521 c 0x9a
84 0 m 1xb9
 84 392 l 1
 168 392 l 1
 168 0 l 1xd9
 84 0 l 1xb9
168 0 m 1
 182 -42 l 1
 182 -42 91 -70 91 -119 c 0
 91 -161 126 -164 147 -164 c 0
 168 -164 210 -140 210 -140 c 1
 224 -175 l 1
 224 -175 189 -217 126 -217 c 0
 63 -217 28 -175 28 -126 c 0xdc
 28 -49 133 -14 168 0 c 1
EndSplineSet
EndChar

StartChar: Idotaccent
Encoding: 304 304 220
Width: 280
Flags: MW
HStem: 0 21G<91 91 91 189> 540 20G<91 189 189 189> 634 122<123.164 156.836>
VStem: 79 122<678.164 711.836> 91 98<0 560 0 560>
LayerCount: 2
Fore
SplineSet
201 695 m 0x30
 201 661.328125 173.671875 634 140 634 c 0
 106.328125 634 79 661.328125 79 695 c 0
 79 728.671875 106.328125 756 140 756 c 0
 173.671875 756 201 728.671875 201 695 c 0x30
91 0 m 1xc8
 91 560 l 1
 189 560 l 1
 189 0 l 1
 91 0 l 1xc8
EndSplineSet
EndChar

StartChar: dotlessi
Encoding: 305 305 221
Width: 252
Flags: MW
HStem: 0 21G<84 84 84 168> 372 20G<84 168 168 168>
VStem: 84 84<0 392 0 392>
LayerCount: 2
Fore
SplineSet
84 0 m 1
 84 392 l 1
 168 392 l 1
 168 0 l 1
 84 0 l 1
EndSplineSet
EndChar

StartChar: IJ
Encoding: 306 306 222
Width: 582
Flags: MW
HStem: -14 98<319.5 344 305.5 386> 0 21G<91 91 91 189 232 232> 540 20G<91 189 189 189 393 491 491 491>
VStem: 91 98<0 560 0 560> 393 98<153.554 560>
LayerCount: 2
Fore
SplineSet
239 98 m 1xa8
 239 98 281 84 330 84 c 0
 358 84 393 105 393 153.553710938 c 2
 393 560 l 1
 491 560 l 1
 491 125.774414062 l 2
 491 59.8310546875 435 -14 337 -14 c 0
 302 -14 232 0 232 0 c 1
 239 98 l 1xa8
91 0 m 1x70
 91 560 l 1
 189 560 l 1
 189 0 l 1
 91 0 l 1x70
EndSplineSet
EndChar

StartChar: ij
Encoding: 307 307 223
Width: 420
Flags: MW
HStem: -167.852 80.7067 0 21G<84 84 84 168> 372 20G<84 168 168 168 252 336 252 336 252 336 336 336> 460 122<109.164 142.836 277.164 310.836>
VStem: 65 122<504.164 537.836> 84 84<0 392 0 392> 233 122<504.164 537.836> 252 84<-56 392>
LayerCount: 2
Fore
SplineSet
187 521 m 0x18
 187 487.328125 159.671875 460 126 460 c 0
 92.328125 460 65 487.328125 65 521 c 0
 65 554.671875 92.328125 582 126 582 c 0
 159.671875 582 187 554.671875 187 521 c 0x18
355 521 m 0x12
 355 487.328125 327.671875 460 294 460 c 0
 260.328125 460 233 487.328125 233 521 c 0
 233 554.671875 260.328125 582 294 582 c 0
 327.671875 582 355 554.671875 355 521 c 0x12
84 0 m 1x64
 84 392 l 1
 168 392 l 1
 168 0 l 1
 84 0 l 1x64
252 392 m 1xa1
 336 392 l 1
 336 -70 l 2
 336 -132.8671875 280.236328125 -167.8515625 252.153320312 -167.8515625 c 0
 210.135742188 -167.740234375 188.987304688 -167.995117188 154 -154 c 1
 175 -84 l 1
 186.09765625 -85.79296875 197.638671875 -87.1455078125 208.3046875 -87.1455078125 c 0
 232.381835938 -87.1455078125 252 -80.255859375 252 -56 c 2
 252 392 l 1xa1
252 392 m 1
 336 392 l 1
 252 392 l 1
EndSplineSet
EndChar

StartChar: Jcircumflex
Encoding: 308 308 224
Width: 392
Flags: MW
HStem: -14 98<122.5 147 108.5 189> 540 20G<196 294 294 294> 634 168<89 282 89 282 208 401 208 347>
VStem: 89 312<634 634> 196 98<153.554 560>
LayerCount: 2
Fore
SplineSet
282 802 m 1x30
 401 634 l 1
 347 634 l 1
 245 732 l 1
 143 634 l 1
 89 634 l 1
 208 802 l 1
 282 802 l 1x30
42 98 m 1xc8
 42 98 84 84 133 84 c 0
 161 84 196 105 196 153.553710938 c 2
 196 560 l 1
 294 560 l 1
 294 125.774414062 l 2
 294 59.8310546875 238 -14 140 -14 c 0
 105 -14 35 0 35 0 c 1
 42 98 l 1xc8
EndSplineSet
EndChar

StartChar: jcircumflex
Encoding: 309 309 225
Width: 252
Flags: MW
HStem: -167.852 80.7067 372 20G<84 168 84 168 84 168 168 168> 466 168<-30 163 -30 163 89 282 89 228>
VStem: -30 312<466 466> 84 84<-56 392>
LayerCount: 2
Fore
SplineSet
163 634 m 1x30
 282 466 l 1
 228 466 l 1
 126 564 l 1
 24 466 l 1
 -30 466 l 1
 89 634 l 1
 163 634 l 1x30
84 392 m 1xc8
 168 392 l 1
 168 -70 l 2
 168 -132.8671875 112.236328125 -167.8515625 84.1533203125 -167.8515625 c 0
 42.1357421875 -167.740234375 20.9873046875 -167.995117188 -14 -154 c 1
 7 -84 l 1
 18.09765625 -85.79296875 29.638671875 -87.1455078125 40.3046875 -87.1455078125 c 0
 64.3818359375 -87.1455078125 84 -80.255859375 84 -56 c 2
 84 392 l 1xc8
84 392 m 1
 168 392 l 1
 84 392 l 1
EndSplineSet
EndChar

StartChar: Kcommaaccent
Encoding: 310 310 226
Width: 583
Flags: MW
HStem: -172 112<295 314> 0 21G<95 193 95 95 403 403 403 529> 540 20G<95 193 193 193 389 515 515 515>
VStem: 95 98<0 560 0 560> 331.5 38<-175 -168 -168 -168>
LayerCount: 2
Fore
SplineSet
310.5 -60 m 0
 324.5 -60 337.5 -66 347.5 -74 c 0
 353.5 -79 369.5 -93 369.5 -142 c 0
 369.5 -212 294.5 -254 294.5 -254 c 1
 287.5 -237 l 1
 287.5 -237 331.5 -210 331.5 -175 c 2
 331.5 -168 l 1
 325.5 -171 317.5 -172 310.5 -172 c 0
 279.5 -172 254.5 -147 254.5 -116 c 0
 254.5 -85 279.5 -60 310.5 -60 c 0
403 0 m 1
 194 296 l 1
 389 560 l 1
 515 560 l 1
 314 297 l 1
 529 0 l 1
 403 0 l 1
193 560 m 1
 193 0 l 1
 95 0 l 1
 95 560 l 1
 193 560 l 1
EndSplineSet
EndChar

StartChar: kcommaaccent
Encoding: 311 311 227
Width: 474
Flags: MW
HStem: -172 112<241 260> 0 21G<98 182 98 98 313 418 313 313> 372 20G<312 415 415 415> 540 20G<98 182 182 182>
VStem: 98 84<0 209 214 560> 277.5 38<-175 -168 -168 -168>
LayerCount: 2
Fore
SplineSet
256.5 -60 m 0
 270.5 -60 283.5 -66 293.5 -74 c 0
 299.5 -79 315.5 -93 315.5 -142 c 0
 315.5 -212 240.5 -254 240.5 -254 c 1
 233.5 -237 l 1
 233.5 -237 277.5 -210 277.5 -175 c 2
 277.5 -168 l 1
 271.5 -171 263.5 -172 256.5 -172 c 0
 225.5 -172 200.5 -147 200.5 -116 c 0
 200.5 -85 225.5 -60 256.5 -60 c 0
98 560 m 1
 182 560 l 1
 182 214 l 1
 312 392 l 1
 415 392 l 1
 280 207 l 1
 418 0 l 1
 313 0 l 1
 182 209 l 1
 182 0 l 1
 98 0 l 1
 98 560 l 1
EndSplineSet
EndChar

StartChar: kgreenlandic
Encoding: 312 312 228
Width: 474
Flags: MW
HStem: 0 21G<98 182 98 98 313 418 313 313> 372.005 20G
VStem: 98 84<0 209 214 392.005>
LayerCount: 2
Fore
SplineSet
98 392.004882812 m 1
 182 392.004882812 l 1
 182 214 l 1
 312 392 l 1
 415 392 l 1
 280 207 l 1
 418 0 l 1
 313 0 l 1
 182 209 l 1
 182 0 l 1
 98 0 l 1
 98 392.004882812 l 1
EndSplineSet
EndChar

StartChar: Lacute
Encoding: 313 313 229
Width: 504
Flags: MW
HStem: 0 84<189 441 189 441> 540 20G<91 189 189 189> 634 147<114.5 276.5 114.5 276.5>
VStem: 91 98<84 560 84 560 84 560> 114.5 162<634 781>
LayerCount: 2
Fore
SplineSet
185.5 781 m 1x28
 276.5 781 l 1
 165.5 634 l 1
 114.5 634 l 1
 185.5 781 l 1x28
91 0 m 1xd0
 91 560 l 1
 189 560 l 1
 189 84 l 1
 441 84 l 1
 441 0 l 1
 91 0 l 1xd0
EndSplineSet
EndChar

StartChar: lacute
Encoding: 314 314 230
Width: 321
Flags: MW
HStem: -7 77<149 227.5 206.5 217> 540 20G<98 182 182 182> 620 147<114.5 276.5 114.5 276.5>
VStem: 98 84<91 105 105 560> 114.5 162<620 767>
LayerCount: 2
Fore
SplineSet
185.5 767 m 1x28
 276.5 767 l 1
 165.5 620 l 1
 114.5 620 l 1
 185.5 767 l 1x28
98 560 m 1xd0
 182 560 l 1
 182 105 l 2
 182 77 196 70 217 70 c 0
 238 70 259 77 259 77 c 1
 273 0 l 1
 252 -7 231 -7 217 -7 c 2
 175 -7 l 2
 123 -7 98 19 98 63 c 2
 98 560 l 1xd0
EndSplineSet
EndChar

StartChar: Lcommaaccent
Encoding: 315 315 231
Width: 504
Flags: MW
HStem: -172 112<249 268> 0 84<189 441 189 441> 540 20G<91 189 189 189>
VStem: 91 98<84 560 84 560 84 560> 285.5 38<-175 -168 -168 -168>
LayerCount: 2
Fore
SplineSet
264.5 -60 m 0
 278.5 -60 291.5 -66 301.5 -74 c 0
 307.5 -79 323.5 -93 323.5 -142 c 0
 323.5 -212 248.5 -254 248.5 -254 c 1
 241.5 -237 l 1
 241.5 -237 285.5 -210 285.5 -175 c 2
 285.5 -168 l 1
 279.5 -171 271.5 -172 264.5 -172 c 0
 233.5 -172 208.5 -147 208.5 -116 c 0
 208.5 -85 233.5 -60 264.5 -60 c 0
91 0 m 1
 91 560 l 1
 189 560 l 1
 189 84 l 1
 441 84 l 1
 441 0 l 1
 91 0 l 1
EndSplineSet
EndChar

StartChar: lcommaaccent
Encoding: 316 316 232
Width: 321
Flags: MW
HStem: -179 112<179 198> -7 77<149 227.5 206.5 217> 540 20G<98 182 182 182>
VStem: 98 84<91 105 105 560> 215.5 38<-182 -175 -175 -175>
LayerCount: 2
Fore
SplineSet
194.5 -67 m 0
 208.5 -67 221.5 -73 231.5 -81 c 0
 237.5 -86 253.5 -100 253.5 -149 c 0
 253.5 -219 178.5 -261 178.5 -261 c 1
 171.5 -244 l 1
 171.5 -244 215.5 -217 215.5 -182 c 2
 215.5 -175 l 1
 209.5 -178 201.5 -179 194.5 -179 c 0
 163.5 -179 138.5 -154 138.5 -123 c 0
 138.5 -92 163.5 -67 194.5 -67 c 0
98 560 m 1
 182 560 l 1
 182 105 l 2
 182 77 196 70 217 70 c 0
 238 70 259 77 259 77 c 1
 273 0 l 1
 252 -7 231 -7 217 -7 c 2
 175 -7 l 2
 123 -7 98 19 98 63 c 2
 98 560 l 1
EndSplineSet
EndChar

StartChar: Lcaron
Encoding: 317 317 233
Width: 504
Flags: MW
HStem: 0 84<189 441 189 441> 462 112<308.5 327.5> 540 20G<91 189 189 189>
VStem: 91 98<84 560 84 560 84 560> 345 38<459 466 466 466>
LayerCount: 2
Fore
SplineSet
324 574 m 0x48
 338 574 351 568 361 560 c 0
 367 555 383 541 383 492 c 0
 383 422 308 380 308 380 c 1
 301 397 l 1
 301 397 345 424 345 459 c 2
 345 466 l 1
 339 463 331 462 324 462 c 0
 293 462 268 487 268 518 c 0
 268 549 293 574 324 574 c 0x48
91 0 m 1xb0
 91 560 l 1
 189 560 l 1
 189 84 l 1
 441 84 l 1
 441 0 l 1
 91 0 l 1xb0
EndSplineSet
EndChar

StartChar: lcaron
Encoding: 318 318 234
Width: 321
Flags: MW
HStem: -7 77<149 227.5 206.5 217> 448 112<270.5 289.5> 540 20G<98 182 182 182 270.5 293>
VStem: 98 84<91 105 105 560> 307 38<445 452 452 452>
LayerCount: 2
Fore
SplineSet
286 560 m 0x48
 300 560 313 554 323 546 c 0
 329 541 345 527 345 478 c 0
 345 408 270 366 270 366 c 1
 263 383 l 1
 263 383 307 410 307 445 c 2
 307 452 l 1
 301 449 293 448 286 448 c 0
 255 448 230 473 230 504 c 0
 230 535 255 560 286 560 c 0x48
98 560 m 1xb0
 182 560 l 1
 182 105 l 2
 182 77 196 70 217 70 c 0
 238 70 259 77 259 77 c 1
 273 0 l 1
 252 -7 231 -7 217 -7 c 2
 175 -7 l 2
 123 -7 98 19 98 63 c 2
 98 560 l 1xb0
EndSplineSet
EndChar

StartChar: Ldot
Encoding: 319 319 235
Width: 504
Flags: MW
HStem: 0 84<189 441 189 441> 226 122<249.164 282.836> 540 20G<91 189 189 189>
VStem: 91 98<84 560 84 560 84 560> 205 122<270.164 303.836>
LayerCount: 2
Fore
SplineSet
327 287 m 0
 327 253.328125 299.671875 226 266 226 c 0
 232.328125 226 205 253.328125 205 287 c 0
 205 320.671875 232.328125 348 266 348 c 0
 299.671875 348 327 320.671875 327 287 c 0
91 0 m 1
 91 560 l 1
 189 560 l 1
 189 84 l 1
 441 84 l 1
 441 0 l 1
 91 0 l 1
EndSplineSet
EndChar

StartChar: ldot
Encoding: 320 320 236
Width: 400
Flags: MW
HStem: -7 77<149 227.5 206.5 217> 135 122<257.164 290.836> 540 20G<98 182 182 182>
VStem: 98 84<91 105 105 560> 213 122<179.164 212.836>
LayerCount: 2
Fore
SplineSet
335 196 m 0
 335 162.328125 307.671875 135 274 135 c 0
 240.328125 135 213 162.328125 213 196 c 0
 213 229.671875 240.328125 257 274 257 c 0
 307.671875 257 335 229.671875 335 196 c 0
98 560 m 1
 182 560 l 1
 182 105 l 2
 182 77 196 70 217 70 c 0
 238 70 259 77 259 77 c 1
 273 0 l 1
 252 -7 231 -7 217 -7 c 2
 175 -7 l 2
 123 -7 98 19 98 63 c 2
 98 560 l 1
EndSplineSet
EndChar

StartChar: Lslash
Encoding: 321 321 237
Width: 574
Flags: MW
HStem: 0 84<252 504 252 504> 386 20G<336 336> 540 20G<154 252 252 252>
VStem: 154 98<84 196 196 196 357 560>
LayerCount: 2
Fore
SplineSet
154 560 m 1
 252 560 l 1
 252 357 l 1
 336 406 l 1
 336 301 l 1
 252 252 l 1
 252 84 l 1
 504 84 l 1
 504 0 l 1
 154 0 l 1
 154 196 l 1
 70 147 l 1
 70 252 l 1
 154 301 l 1
 154 560 l 1
EndSplineSet
EndChar

StartChar: lslash
Encoding: 322 322 238
Width: 357
Flags: MW
HStem: -7 77<169.882 248.5 227.5 238> 540 20G<119 203 203 203>
VStem: 119 84<91 105 105 163 163 163 319 560>
LayerCount: 2
Fore
SplineSet
119 560 m 1
 203 560 l 1
 203 319 l 1
 259 353 l 1
 259 248 l 1
 203 214 l 1
 203 105 l 2
 203 77 217 70 238 70 c 0
 259 70 280 77 280 77 c 1
 294 0 l 1
 273 -7 252 -7 238 -7 c 2
 196 -7 l 2
 143.763671875 -7 119 18.6953125 119 63 c 2
 119 163 l 1
 63 129 l 1
 63 234 l 1
 119 268 l 1
 119 560 l 1
EndSplineSet
EndChar

StartChar: Nacute
Encoding: 323 323 239
Width: 588
Flags: MW
HStem: 0 21G<84 84 84 182 392 392 392 504> 540 20G<84 196 196 196 406 504 504 504> 634 147<268.5 430.5 268.5 430.5>
VStem: 84 98<0 406 0 560> 268.5 162<634 781> 406 98<161 560 0 560>
LayerCount: 2
Fore
SplineSet
339.5 781 m 1x28
 430.5 781 l 1
 319.5 634 l 1
 268.5 634 l 1
 339.5 781 l 1x28
84 0 m 1xd4
 84 560 l 1
 196 560 l 1
 406 161 l 1
 406 560 l 1
 504 560 l 1
 504 0 l 1
 392 0 l 1
 182 406 l 1
 182 0 l 1
 84 0 l 1xd4
EndSplineSet
EndChar

StartChar: nacute
Encoding: 324 324 240
Width: 469
Flags: MW
HStem: 0 21G<91 175 91 91 329 413 329 329> 329 70<259 294> 372 20G<91 163 163 163> 466 147<226.5 388.5 226.5 388.5>
VStem: 91 72<0 392 392 392> 91 84<0 252 0 392> 226.5 162<466 613> 329 84<0 273 273 280 0 283.5>
LayerCount: 2
Fore
SplineSet
297.5 613 m 1x12
 388.5 613 l 1
 277.5 466 l 1
 226.5 466 l 1
 297.5 613 l 1x12
294 399 m 0xc9
 371 399 413 350 413 280 c 2
 413 0 l 1
 329 0 l 1
 329 273 l 2
 329 294 315 329 273 329 c 0
 232.85546875 329 196 294 175 252 c 1
 175 0 l 1
 91 0 l 1xc5
 91 392 l 1
 163 392 l 1xa9
 166.061523438 374.790039062 170.60546875 356.544921875 177 346 c 1
 177 346 224 399 294 399 c 0xc9
EndSplineSet
EndChar

StartChar: Ncommaaccent
Encoding: 325 325 241
Width: 588
Flags: MW
HStem: -172 112<277 296> 0 21G<84 84 84 182 392 392 392 504> 540 20G<84 196 196 196 406 504 504 504>
VStem: 84 98<0 406 0 560> 313.5 38<-175 -168 -168 -168> 406 98<161 560 0 560>
LayerCount: 2
Fore
SplineSet
292.5 -60 m 0
 306.5 -60 319.5 -66 329.5 -74 c 0
 335.5 -79 351.5 -93 351.5 -142 c 0
 351.5 -212 276.5 -254 276.5 -254 c 1
 269.5 -237 l 1
 269.5 -237 313.5 -210 313.5 -175 c 2
 313.5 -168 l 1
 307.5 -171 299.5 -172 292.5 -172 c 0
 261.5 -172 236.5 -147 236.5 -116 c 0
 236.5 -85 261.5 -60 292.5 -60 c 0
84 0 m 1
 84 560 l 1
 196 560 l 1
 406 161 l 1
 406 560 l 1
 504 560 l 1
 504 0 l 1
 392 0 l 1
 182 406 l 1
 182 0 l 1
 84 0 l 1
EndSplineSet
EndChar

StartChar: ncommaaccent
Encoding: 326 326 242
Width: 469
Flags: MW
HStem: -172 112<235 254> 0 21G<91 175 91 91 329 413 329 329> 329 70<259 294> 372 20G<91 163 163 163>
VStem: 91 72<0 392 392 392> 91 84<0 252 0 392> 271.5 38<-175 -168 -168 -168> 329 84<0 273 273 280 0 283.5>
LayerCount: 2
Fore
SplineSet
250.5 -60 m 0x82
 264.5 -60 277.5 -66 287.5 -74 c 0
 293.5 -79 309.5 -93 309.5 -142 c 0
 309.5 -212 234.5 -254 234.5 -254 c 1
 227.5 -237 l 1
 227.5 -237 271.5 -210 271.5 -175 c 2
 271.5 -168 l 1
 265.5 -171 257.5 -172 250.5 -172 c 0
 219.5 -172 194.5 -147 194.5 -116 c 0
 194.5 -85 219.5 -60 250.5 -60 c 0x82
294 399 m 0x69
 371 399 413 350 413 280 c 2
 413 0 l 1
 329 0 l 1
 329 273 l 2
 329 294 315 329 273 329 c 0
 232.85546875 329 196 294 175 252 c 1
 175 0 l 1
 91 0 l 1x65
 91 392 l 1
 163 392 l 1x59
 166.061523438 374.790039062 170.60546875 356.544921875 177 346 c 1
 177 346 224 399 294 399 c 0x69
EndSplineSet
EndChar

StartChar: Ncaron
Encoding: 327 327 243
Width: 588
Flags: MW
HStem: 0 21G<84 84 84 182 392 392 392 504> 540 20G<84 196 196 196 406 504 504 504> 634 168<138 257 138 331>
VStem: 84 98<0 406 0 560> 138 312<802 802> 406 98<161 560 0 560>
LayerCount: 2
Fore
SplineSet
257 634 m 1x28
 138 802 l 1
 192 802 l 1
 294 704 l 1
 396 802 l 1
 450 802 l 1
 331 634 l 1
 257 634 l 1x28
84 0 m 1xd4
 84 560 l 1
 196 560 l 1
 406 161 l 1
 406 560 l 1
 504 560 l 1
 504 0 l 1
 392 0 l 1
 182 406 l 1
 182 0 l 1
 84 0 l 1xd4
EndSplineSet
EndChar

StartChar: ncaron
Encoding: 328 328 244
Width: 469
Flags: MW
HStem: 0 21G<91 175 91 91 329 413 329 329> 329 70<259 294> 372 20G<91 163 163 163> 466 168<96 215 96 289>
VStem: 91 72<0 392 392 392> 91 84<0 252 0 392> 96 312<634 634> 329 84<0 273 273 280 0 283.5>
LayerCount: 2
Fore
SplineSet
215 466 m 1x12
 96 634 l 1
 150 634 l 1
 252 536 l 1
 354 634 l 1
 408 634 l 1
 289 466 l 1
 215 466 l 1x12
294 399 m 0xc9
 371 399 413 350 413 280 c 2
 413 0 l 1
 329 0 l 1
 329 273 l 2
 329 294 315 329 273 329 c 0
 232.85546875 329 196 294 175 252 c 1
 175 0 l 1
 91 0 l 1xc5
 91 392 l 1
 163 392 l 1xa9
 166.061523438 374.790039062 170.60546875 356.544921875 177 346 c 1
 177 346 224 399 294 399 c 0xc9
EndSplineSet
EndChar

StartChar: napostrophe
Encoding: 329 329 245
Width: 591
Flags: MW
HStem: 0 21G<199 283 199 199 437 521 437 437> 329 70<367 402> 334 112<105.5 124.5> 372 20G<199 271 271 271>
VStem: 142 38<331 338 338 338> 199 72<0 392 392 392> 199 84<0 252 0 392> 437 84<0 273 273 280 0 283.5>
LayerCount: 2
Fore
SplineSet
402 399 m 0xc5
 479 399 521 350 521 280 c 2
 521 0 l 1
 437 0 l 1
 437 273 l 2
 437 294 423 329 381 329 c 0
 340.85546875 329 304 294 283 252 c 1
 283 0 l 1
 199 0 l 1xc3
 199 392 l 1
 271 392 l 1x95
 274.061523438 374.790039062 278.60546875 356.544921875 285 346 c 1
 285 346 332 399 402 399 c 0xc5
121 446 m 0x28
 135 446 148 440 158 432 c 0
 164 427 180 413 180 364 c 0
 180 294 105 252 105 252 c 1
 98 269 l 1
 98 269 142 296 142 331 c 2
 142 338 l 1
 136 335 128 334 121 334 c 0
 90 334 65 359 65 390 c 0
 65 421 90 446 121 446 c 0x28
EndSplineSet
EndChar

StartChar: eng
Encoding: 331 331 246
Width: 504
Flags: MW
HStem: -167.852 80.7067 0 21G<91 175 91 91> 329 70<259 294> 372 20G<91 163 163 163>
VStem: 91 72<0 392 392 392> 91 84<0 252 0 392> 328.5 84<-101.435 -56>
LayerCount: 2
Fore
SplineSet
294 399 m 0xea
 371 399 413 349.999023438 413 279.999023438 c 2
 412.5 -70.0009765625 l 2
 412.5 -132.868164062 356.735351562 -167.853515625 328.65234375 -167.853515625 c 2
 326.543945312 -167.853515625 l 2
 285.958007812 -167.853515625 264.83984375 -167.737304688 230.5 -154.000976562 c 1
 251.5 -84.0009765625 l 1
 262.59765625 -85.7939453125 274.138671875 -87.1455078125 284.8046875 -87.1455078125 c 0
 308.881835938 -87.1455078125 328.5 -80.255859375 328.5 -56 c 2
 329 273 l 2
 329 294 315 329 273 329 c 0
 232.85546875 329 196 294 175 252 c 1
 175 0 l 1
 91 0 l 1xe6
 91 392 l 1
 163 392 l 1xda
 166.061523438 374.790039062 170.60546875 356.544921875 177 346 c 1
 177 346 224 399 294 399 c 0xea
EndSplineSet
EndChar

StartChar: Omacron
Encoding: 332 332 247
Width: 588
Flags: MW
HStem: -14 91<255.5 332.5 255.5 371> 483 91<255.5 332.5> 634 60<161 427 161 427>
VStem: 66 95<217 343 217 361> 161 266<217 343 634 694> 427 95<217 343>
LayerCount: 2
Fore
SplineSet
161 634 m 1x28
 161 694 l 1
 427 694 l 1
 427 634 l 1
 161 634 l 1x28
294 574 m 0xd4
 448 574 522 442 522 280 c 0
 522 118 448 -14 294 -14 c 0
 140 -14 66 118 66 280 c 0
 66 442 140 574 294 574 c 0xd4
294 483 m 0
 217 483 161 406 161 280 c 0
 161 154 217 77 294 77 c 0
 371 77 427 154 427 280 c 0
 427 406 371 483 294 483 c 0
EndSplineSet
EndChar

StartChar: omacron
Encoding: 333 333 248
Width: 504
Flags: MW
HStem: -14 70<224 280 224 304.5> 336 70<224 280> 466 60<119 385 119 385>
VStem: 70 84<154 238 154 259> 119 266<466 526 466 526> 350 84<154 238>
LayerCount: 2
Fore
SplineSet
119 466 m 1x28
 119 526 l 1
 385 526 l 1
 385 466 l 1
 119 466 l 1x28
252 406 m 0xd4
 357 406 434 322 434 196 c 0
 434 70 357 -14 252 -14 c 0
 147 -14 70 70 70 196 c 0
 70 322 147 406 252 406 c 0xd4
252 336 m 0
 196 336 154 280 154 196 c 0
 154 112 196 56 252 56 c 0
 308 56 350 112 350 196 c 0
 350 280 308 336 252 336 c 0
EndSplineSet
EndChar

StartChar: Obreve
Encoding: 334 334 249
Width: 588
Flags: MW
HStem: -14 91<255.5 332.5 255.5 371> 483 91<255.5 332.5> 634 63<269.5 325.5 269.5 346.5>
VStem: 66 95<217 343 217 361> 143.5 70<753 774 753 774> 381.5 63<753 774> 427 95<217 343>
LayerCount: 2
Fore
SplineSet
213.5 774 m 1x2c
 213.5 732 241.5 697 297.5 697 c 0
 353.5 697 381.5 732 381.5 774 c 1
 444.5 774 l 1
 444.5 718 395.5 634 297.5 634 c 0
 199.5 634 143.5 718 143.5 774 c 1
 213.5 774 l 1x2c
294 574 m 0xd2
 448 574 522 442 522 280 c 0
 522 118 448 -14 294 -14 c 0
 140 -14 66 118 66 280 c 0
 66 442 140 574 294 574 c 0xd2
294 483 m 0
 217 483 161 406 161 280 c 0
 161 154 217 77 294 77 c 0
 371 77 427 154 427 280 c 0
 427 406 371 483 294 483 c 0
EndSplineSet
EndChar

StartChar: obreve
Encoding: 335 335 250
Width: 504
Flags: MW
HStem: -14 70<224 280 224 304.5> 336 70<224 280> 466 63<227.5 283.5 227.5 304.5>
VStem: 70 84<154 238 154 259> 101.5 70<585 606 585 606> 339.5 63<585 606> 350 84<154 238>
LayerCount: 2
Fore
SplineSet
171.5 606 m 1x2c
 171.5 564 199.5 529 255.5 529 c 0
 311.5 529 339.5 564 339.5 606 c 1
 402.5 606 l 1
 402.5 550 353.5 466 255.5 466 c 0
 157.5 466 101.5 550 101.5 606 c 1
 171.5 606 l 1x2c
252 406 m 0xd2
 357 406 434 322 434 196 c 0
 434 70 357 -14 252 -14 c 0
 147 -14 70 70 70 196 c 0
 70 322 147 406 252 406 c 0xd2
252 336 m 0
 196 336 154 280 154 196 c 0
 154 112 196 56 252 56 c 0
 308 56 350 112 350 196 c 0
 350 280 308 336 252 336 c 0
EndSplineSet
EndChar

StartChar: Ohungarumlaut
Encoding: 336 336 251
Width: 588
Flags: MW
HStem: -14 91<255.5 332.5 255.5 371> 483 91<255.5 332.5> 634 147<169.5 321.5 169.5 321.5 286.5 286.5 286.5 321.5 230.5 342.5>
VStem: 66 95<217 343 217 361> 169.5 292<634 781> 427 95<217 343>
LayerCount: 2
Fore
SplineSet
230.5 781 m 1x28
 321.5 781 l 1
 220.5 634 l 1
 169.5 634 l 1
 230.5 781 l 1x28
370.5 781 m 1
 461.5 781 l 1
 342.5 634 l 1
 286.5 634 l 1
 370.5 781 l 1
294 574 m 0xd4
 448 574 522 442 522 280 c 0
 522 118 448 -14 294 -14 c 0
 140 -14 66 118 66 280 c 0
 66 442 140 574 294 574 c 0xd4
294 483 m 0
 217 483 161 406 161 280 c 0
 161 154 217 77 294 77 c 0
 371 77 427 154 427 280 c 0
 427 406 371 483 294 483 c 0
EndSplineSet
EndChar

StartChar: ohungarumlaut
Encoding: 337 337 252
Width: 504
Flags: MW
HStem: -14 70<224 280 224 304.5> 336 70<224 280> 466 147<165.5 317.5 165.5 317.5 282.5 282.5 282.5 317.5 226.5 338.5>
VStem: 70 84<154 238 154 259> 165.5 292<466 613> 350 84<154 238>
LayerCount: 2
Fore
SplineSet
226.5 613 m 1x28
 317.5 613 l 1
 216.5 466 l 1
 165.5 466 l 1
 226.5 613 l 1x28
366.5 613 m 1
 457.5 613 l 1
 338.5 466 l 1
 282.5 466 l 1
 366.5 613 l 1
252 406 m 0xd4
 357 406 434 322 434 196 c 0
 434 70 357 -14 252 -14 c 0
 147 -14 70 70 70 196 c 0
 70 322 147 406 252 406 c 0xd4
252 336 m 0
 196 336 154 280 154 196 c 0
 154 112 196 56 252 56 c 0
 308 56 350 112 350 196 c 0
 350 280 308 336 252 336 c 0
EndSplineSet
EndChar

StartChar: OE
Encoding: 338 338 253
Width: 825
Flags: MW
HStem: -14 91<255.5 309> 0 84<482 734 482 734> 252 84<482 678 482 678> 476 84<482 727 482 482> 483 91<255.5 309 217 312>
VStem: 66 95<217 343 217 361> 384 98<124 252 336 436 436 436>
LayerCount: 2
Fore
SplineSet
294 574 m 0xae
 324 574 350 569 374 560 c 1
 727 560 l 1
 727 476 l 1
 482 476 l 1
 482 336 l 1
 678 336 l 1
 678 252 l 1
 482 252 l 1
 482 84 l 1
 734 84 l 1
 734 0 l 1
 374 0 l 1x76
 350 -9 324 -14 294 -14 c 0
 140 -14 66 118 66 280 c 0
 66 442 140 574 294 574 c 0xae
294 483 m 0xae
 217 483 161 406 161 280 c 0
 161 154 217 77 294 77 c 0
 330 77 361 93 384 124 c 1
 384 436 l 1
 361 467 330 483 294 483 c 0xae
EndSplineSet
EndChar

StartChar: oe
Encoding: 339 339 254
Width: 730
Flags: MW
HStem: -14 70 -14 77<479.915 509.5 479.915 516.5> 168 70 336 70
VStem: 70 84<153.999 237.999 153.999 259> 320 84<106.881 168 106.881 237.999 237.999 299.247> 569 91<248.499 262.5 199.5 272.279>
LayerCount: 2
Fore
SplineSet
252 406 m 0xbe
 295.505859375 406 334.193359375 391.563476562 364.59765625 365.70703125 c 1
 397.196289062 390.780273438 438.46484375 406 478 406 c 0
 576 406 660 315 660 210 c 0
 660 189 650.666992188 168 639 168 c 2
 404 168 l 1
 404 106.880859375 l 1
 426.97265625 73.0205078125 467.830078125 63 492 63 c 0
 527 63 548 81 576 116 c 1
 644 77 l 1
 595 14 541 -14 492 -14 c 0x7e
 446.610351562 -14 403.122070312 1.716796875 368.51171875 29.720703125 c 1
 337.547851562 1.708984375 297.395507812 -14 252 -14 c 0
 147 -14 70 70 70 196 c 0
 70 322 147 406 252 406 c 0xbe
480.169921875 336.041015625 m 0
 451.037109375 336.041015625 421.630859375 324.392578125 404 299.247070312 c 1
 404 237.999023438 l 1
 562 237.999023438 l 2
 567 237.999023438 569 244.999023438 569 251.999023438 c 0
 569 292.55859375 520.973632812 336.041015625 480.169921875 336.041015625 c 0
252 335.999023438 m 0
 196 335.999023438 154 279.999023438 154 195.999023438 c 0
 154 111.999023438 196 55.9990234375 252 55.9990234375 c 0xbe
 278.950195312 55.9990234375 302.655273438 68.974609375 320 91.7939453125 c 1
 320 300.204101562 l 1
 302.655273438 323.0234375 278.950195312 335.999023438 252 335.999023438 c 0
EndSplineSet
EndChar

StartChar: Racute
Encoding: 340 340 255
Width: 616
Flags: MW
HStem: 0 21G<98 196 98 98 420 539 420 420> 224 84<196 252 196 259> 476 84<196 196 196 259> 634 147<167 329 167 329>
VStem: 98 98<0 224 0 308 308 476> 167 162<634 781> 364 98<367.5 422>
LayerCount: 2
Fore
SplineSet
238 781 m 1x14
 329 781 l 1
 218 634 l 1
 167 634 l 1
 238 781 l 1x14
98 560 m 1xea
 287 560 l 2
 427 560 462 462 462 406 c 0
 462 329 413 280 357 259 c 1
 448 238 476 28 539 0 c 1
 420 0 l 1
 398.1640625 29.1142578125 380.102539062 88.4990234375 354.03125 138.811523438 c 0
 329.955078125 185.274414062 315 224 252 224 c 2
 196 224 l 1
 196 0 l 1
 98 0 l 1
 98 560 l 1xea
196 476 m 1
 196 308 l 1
 259 308 l 2
 315 308 364 332 364 392 c 0
 364 452 315 476 259 476 c 2
 196 476 l 1
EndSplineSet
EndChar

StartChar: racute
Encoding: 341 341 256
Width: 406
Flags: MW
HStem: 0 21G<84 168 84 84> 315 84<245 269.5> 372 20G<84 156 156 156> 466 147<188 350 188 350>
VStem: 84 72<0 392 392 392> 84 84<0 252 0 392> 188 162<466 613>
LayerCount: 2
Fore
SplineSet
259 613 m 1x12
 350 613 l 1
 239 466 l 1
 188 466 l 1
 259 613 l 1x12
280 399 m 0xc8
 308.775390625 399 324.951171875 398.500976562 343 385 c 1
 315 301 l 1
 301 315 280 315 259 315 c 0
 218.85546875 315 189 294 168 252 c 1
 168 0 l 1
 84 0 l 1xc4
 84 392 l 1
 156 392 l 1xa8
 159.061523438 374.790039062 163.60546875 356.544921875 170 346 c 1
 170 346 210 399 280 399 c 0xc8
EndSplineSet
EndChar

StartChar: Rcommaaccent
Encoding: 342 342 257
Width: 616
Flags: MW
HStem: -268 208<256.5 336.345 256.5 336.345> 0 21G<98 196 98 98 420 539 420 420> 224 84<196 252 196 259> 476 84<196 196 196 259>
VStem: 98 98<0 224 0 308 308 476> 258.5 122<-125.931 -104.155 -125.931 -104.155> 364 98<367.5 422>
LayerCount: 2
Fore
SplineSet
319.5 -60 m 0x84
 353.189453125 -60 380.5 -87.310546875 380.5 -121 c 0
 380.5 -130.862304688 377.255859375 -139.767578125 374 -148.40625 c 0
 368.5 -163 312.5 -254 302.5 -268 c 1
 256.5 -268 l 1
 311.188476562 -181.4375 l 1
 281.43359375 -177.379882812 258.5 -151.8671875 258.5 -121 c 0
 258.5 -87.310546875 285.810546875 -60 319.5 -60 c 0x84
98 560 m 1x7a
 287 560 l 2
 427 560 462 462 462 406 c 0
 462 329 413 280 357 259 c 1
 448 238 476 28 539 0 c 1
 420 0 l 1
 398.1640625 29.1142578125 380.102539062 88.4990234375 354.03125 138.811523438 c 0
 329.955078125 185.274414062 315 224 252 224 c 2
 196 224 l 1
 196 0 l 1
 98 0 l 1
 98 560 l 1x7a
196 476 m 1
 196 308 l 1
 259 308 l 2
 315 308 364 332 364 392 c 0
 364 452 315 476 259 476 c 2
 196 476 l 1
EndSplineSet
EndChar

StartChar: rcommaaccent
Encoding: 343 343 258
Width: 406
Flags: MW
HStem: -268 208<64 143.845 64 143.845> 0 21G<84 168 84 84> 315 84<245 269.5> 372 20G<84 156 156 156>
VStem: 66 122<-125.931 -104.155 -125.931 -104.155> 84 72<0 392 392 392> 84 84<0 252 0 392>
LayerCount: 2
Fore
SplineSet
127 -60 m 0x88
 160.689453125 -60 188 -87.310546875 188 -121 c 0
 188 -130.862304688 184.755859375 -139.767578125 181.5 -148.40625 c 0
 176 -163 120 -254 110 -268 c 1
 64 -268 l 1
 118.688476562 -181.4375 l 1
 88.93359375 -177.379882812 66 -151.8671875 66 -121 c 0
 66 -87.310546875 93.310546875 -60 127 -60 c 0x88
280 399 m 0x64
 308.775390625 399 324.951171875 398.500976562 343 385 c 1
 315 301 l 1
 301 315 280 315 259 315 c 0
 218.85546875 315 189 294 168 252 c 1
 168 0 l 1
 84 0 l 1x62
 84 392 l 1
 156 392 l 1x54
 159.061523438 374.790039062 163.60546875 356.544921875 170 346 c 1
 170 346 210 399 280 399 c 0x64
EndSplineSet
EndChar

StartChar: Rcaron
Encoding: 344 344 259
Width: 616
Flags: MW
HStem: 0 21G<98 196 98 98 420 539 420 420> 224 84<196 252 196 259> 476 84<196 196 196 259> 634 168<36.5 155.5 36.5 229.5>
VStem: 36.5 312<802 802> 98 98<0 224 0 308 308 476> 364 98<367.5 422>
LayerCount: 2
Fore
SplineSet
155.5 634 m 1x18
 36.5 802 l 1
 90.5 802 l 1
 192.5 704 l 1
 294.5 802 l 1
 348.5 802 l 1
 229.5 634 l 1
 155.5 634 l 1x18
98 560 m 1xe6
 287 560 l 2
 427 560 462 462 462 406 c 0
 462 329 413 280 357 259 c 1
 448 238 476 28 539 0 c 1
 420 0 l 1
 398.1640625 29.1142578125 380.102539062 88.4990234375 354.03125 138.811523438 c 0
 329.955078125 185.274414062 315 224 252 224 c 2
 196 224 l 1
 196 0 l 1
 98 0 l 1
 98 560 l 1xe6
196 476 m 1
 196 308 l 1
 259 308 l 2
 315 308 364 332 364 392 c 0
 364 452 315 476 259 476 c 2
 196 476 l 1
EndSplineSet
EndChar

StartChar: rcaron
Encoding: 345 345 260
Width: 406
Flags: MW
HStem: 0 21G<84 168 84 84> 315 84<245 269.5> 372 20G<84 156 156 156> 466 168<57.5 176.5 57.5 250.5>
VStem: 57.5 312<634 634> 84 72<0 392 392 392> 84 84<0 252 0 392>
LayerCount: 2
Fore
SplineSet
176.5 466 m 1x18
 57.5 634 l 1
 111.5 634 l 1
 213.5 536 l 1
 315.5 634 l 1
 369.5 634 l 1
 250.5 466 l 1
 176.5 466 l 1x18
280 399 m 0xc4
 308.775390625 399 324.951171875 398.500976562 343 385 c 1
 315 301 l 1
 301 315 280 315 259 315 c 0
 218.85546875 315 189 294 168 252 c 1
 168 0 l 1
 84 0 l 1xc2
 84 392 l 1
 156 392 l 1xa4
 159.061523438 374.790039062 163.60546875 356.544921875 170 346 c 1
 170 346 210 399 280 399 c 0xc4
EndSplineSet
EndChar

StartChar: Sacute
Encoding: 346 346 261
Width: 588
Flags: MW
HStem: -14 91<259 353.5 259 378> 483 91<280 364> 634 147<296.5 458.5 296.5 458.5>
VStem: 119 98<374.5 413 374.5 448> 296.5 162<634 781> 420.462 104.538
LayerCount: 2
Fore
SplineSet
367.5 781 m 1x28
 458.5 781 l 1
 347.5 634 l 1
 296.5 634 l 1
 367.5 781 l 1x28
88 84 m 1xd4
 157 141 l 1
 157 141 210 77 308 77 c 0
 399 77 420 133 420 154 c 0
 420 157.68359375 420.461914062 162.137695312 420.461914062 167.107421875 c 0
 420.461914062 190.462890625 410.262695312 225.2109375 294 245 c 0
 133 273 119 350 119 399 c 0
 119 497 203 574 322 574 c 0
 420 574 511 497 511 497 c 1
 448 427 l 1
 448 427 406 483 322 483 c 0
 238 483 217 427 217 399 c 0
 217 350 287 338 364 322 c 0
 462 301 525 245 525 161 c 0
 525 91 448 -14 308 -14 c 0
 182 -14 88 84 88 84 c 1xd4
EndSplineSet
EndChar

StartChar: sacute
Encoding: 347 347 262
Width: 455
Flags: MW
HStem: -14 77<217 255.5 217 296.5> 336 70<227.5 269.5> 466 147<219.5 381.5 219.5 381.5>
VStem: 88 90<273.5 301 273.5 312> 219.5 162<466 613> 308 91<106 130.5>
LayerCount: 2
Fore
SplineSet
290.5 613 m 1x28
 381.5 613 l 1
 270.5 466 l 1
 219.5 466 l 1
 290.5 613 l 1x28
62 56 m 1xd4
 117 112 l 1
 147 84 196 63 238 63 c 0
 273 63 308 92 308 120 c 0
 308 141 289 160 214 175 c 0
 103 198 88 249 88 284 c 0
 88 340 152 406 245 406 c 0
 316 406 398 350 398 350 c 1
 343 294 l 1
 329 308 287 336 252 336 c 0
 203 336 178 311 178 291 c 0
 178 256 217 256 266 242 c 0
 355 217 399 192 399 125 c 0
 399 64 348 -14 245 -14 c 0
 133 -14 62 56 62 56 c 1xd4
EndSplineSet
EndChar

StartChar: Scircumflex
Encoding: 348 348 263
Width: 588
Flags: MW
HStem: -14 91<259 353.5 259 378> 483 91<280 364> 634 168<166 359 166 359 285 478 285 424>
VStem: 119 98<374.5 413 374.5 448> 166 312<634 634> 420.462 104.538
LayerCount: 2
Fore
SplineSet
359 802 m 1x28
 478 634 l 1
 424 634 l 1
 322 732 l 1
 220 634 l 1
 166 634 l 1
 285 802 l 1
 359 802 l 1x28
88 84 m 1xd4
 157 141 l 1
 157 141 210 77 308 77 c 0
 399 77 420 133 420 154 c 0
 420 157.68359375 420.461914062 162.137695312 420.461914062 167.107421875 c 0
 420.461914062 190.462890625 410.262695312 225.2109375 294 245 c 0
 133 273 119 350 119 399 c 0
 119 497 203 574 322 574 c 0
 420 574 511 497 511 497 c 1
 448 427 l 1
 448 427 406 483 322 483 c 0
 238 483 217 427 217 399 c 0
 217 350 287 338 364 322 c 0
 462 301 525 245 525 161 c 0
 525 91 448 -14 308 -14 c 0
 182 -14 88 84 88 84 c 1xd4
EndSplineSet
EndChar

StartChar: scircumflex
Encoding: 349 349 264
Width: 455
Flags: MW
HStem: -14 77<217 255.5 217 296.5> 336 70<227.5 269.5> 466 168<89 282 89 282 208 401 208 347>
VStem: 88 90<273.5 301 273.5 312> 89 312<466 466> 308 91<106 130.5>
LayerCount: 2
Fore
SplineSet
282 634 m 1x28
 401 466 l 1
 347 466 l 1
 245 564 l 1
 143 466 l 1
 89 466 l 1
 208 634 l 1
 282 634 l 1x28
62 56 m 1xd4
 117 112 l 1
 147 84 196 63 238 63 c 0
 273 63 308 92 308 120 c 0
 308 141 289 160 214 175 c 0
 103 198 88 249 88 284 c 0
 88 340 152 406 245 406 c 0
 316 406 398 350 398 350 c 1
 343 294 l 1
 329 308 287 336 252 336 c 0
 203 336 178 311 178 291 c 0
 178 256 217 256 266 242 c 0
 355 217 399 192 399 125 c 0
 399 64 348 -14 245 -14 c 0
 133 -14 62 56 62 56 c 1xd4
EndSplineSet
EndChar

StartChar: Scaron
Encoding: 352 352 265
Width: 588
Flags: MW
HStem: -14 91<259 353.5 259 378> 483 91<280 364> 634 168<166 285 166 359>
VStem: 119 98<374.5 413 374.5 448> 166 312<802 802> 420.462 104.538
LayerCount: 2
Fore
SplineSet
285 634 m 1x28
 166 802 l 1
 220 802 l 1
 322 704 l 1
 424 802 l 1
 478 802 l 1
 359 634 l 1
 285 634 l 1x28
88 84 m 1xd4
 157 141 l 1
 157 141 210 77 308 77 c 0
 399 77 420 133 420 154 c 0
 420 157.68359375 420.461914062 162.137695312 420.461914062 167.107421875 c 0
 420.461914062 190.462890625 410.262695312 225.2109375 294 245 c 0
 133 273 119 350 119 399 c 0
 119 497 203 574 322 574 c 0
 420 574 511 497 511 497 c 1
 448 427 l 1
 448 427 406 483 322 483 c 0
 238 483 217 427 217 399 c 0
 217 350 287 338 364 322 c 0
 462 301 525 245 525 161 c 0
 525 91 448 -14 308 -14 c 0
 182 -14 88 84 88 84 c 1xd4
EndSplineSet
EndChar

StartChar: scaron
Encoding: 353 353 266
Width: 455
Flags: MW
HStem: -14 77<217 255.5 217 296.5> 336 70<227.5 269.5> 466 168<89 208 89 282>
VStem: 88 90<273.5 301 273.5 312> 89 312<634 634> 308 91<106 130.5>
LayerCount: 2
Fore
SplineSet
208 466 m 1x28
 89 634 l 1
 143 634 l 1
 245 536 l 1
 347 634 l 1
 401 634 l 1
 282 466 l 1
 208 466 l 1x28
62 56 m 1xd4
 117 112 l 1
 147 84 196 63 238 63 c 0
 273 63 308 92 308 120 c 0
 308 141 289 160 214 175 c 0
 103 198 88 249 88 284 c 0
 88 340 152 406 245 406 c 0
 316 406 398 350 398 350 c 1
 343 294 l 1
 329 308 287 336 252 336 c 0
 203 336 178 311 178 291 c 0
 178 256 217 256 266 242 c 0
 355 217 399 192 399 125 c 0
 399 64 348 -14 245 -14 c 0
 133 -14 62 56 62 56 c 1xd4
EndSplineSet
EndChar

StartChar: Tcaron
Encoding: 356 356 267
Width: 532
Flags: MW
HStem: 0 21G<217 315 217 217> 476 84<63 217 63 469 315 469 315 315> 634 168<110 229 110 303>
VStem: 110 312<802 802> 217 98<0 476 0 476>
LayerCount: 2
Fore
SplineSet
229 634 m 1x30
 110 802 l 1
 164 802 l 1
 266 704 l 1
 368 802 l 1
 422 802 l 1
 303 634 l 1
 229 634 l 1x30
63 560 m 1xc8
 469 560 l 1
 469 476 l 1
 315 476 l 1
 315 0 l 1
 217 0 l 1
 217 476 l 1
 63 476 l 1
 63 560 l 1xc8
EndSplineSet
EndChar

StartChar: tcaron
Encoding: 357 357 268
Width: 392
Flags: MW
HStem: -7 76.9626 315 77<63 119 63 119 203 315> 448 112<291.5 310.5> 540 20G<203 203 291.5 314>
VStem: 119 84<98 112 112 315 392 525 525 525> 328 38<445 452 452 452>
LayerCount: 2
Fore
SplineSet
307 560 m 0x24
 321 560 334 554 344 546 c 0
 350 541 366 527 366 478 c 0
 366 408 291 366 291 366 c 1
 284 383 l 1
 284 383 328 410 328 445 c 2
 328 452 l 1
 322 449 314 448 307 448 c 0
 276 448 251 473 251 504 c 0
 251 535 276 560 307 560 c 0x24
203 560 m 1xd8
 203 392 l 1
 315 392 l 1
 315 315 l 1
 203 315 l 1
 203 112 l 2
 203 84 231.008789062 70.6220703125 252 70 c 0
 252.84765625 69.974609375 253.704101562 69.962890625 254.569335938 69.962890625 c 0
 275.66796875 69.962890625 301.432617188 77.275390625 312 84 c 1
 329 7 l 1
 308 0 259 -7 245 -7 c 0
 174.282226562 -7 119 21 119 91 c 2
 119 315 l 1
 63 315 l 1
 63 392 l 1
 119 392 l 1
 119 525 l 1
 203 560 l 1xd8
EndSplineSet
EndChar

StartChar: Utilde
Encoding: 360 360 269
Width: 588
Flags: MW
HStem: -7 77<273 315 273 392> 540 20G<91 189 189 189 399 497 497 497> 634 58<335.5 363.5 335.5 367.5> 685 59<217.5 245.5>
VStem: 91 98<182 560> 147.5 293<690 697> 399 98<178.5 182 182 560>
LayerCount: 2
Fore
SplineSet
147.5 690 m 1x14
 147.5 690 192.5 744 234.5 744 c 0x14
 276.5 744 321.5 692 349.5 692 c 0
 377.5 692 402.5 721 409.5 728 c 1
 440.5 697 l 1
 433.5 690 388.5 634 346.5 634 c 0x24
 304.5 634 259.5 685 231.5 685 c 0
 203.5 685 185.5 666 178.5 659 c 1
 147.5 690 l 1x14
91 560 m 1xca
 189 560 l 1
 189 175 l 2
 189 98 252 70 294 70 c 0
 336 70 399 98 399 175 c 2
 399 560 l 1
 497 560 l 1
 497 182 l 2
 497 175 490 -7 294 -7 c 0
 98 -7 91 175 91 182 c 2
 91 560 l 1xca
EndSplineSet
EndChar

StartChar: utilde
Encoding: 361 361 270
Width: 469
Flags: MW
HStem: -7 70<210 245> 0 20G 371 21G 466 58<293.5 321.5 293.5 325.5> 517 59<175.5 203.5>
VStem: 91 84<112 119 119 392> 105.5 293<522 529> 329 84<140 392 0 392> 341 72<0 392>
LayerCount: 2
Fore
SplineSet
105.5 522 m 1x0a
 105.5 522 150.5 576 192.5 576 c 0x0a
 234.5 576 279.5 524 307.5 524 c 0
 335.5 524 360.5 553 367.5 560 c 1
 398.5 529 l 1
 391.5 522 346.5 466 304.5 466 c 0x12
 262.5 466 217.5 517 189.5 517 c 0
 161.5 517 143.5 498 136.5 491 c 1
 105.5 522 l 1x0a
210 -7 m 0x00
 133 -7 91 42 91 112 c 2
 91 392 l 1
 175 392 l 1
 175 119 l 2
 175 98 189 63 231 63 c 0
 271.14453125 63 308 98 329 140 c 1
 329 392 l 1
 413 392 l 1
 413 0 l 1
 341 0 l 1
 337.938476562 17.2099609375 333.39453125 35.455078125 327 46 c 1
 327 46 280 -7 210 -7 c 0x00
EndSplineSet
EndChar

StartChar: Umacron
Encoding: 362 362 271
Width: 588
Flags: MW
HStem: -7 77<273 315 273 392> 540 20G<91 189 189 189 399 497 497 497> 634 60<161 427 161 427>
VStem: 91 98<182 560> 161 266<634 694 634 694> 399 98<178.5 182 182 560>
LayerCount: 2
Fore
SplineSet
161 634 m 1x28
 161 694 l 1
 427 694 l 1
 427 634 l 1
 161 634 l 1x28
91 560 m 1xd4
 189 560 l 1
 189 175 l 2
 189 98 252 70 294 70 c 0
 336 70 399 98 399 175 c 2
 399 560 l 1
 497 560 l 1
 497 182 l 2
 497 175 490 -7 294 -7 c 0
 98 -7 91 175 91 182 c 2
 91 560 l 1xd4
EndSplineSet
EndChar

StartChar: umacron
Encoding: 363 363 272
Width: 469
Flags: MW
HStem: -7 70<210 245> 0 20G 371 21G 466 60<119 385 119 385>
VStem: 91 84<112 119 119 392> 119 266<466 526 466 526> 329 84<140 392 0 392> 341 72<0 392>
LayerCount: 2
Fore
SplineSet
119 466 m 1x14
 119 526 l 1
 385 526 l 1
 385 466 l 1
 119 466 l 1x14
210 -7 m 0x00
 133 -7 91 42 91 112 c 2
 91 392 l 1
 175 392 l 1
 175 119 l 2
 175 98 189 63 231 63 c 0
 271.14453125 63 308 98 329 140 c 1
 329 392 l 1
 413 392 l 1
 413 0 l 1
 341 0 l 1
 337.938476562 17.2099609375 333.39453125 35.455078125 327 46 c 1
 327 46 280 -7 210 -7 c 0x00
EndSplineSet
EndChar

StartChar: Ubreve
Encoding: 364 364 273
Width: 588
Flags: MW
HStem: -7 77<273 315 273 392> 540 20G<91 189 189 189 399 497 497 497> 634 63<269.5 325.5 269.5 346.5>
VStem: 91 98<182 560> 143.5 70<753 774 753 774> 381.5 63<753 774> 399 98<178.5 182 182 560>
LayerCount: 2
Fore
SplineSet
213.5 774 m 1x2c
 213.5 732 241.5 697 297.5 697 c 0
 353.5 697 381.5 732 381.5 774 c 1
 444.5 774 l 1
 444.5 718 395.5 634 297.5 634 c 0
 199.5 634 143.5 718 143.5 774 c 1
 213.5 774 l 1x2c
91 560 m 1xd2
 189 560 l 1
 189 175 l 2
 189 98 252 70 294 70 c 0
 336 70 399 98 399 175 c 2
 399 560 l 1
 497 560 l 1
 497 182 l 2
 497 175 490 -7 294 -7 c 0
 98 -7 91 175 91 182 c 2
 91 560 l 1xd2
EndSplineSet
EndChar

StartChar: ubreve
Encoding: 365 365 274
Width: 469
Flags: MW
HStem: -7 70<210 245> 0 20G 371 21G 466 63<227.5 283.5 227.5 304.5>
VStem: 91 84<112 119 119 392> 101.5 70<585 606 585 606> 329 84<140 392 0 392> 339.5 63<585 606> 341 72<0 392>
LayerCount: 2
Fore
SplineSet
171.5 606 m 1x15
 171.5 564 199.5 529 255.5 529 c 0
 311.5 529 339.5 564 339.5 606 c 1
 402.5 606 l 1
 402.5 550 353.5 466 255.5 466 c 0
 157.5 466 101.5 550 101.5 606 c 1
 171.5 606 l 1x15
210 -7 m 0x00
 133 -7 91 42 91 112 c 2
 91 392 l 1
 175 392 l 1
 175 119 l 2
 175 98 189 63 231 63 c 0
 271.14453125 63 308 98 329 140 c 1
 329 392 l 1
 413 392 l 1
 413 0 l 1
 341 0 l 1
 337.938476562 17.2099609375 333.39453125 35.455078125 327 46 c 1
 327 46 280 -7 210 -7 c 0x00
EndSplineSet
EndChar

StartChar: Uring
Encoding: 366 366 275
Width: 588
Flags: MW
HStem: -7 77<273 315 273 392> 540 20G<91 189 189 189 399 497 497 497> 634 40<282.5 305.5 282.5 316.5> 756 40<282.5 305.5>
VStem: 91 98<182 560> 213 40<703.5 726.5 703.5 737.5> 335 40<703.5 726.5> 399 98<178.5 182 182 560>
LayerCount: 2
Fore
SplineSet
375 715 m 0
 375 670 339 634 294 634 c 0
 249 634 213 670 213 715 c 0
 213 760 249 796 294 796 c 0
 339 796 375 760 375 715 c 0
335 715 m 0
 335 738 317 756 294 756 c 0
 271 756 253 738 253 715 c 0
 253 692 271 674 294 674 c 0
 317 674 335 692 335 715 c 0
91 560 m 1
 189 560 l 1
 189 175 l 2
 189 98 252 70 294 70 c 0
 336 70 399 98 399 175 c 2
 399 560 l 1
 497 560 l 1
 497 182 l 2
 497 175 490 -7 294 -7 c 0
 98 -7 91 175 91 182 c 2
 91 560 l 1
EndSplineSet
EndChar

StartChar: uring
Encoding: 367 367 276
Width: 469
Flags: MW
HStem: -7 70<210 245> 0 20G 371 21G 466 40<240.5 263.5 240.5 274.5> 588 40<240.5 263.5>
VStem: 91 84<112 119 119 392> 171 40<535.5 558.5 535.5 569.5> 293 40<535.5 558.5> 329 84<140 392 0 392> 341 72<0 392>
LayerCount: 2
Fore
SplineSet
333 547 m 0x1b
 333 502 297 466 252 466 c 0
 207 466 171 502 171 547 c 0
 171 592 207 628 252 628 c 0
 297 628 333 592 333 547 c 0x1b
293 547 m 0
 293 570 275 588 252 588 c 0
 229 588 211 570 211 547 c 0
 211 524 229 506 252 506 c 0
 275 506 293 524 293 547 c 0
210 -7 m 0x00
 133 -7 91 42 91 112 c 2
 91 392 l 1
 175 392 l 1
 175 119 l 2
 175 98 189 63 231 63 c 0
 271.14453125 63 308 98 329 140 c 1
 329 392 l 1
 413 392 l 1
 413 0 l 1
 341 0 l 1
 337.938476562 17.2099609375 333.39453125 35.455078125 327 46 c 1
 327 46 280 -7 210 -7 c 0x00
EndSplineSet
EndChar

StartChar: Uhungarumlaut
Encoding: 368 368 277
Width: 588
Flags: MW
HStem: -7 77<273 315 273 392> 540 20G<91 189 189 189 399 497 497 497> 634 147<207.5 359.5 207.5 359.5 324.5 324.5 324.5 359.5 268.5 380.5>
VStem: 91 98<182 560> 207.5 292<634 781> 399 98<178.5 182 182 560>
LayerCount: 2
Fore
SplineSet
268.5 781 m 1x28
 359.5 781 l 1
 258.5 634 l 1
 207.5 634 l 1
 268.5 781 l 1x28
408.5 781 m 1
 499.5 781 l 1
 380.5 634 l 1
 324.5 634 l 1
 408.5 781 l 1
91 560 m 1xd4
 189 560 l 1
 189 175 l 2
 189 98 252 70 294 70 c 0
 336 70 399 98 399 175 c 2
 399 560 l 1
 497 560 l 1
 497 182 l 2
 497 175 490 -7 294 -7 c 0
 98 -7 91 175 91 182 c 2
 91 560 l 1xd4
EndSplineSet
EndChar

StartChar: uhungarumlaut
Encoding: 369 369 278
Width: 469
Flags: MW
HStem: -7 70<210 245> 0 20G 371 21G 466 147<165.5 317.5 165.5 317.5 282.5 282.5 282.5 317.5 226.5 338.5>
VStem: 91 84<112 119 119 392> 165.5 292<466 613> 329 84<140 392 0 392> 341 72<0 392>
LayerCount: 2
Fore
SplineSet
226.5 613 m 1x14
 317.5 613 l 1
 216.5 466 l 1
 165.5 466 l 1
 226.5 613 l 1x14
366.5 613 m 1
 457.5 613 l 1
 338.5 466 l 1
 282.5 466 l 1
 366.5 613 l 1
210 -7 m 0x00
 133 -7 91 42 91 112 c 2
 91 392 l 1
 175 392 l 1
 175 119 l 2
 175 98 189 63 231 63 c 0
 271.14453125 63 308 98 329 140 c 1
 329 392 l 1
 413 392 l 1
 413 0 l 1
 341 0 l 1
 337.938476562 17.2099609375 333.39453125 35.455078125 327 46 c 1
 327 46 280 -7 210 -7 c 0x00
EndSplineSet
EndChar

StartChar: Uogonek
Encoding: 370 370 279
Width: 588
Flags: MW
HStem: -223.1 53 -26.1 20G -7 77<273 315 273 392> 540 20G<91 189 189 189 399 497 497 497>
VStem: 91 98<182 560> 179 63<-146.1 -100.6 -146.1 -93.5996> 399 98<178.5 182 182 560>
LayerCount: 2
Fore
SplineSet
319 -6.099609375 m 1x04
 333 -48.099609375 l 1
 333 -48.099609375 242 -76.099609375 242 -125.099609375 c 0
 242 -167.099609375 277 -170.099609375 298 -170.099609375 c 0
 319 -170.099609375 361 -146.099609375 361 -146.099609375 c 1
 375 -181.099609375 l 1
 375 -181.099609375 340 -223.099609375 277 -223.099609375 c 0
 214 -223.099609375 179 -181.099609375 179 -132.099609375 c 0
 179 -55.099609375 284 -20.099609375 319 -6.099609375 c 1x04
91 560 m 1x3a
 189 560 l 1
 189 175 l 2
 189 98 252 70 294 70 c 0
 336 70 399 98 399 175 c 2
 399 560 l 1
 497 560 l 1
 497 182 l 2
 497 175 490 -7 294 -7 c 0
 98 -7 91 175 91 182 c 2
 91 560 l 1x3a
EndSplineSet
EndChar

StartChar: uogonek
Encoding: 371 371 280
Width: 469
Flags: MW
HStem: -216.767 53 -19.7667 20G -7 70<210 245> 0 20G 371 21G
VStem: 91 84<112 119 119 392> 273 63<-139.767 -94.2666 -139.767 -87.2666> 329 84<140 392 0 392> 341 72<0 392>
LayerCount: 2
Fore
SplineSet
413 0.2333984375 m 1x02
 427 -41.7666015625 l 1
 427 -41.7666015625 336 -69.7666015625 336 -118.766601562 c 0
 336 -160.766601562 371 -163.766601562 392 -163.766601562 c 0
 413 -163.766601562 455 -139.766601562 455 -139.766601562 c 1
 469 -174.766601562 l 1
 469 -174.766601562 434 -216.766601562 371 -216.766601562 c 0
 308 -216.766601562 273 -174.766601562 273 -125.766601562 c 0
 273 -48.7666015625 378 -13.7666015625 413 0.2333984375 c 1x02
210 -7 m 0x00
 133 -7 91 42 91 112 c 2
 91 392 l 1
 175 392 l 1
 175 119 l 2
 175 98 189 63 231 63 c 0
 271.14453125 63 308 98 329 140 c 1
 329 392 l 1
 413 392 l 1
 413 0 l 1
 341 0 l 1
 337.938476562 17.2099609375 333.39453125 35.455078125 327 46 c 1
 327 46 280 -7 210 -7 c 0x00
EndSplineSet
EndChar

StartChar: Wcircumflex
Encoding: 372 372 281
Width: 812
Flags: MW
HStem: 0 21G<203 315 203 203 497 609 497 497> 540 20G<84 189 189 189 357 455 455 455 623 728 728 728> 634 168<250 443 250 443 369 562 369 508>
VStem: 250 312<634 634>
LayerCount: 2
Fore
SplineSet
443 802 m 1
 562 634 l 1
 508 634 l 1
 406 732 l 1
 304 634 l 1
 250 634 l 1
 369 802 l 1
 443 802 l 1
189 560 m 1
 267 169 l 1
 273 169 l 1
 357 560 l 1
 455 560 l 1
 546 163 l 1
 623 560 l 1
 728 560 l 1
 609 0 l 1
 497 0 l 1
 406 369 l 1
 315 0 l 1
 203 0 l 1
 84 560 l 1
 189 560 l 1
EndSplineSet
EndChar

StartChar: wcircumflex
Encoding: 373 373 282
Width: 679
Flags: MW
HStem: 0 21G<175 175 175 273 399 399 399 497> 372 20G<63 157 157 157 294 385 385 385 522 616 616 616> 466 168<183.5 376.5 183.5 376.5 302.5 495.5 302.5 441.5>
VStem: 183.5 312<466 466>
LayerCount: 2
Fore
SplineSet
376.5 634 m 1
 495.5 466 l 1
 441.5 466 l 1
 339.5 564 l 1
 237.5 466 l 1
 183.5 466 l 1
 302.5 634 l 1
 376.5 634 l 1
175 0 m 1
 63 392 l 1
 157 392 l 1
 228 126 l 1
 294 392 l 1
 385 392 l 1
 451 126 l 1
 522 392 l 1
 616 392 l 1
 497 0 l 1
 399 0 l 1
 336 252 l 1
 273 0 l 1
 175 0 l 1
EndSplineSet
EndChar

StartChar: Ycircumflex
Encoding: 374 374 283
Width: 588
Flags: MW
HStem: 0 21G<245 245 245 343> 540 20G<70 182 182 182 406 518 518 518> 634 168<138 331 138 331 257 450 257 396>
VStem: 138 312<634 634> 245 98<0 224 0 224>
LayerCount: 2
Fore
SplineSet
331 802 m 1x30
 450 634 l 1
 396 634 l 1
 294 732 l 1
 192 634 l 1
 138 634 l 1
 257 802 l 1
 331 802 l 1x30
245 0 m 1xc8
 245 224 l 1
 70 560 l 1
 182 560 l 1
 294 329 l 1
 406 560 l 1
 518 560 l 1
 343 224 l 1
 343 0 l 1
 245 0 l 1xc8
EndSplineSet
EndChar

StartChar: ycircumflex
Encoding: 375 375 284
Width: 490
Flags: MW
HStem: -168 75.64 372 20G<56 154 154 154 315 413 413 413> 466 168<78.5 271.5 78.5 271.5 197.5 390.5 197.5 336.5>
VStem: 78.5 312<466 466>
LayerCount: 2
Fore
SplineSet
271.5 634 m 1
 390.5 466 l 1
 336.5 466 l 1
 234.5 564 l 1
 132.5 466 l 1
 78.5 466 l 1
 197.5 634 l 1
 271.5 634 l 1
84 -84 m 1
 96.1123046875 -89.8037109375 106.950195312 -92.3603515625 116.66015625 -92.3603515625 c 0
 145.4296875 -92.3603515625 164.290039062 -69.916015625 177 -43 c 0
 183 -29 187 -14 191 0 c 1
 56 392 l 1
 154 392 l 1
 238 156 l 1
 315 392 l 1
 413 392 l 1
 252 -91 l 1
 231 -140 182 -168 140 -168 c 0
 112 -168 94 -165 70 -161 c 1
 84 -84 l 1
EndSplineSet
EndChar

StartChar: Ydieresis
Encoding: 376 376 285
Width: 588
Flags: MW
HStem: 0 21G<245 245 245 343> 540 20G<70 182 182 182 406 518 518 518> 625 122<186.164 219.836 370.164 403.836>
VStem: 142 122<669.164 702.836> 245 98<0 224 0 224> 326 122<669.164 702.836>
LayerCount: 2
Fore
SplineSet
448 686 m 0x34
 448 652.328125 420.671875 625 387 625 c 0
 353.328125 625 326 652.328125 326 686 c 0
 326 719.671875 353.328125 747 387 747 c 0
 420.671875 747 448 719.671875 448 686 c 0x34
264 686 m 0
 264 652.328125 236.671875 625 203 625 c 0
 169.328125 625 142 652.328125 142 686 c 0
 142 719.671875 169.328125 747 203 747 c 0
 236.671875 747 264 719.671875 264 686 c 0
245 0 m 1xc8
 245 224 l 1
 70 560 l 1
 182 560 l 1
 294 329 l 1
 406 560 l 1
 518 560 l 1
 343 224 l 1
 343 0 l 1
 245 0 l 1xc8
EndSplineSet
EndChar

StartChar: Zacute
Encoding: 377 377 286
Width: 560
Flags: MW
HStem: 0 84<210 469 210 469> 476 84<98 343 98 462> 634 147<254.5 416.5 254.5 416.5>
VStem: 254.5 162<634 781>
LayerCount: 2
Fore
SplineSet
325.5 781 m 1
 416.5 781 l 1
 305.5 634 l 1
 254.5 634 l 1
 325.5 781 l 1
91 0 m 1
 91 91 l 1
 343 476 l 1
 98 476 l 1
 98 560 l 1
 462 560 l 1
 462 469 l 1
 210 84 l 1
 469 84 l 1
 469 0 l 1
 91 0 l 1
EndSplineSet
EndChar

StartChar: zacute
Encoding: 378 378 287
Width: 467
Flags: MW
HStem: 0 77<98 98 203 385> 315 77<98 280 98 378> 466 147<212.5 374.5 212.5 374.5>
VStem: 98 287<0 77 0 77 0 392> 212.5 162<466 613>
LayerCount: 2
Fore
SplineSet
283.5 613 m 1x28
 374.5 613 l 1
 263.5 466 l 1
 212.5 466 l 1
 283.5 613 l 1x28
98 0 m 1xd0
 98 77 l 1
 280 315 l 1
 98 315 l 1
 98 392 l 1
 378 392 l 1
 378 308 l 1
 203 77 l 1
 385 77 l 1
 385 0 l 1
 98 0 l 1xd0
EndSplineSet
EndChar

StartChar: Zdotaccent
Encoding: 379 379 288
Width: 560
Flags: MW
HStem: 0 84<210 469 210 469> 476 84<98 343 98 462> 634 122<263.164 296.836>
VStem: 219 122<678.164 711.836>
LayerCount: 2
Fore
SplineSet
341 695 m 0
 341 661.328125 313.671875 634 280 634 c 0
 246.328125 634 219 661.328125 219 695 c 0
 219 728.671875 246.328125 756 280 756 c 0
 313.671875 756 341 728.671875 341 695 c 0
91 0 m 1
 91 91 l 1
 343 476 l 1
 98 476 l 1
 98 560 l 1
 462 560 l 1
 462 469 l 1
 210 84 l 1
 469 84 l 1
 469 0 l 1
 91 0 l 1
EndSplineSet
EndChar

StartChar: zdotaccent
Encoding: 380 380 289
Width: 467
Flags: MW
HStem: 0 77<98 98 203 385> 315 77<98 280 98 378> 466 122<221.164 254.836>
VStem: 98 287<0 77 0 77 0 392> 177 122<510.164 543.836>
LayerCount: 2
Fore
SplineSet
299 527 m 0x28
 299 493.328125 271.671875 466 238 466 c 0
 204.328125 466 177 493.328125 177 527 c 0
 177 560.671875 204.328125 588 238 588 c 0
 271.671875 588 299 560.671875 299 527 c 0x28
98 0 m 1xd0
 98 77 l 1
 280 315 l 1
 98 315 l 1
 98 392 l 1
 378 392 l 1
 378 308 l 1
 203 77 l 1
 385 77 l 1
 385 0 l 1
 98 0 l 1xd0
EndSplineSet
EndChar

StartChar: Zcaron
Encoding: 381 381 290
Width: 560
Flags: MW
HStem: 0 84<210 469 210 469> 476 84<98 343 98 462> 634 168<124 243 124 317>
VStem: 124 312<802 802>
LayerCount: 2
Fore
SplineSet
243 634 m 1
 124 802 l 1
 178 802 l 1
 280 704 l 1
 382 802 l 1
 436 802 l 1
 317 634 l 1
 243 634 l 1
91 0 m 1
 91 91 l 1
 343 476 l 1
 98 476 l 1
 98 560 l 1
 462 560 l 1
 462 469 l 1
 210 84 l 1
 469 84 l 1
 469 0 l 1
 91 0 l 1
EndSplineSet
EndChar

StartChar: zcaron
Encoding: 382 382 291
Width: 467
Flags: MW
HStem: 0 77<98 98 203 385> 315 77<98 280 98 378> 466 168<82 201 82 275>
VStem: 82 312<634 634> 98 287<0 77 0 77 0 392>
LayerCount: 2
Fore
SplineSet
201 466 m 1x30
 82 634 l 1
 136 634 l 1
 238 536 l 1
 340 634 l 1
 394 634 l 1
 275 466 l 1
 201 466 l 1x30
98 0 m 1xc8
 98 77 l 1
 280 315 l 1
 98 315 l 1
 98 392 l 1
 378 392 l 1
 378 308 l 1
 203 77 l 1
 385 77 l 1
 385 0 l 1
 98 0 l 1xc8
EndSplineSet
EndChar

StartChar: uni0182
Encoding: 386 386 292
Width: 567
Flags: MW
HStem: 0 84<189 287 287 294> 252 84<189 287 189 308> 476 84<189 448 189 189>
VStem: 91 98<84 84 84 252 336 476> 392 98<140 196>
LayerCount: 2
Fore
SplineSet
91 0 m 1
 91 560 l 1
 448 560 l 1
 448 476 l 1
 189 476 l 1
 189 336 l 1
 308 336 l 2
 448 336 490 238 490 168 c 0
 490 98 434 0 294 0 c 2
 91 0 l 1
189 84 m 1
 287 84 l 2
 350 84 392 112 392 168 c 0
 392 224 350 252 287 252 c 2
 189 252 l 1
 189 84 l 1
EndSplineSet
EndChar

StartChar: uni0186
Encoding: 390 390 293
Width: 560
Flags: MW
HStem: -14 91<243.042 307.5 243.042 346> 483 91<243.042 307.5>
VStem: 402 95<217 343>
LayerCount: 2
Fore
SplineSet
269 574 m 0
 162.609375 574 101 511 66 420 c 1
 160 385 l 1
 181 455 217.083007812 483 269 483 c 0
 346 483 402 406 402 280 c 0
 402 154 346 77 269 77 c 0
 217.083007812 77 181 105 160 175 c 1
 66 140 l 1
 101 49 162.609375 -14 269 -14 c 0
 423 -14 497 117.627929688 497 280 c 0
 497 442.372070312 423 574 269 574 c 0
EndSplineSet
EndChar

StartChar: uni018B
Encoding: 395 395 294
Width: 567
Flags: MW
HStem: 0 84<287 294 294 392> 252 84<294 392> 476 84<133 392 392 392>
VStem: 91 98<140 196 140 203> 392 98<84 84 84 252 336 476 336 336>
LayerCount: 2
Fore
SplineSet
490 0 m 1
 490 560 l 1
 133 560 l 1
 133 476 l 1
 392 476 l 1
 392 336 l 1
 273 336 l 2
 133 336 91 238 91 168 c 0
 91 98 147 0 287 0 c 2
 490 0 l 1
392 84 m 1
 294 84 l 2
 231 84 189 112 189 168 c 0
 189 224 231 252 294 252 c 2
 392 252 l 1
 392 84 l 1
EndSplineSet
EndChar

StartChar: uni018E
Encoding: 398 398 295
Width: 539
Flags: MW
HStem: 0 84<91 350 91 448 91 350> 252 84<147 350 147 350> 469 91<98 350 98 448>
VStem: 350 98<84 252 252 252 336 469 469 469>
LayerCount: 2
Fore
SplineSet
448 0 m 1
 91 0 l 1
 91 84 l 1
 350 84 l 1
 350 252 l 1
 147 252 l 1
 147 336 l 1
 350 336 l 1
 350 469 l 1
 98 469 l 1
 98 560 l 1
 448 560 l 1
 448 0 l 1
EndSplineSet
EndChar

StartChar: uni018F
Encoding: 399 399 296
Width: 588
Flags: MW
HStem: -14 91<260.78 327.22 260.78 371> 231 70<164.076 164.076 164.076 423.924> 399.887 21G 483 91<269.981 330.311>
VStem: 423.924 98.0762
LayerCount: 2
Fore
SplineSet
294 574 m 0
 448 574 522 442.372070312 522 280 c 0
 522 117.627929688 448 -14 294 -14 c 0
 140 -14 66 117.627929688 66 280 c 0
 66 287.0625 66.1494140625 294.0625 66.4296875 301 c 1
 426.453125 301 l 1
 420.5546875 414.497070312 366.622070312 483 294 483 c 0
 245.961914062 483 206.098632812 453.02734375 182.90625 399.88671875 c 1
 93.958984375 436.0546875 l 1
 128.25 518.907226562 194.379882812 574 294 574 c 0
164.076171875 231 m 1
 176.762695312 134.333007812 227.560546875 77 294 77 c 0
 360.439453125 77 411.237304688 134.333007812 423.923828125 231 c 1
 164.076171875 231 l 1
EndSplineSet
EndChar

StartChar: uni0190
Encoding: 400 400 297
Width: 524
Flags: MW
HStem: -14 91<228 308.5 228 322.5> 252 84<242 305 214 305> 483 91<217.5 305>
VStem: 57 100<136.5 189 136.5 215.5> 76 91<395.5 416.5 395.5 462>
LayerCount: 2
Fore
SplineSet
305 252 m 1xe0
 305 336 l 1
 242 336 l 2
 186 336 167 385 167 406 c 0
 167 427 179 483 256 483 c 0
 354 483 396 429 396 429 c 1
 449 511 l 1
 449 511 368 574 256 574 c 0
 143 574 76 504 76 420 c 0
 76 315 172 294 172 294 c 1
 172 294 57 277 57 154 c 0
 57 88 123 -14 263 -14 c 0
 382 -14 469 61 469 61 c 1
 410 140 l 1
 410 140 361 77 256 77 c 0
 200 77 157 112 157 161 c 0
 157 217 193 252 242 252 c 2
 305 252 l 1xe0
EndSplineSet
EndChar

StartChar: uni019F
Encoding: 415 415 298
Width: 588
Flags: MW
HStem: -14 91<258.5 329.5 258.5 371> 252 70<162 425 163 425 163 426> 483 91<260 328>
VStem: 66 96<252 252 252 361> 426 96<252 252>
LayerCount: 2
Fore
SplineSet
66 280 m 0
 66 442 140 574 294 574 c 0
 446 574 522 446 522 280 c 0
 522 118 448 -14 294 -14 c 0
 140 -14 66 118 66 280 c 0
163 322 m 1
 425 322 l 1
 414 423 362 483 294 483 c 0
 226 483 174 423 163 322 c 1
162 252 m 1
 170 143 223 77 294 77 c 0
 365 77 418 143 426 252 c 1
 162 252 l 1
EndSplineSet
EndChar

StartChar: uni01A7
Encoding: 423 423 299
Width: 588
Flags: MW
HStem: -14 91<259.5 354 259.5 368> 483 91<249 333>
VStem: 88 104.538 396 98<374.5 413>
LayerCount: 2
Fore
SplineSet
525 84 m 1
 456 141 l 1
 456 141 403 77 305 77 c 0
 214 77 193 133 193 154 c 0
 193 157.68359375 192.538085938 162.137695312 192.538085938 167.107421875 c 0
 192.538085938 190.462890625 202.737304688 225.2109375 319 245 c 0
 480 273 494 350 494 399 c 0
 494 497 410 574 291 574 c 0
 193 574 102 497 102 497 c 1
 165 427 l 1
 165 427 207 483 291 483 c 0
 375 483 396 427 396 399 c 0
 396 350 326 338 249 322 c 0
 151 301 88 245 88 161 c 0
 88 91 165 -14 305 -14 c 0
 431 -14 525 84 525 84 c 1
EndSplineSet
EndChar

StartChar: uni01A8
Encoding: 424 424 300
Width: 455
Flags: MW
HStem: -14 77<205.5 244 205.5 272> 336 70<191.5 233.5>
VStem: 62 91<106 130.5 106 158.5> 283 90<273.5 301>
LayerCount: 2
Fore
SplineSet
399 56 m 1
 344 112 l 1
 314 84 265 63 223 63 c 0
 188 63 153 92 153 120 c 0
 153 141 172 160 247 175 c 0
 358 198 373 249 373 284 c 0
 373 340 309 406 216 406 c 0
 145 406 63 350 63 350 c 1
 118 294 l 1
 132 308 174 336 209 336 c 0
 258 336 283 311 283 291 c 0
 283 256 244 256 195 242 c 0
 106 217 62 192 62 125 c 0
 62 64 113 -14 216 -14 c 0
 328 -14 399 56 399 56 c 1
EndSplineSet
EndChar

StartChar: uni01C4
Encoding: 452 452 301
Width: 1027
Flags: MW
HStem: 0 84<189 273 273 280 684 943> 476 84<189 273 189 189 572 817> 634 168<598 717 598 791>
VStem: 91 98<84 476 84 560 84 560> 420 102<213.5 346.5> 598 312<802 802>
LayerCount: 2
Fore
SplineSet
717 634 m 1
 598 802 l 1
 652 802 l 1
 754 704 l 1
 856 802 l 1
 910 802 l 1
 791 634 l 1
 717 634 l 1
565 0 m 1
 565 91 l 1
 817 476 l 1
 572 476 l 1
 572 560 l 1
 936 560 l 1
 936 469 l 1
 684 84 l 1
 943 84 l 1
 943 0 l 1
 565 0 l 1
280 560 m 2
 434 560 522 442 522 280 c 0
 522 118 434 0 280 0 c 2
 91 0 l 1
 91 560 l 1
 280 560 l 2
273 476 m 2
 189 476 l 1
 189 84 l 1
 273 84 l 2
 350 84 420 147 420 280 c 0
 420 413 350 476 273 476 c 2
EndSplineSet
EndChar

StartChar: uni01C5
Encoding: 453 453 302
Width: 965
Flags: MW
HStem: 0 77<589 589 694 876> 0 84<189 273 273 280> 315 77<589 771 589 869> 466 168<573 692 573 766> 476 84<189 273 189 189>
VStem: 91 98<84 476 84 560 84 560> 420 102<213.5 346.5> 573 312<634 634> 589 287<0 77 0 77 0 392>
LayerCount: 2
Fore
SplineSet
692 466 m 1x11
 573 634 l 1
 627 634 l 1
 729 536 l 1
 831 634 l 1
 885 634 l 1
 766 466 l 1
 692 466 l 1x11
589 0 m 1xa080
 589 77 l 1
 771 315 l 1
 589 315 l 1
 589 392 l 1
 869 392 l 1
 869 308 l 1
 694 77 l 1
 876 77 l 1
 876 0 l 1
 589 0 l 1xa080
280 560 m 2x4e
 434 560 522 442 522 280 c 0
 522 118 434 0 280 0 c 2
 91 0 l 1
 91 560 l 1
 280 560 l 2x4e
273 476 m 2
 189 476 l 1
 189 84 l 1
 273 84 l 2
 350 84 420 147 420 280 c 0
 420 413 350 476 273 476 c 2
EndSplineSet
EndChar

StartChar: uni01C6
Encoding: 454 454 303
Width: 871
Flags: MW
HStem: -14 77<234.5 279 234.5 294> 0 20G 0 77<371 497 602 784 497 497> 315 77<497 679 497 777> 336 70<238 277> 466 168<481 600 481 674> 539 21G
VStem: 84 84<154 238 154 283.5> 357 84<42 42 133 280 280 280 357 560 0 560> 371 70<0 560> 481 312<634 634> 497 287<0 77 0 77 0 392>
LayerCount: 2
Fore
SplineSet
259 -14 m 0x00
 189 -14 84 28 84 196 c 0
 84 371 217 406 259 406 c 0
 315 406 357 364 357 357 c 2
 357 560 l 1
 441 560 l 1
 441 0 l 1
 371 0 l 1
 368 17 363 31 357 42 c 1
 357 42 329 -14 259 -14 c 0x00
259 63 m 0
 299 63 336 91 357 133 c 1
 357 280 l 1
 336 315 295 336 259 336 c 0
 210 336 168 280 168 196 c 0
 168 112 210 63 259 63 c 0
600 466 m 1x0420
 481 634 l 1
 535 634 l 1
 637 536 l 1
 739 634 l 1
 793 634 l 1
 674 466 l 1
 600 466 l 1x0420
497 0 m 1x3010
 497 77 l 1
 679 315 l 1
 497 315 l 1
 497 392 l 1
 777 392 l 1
 777 308 l 1
 602 77 l 1
 784 77 l 1
 784 0 l 1
 497 0 l 1x3010
EndSplineSet
EndChar

StartChar: uni01C7
Encoding: 455 455 304
Width: 842
Flags: MW
HStem: -14 98<572.5 597> 0 84<189 441 189 441 189 485> 540 20G<91 189 189 189 646 744 744 744>
VStem: 91 98<84 560 84 560 84 560> 646 98<153.554 560>
LayerCount: 2
Fore
SplineSet
91 0 m 1x78
 91 560 l 1
 189 560 l 1
 189 84 l 1
 441 84 l 1
 441 0 l 1
 91 0 l 1x78
492 98 m 1xa8
 492 98 534 84 583 84 c 0
 611 84 646 105 646 153.553710938 c 2
 646 560 l 1
 744 560 l 1
 744 125.774414062 l 2
 744 59.8310546875 688 -14 590 -14 c 0
 555 -14 485 0 485 0 c 1
 492 98 l 1xa8
EndSplineSet
EndChar

StartChar: uni01C8
Encoding: 456 456 305
Width: 672
Flags: MW
HStem: -167.852 80.7067 0 84<189 441 189 441> 372 20G<504 588 504 588 504 588 588 588> 460 122<529.164 562.836> 540 20G<91 189 189 189>
VStem: 91 98<84 560 84 560 84 560> 485 122<504.164 537.836> 504 84<-56 392>
LayerCount: 2
Fore
SplineSet
91 0 m 1xec
 91 560 l 1
 189 560 l 1
 189 84 l 1
 441 84 l 1
 441 0 l 1
 91 0 l 1xec
504 392 m 1xa1
 588 392 l 1
 588 -70 l 2
 588 -132.8671875 532.236328125 -167.8515625 504.153320312 -167.8515625 c 0
 462.135742188 -167.740234375 440.987304688 -167.995117188 406 -154 c 1
 427 -84 l 1
 438.09765625 -85.79296875 449.638671875 -87.1455078125 460.3046875 -87.1455078125 c 0
 484.381835938 -87.1455078125 504 -80.255859375 504 -56 c 2
 504 392 l 1xa1
504 392 m 1
 588 392 l 1
 504 392 l 1
607 521 m 0x12
 607 487.328125 579.671875 460 546 460 c 0
 512.328125 460 485 487.328125 485 521 c 0
 485 554.671875 512.328125 582 546 582 c 0
 579.671875 582 607 554.671875 607 521 c 0x12
EndSplineSet
EndChar

StartChar: uni01C9
Encoding: 457 457 306
Width: 462
Flags: MW
HStem: -167.852 80.7067 -7 77<135 213.5 192.5 203> 372 20G<294 378 294 378 294 378 378 378> 460 122<319.164 352.836> 540 20G<84 168 168 168>
VStem: 84 84<91 105 105 560> 275 122<504.164 537.836> 294 84<-56 392>
LayerCount: 2
Fore
SplineSet
84 560 m 1x4c
 168 560 l 1
 168 105 l 2
 168 77 182 70 203 70 c 0
 224 70 245 77 245 77 c 1
 259 0 l 1
 238 -7 217 -7 203 -7 c 2
 161 -7 l 2
 109 -7 84 19 84 63 c 2
 84 560 l 1x4c
294 392 m 1xa1
 378 392 l 1
 378 -70 l 2
 378 -132.8671875 322.236328125 -167.8515625 294.153320312 -167.8515625 c 0
 252.135742188 -167.740234375 230.987304688 -167.995117188 196 -154 c 1
 217 -84 l 1
 228.09765625 -85.79296875 239.638671875 -87.1455078125 250.3046875 -87.1455078125 c 0
 274.381835938 -87.1455078125 294 -80.255859375 294 -56 c 2
 294 392 l 1xa1
294 392 m 1
 378 392 l 1
 294 392 l 1
397 521 m 0x12
 397 487.328125 369.671875 460 336 460 c 0
 302.328125 460 275 487.328125 275 521 c 0
 275 554.671875 302.328125 582 336 582 c 0
 369.671875 582 397 554.671875 397 521 c 0x12
EndSplineSet
EndChar

StartChar: uni01CA
Encoding: 458 458 307
Width: 904
Flags: MW
HStem: -14 98<648.5 673 634.5 715> 0 21G<84 84 84 182 392 392 392 504 561 561> 540 20G<84 196 196 196 406 504 504 504 722 820 820 820>
VStem: 84 98<0 406 0 560> 406 98<161 560 0 560> 722 98<153.554 560>
LayerCount: 2
Fore
SplineSet
568 98 m 1xa4
 568 98 610 84 659 84 c 0
 687 84 722 105 722 153.553710938 c 2
 722 560 l 1
 820 560 l 1
 820 125.774414062 l 2
 820 59.8310546875 764 -14 666 -14 c 0
 631 -14 561 0 561 0 c 1
 568 98 l 1xa4
84 0 m 1x78
 84 560 l 1
 196 560 l 1
 406 161 l 1
 406 560 l 1
 504 560 l 1
 504 0 l 1
 392 0 l 1
 182 406 l 1
 182 0 l 1
 84 0 l 1x78
EndSplineSet
EndChar

StartChar: uni01CB
Encoding: 459 459 308
Width: 754
Flags: MW
HStem: -167.852 80.7067 0 21G<84 84 84 182 392 392 392 504> 372 20G<586 670 586 670 586 670 670 670> 460 122<611.164 644.836> 540 20G<84 196 196 196 406 504 504 504>
VStem: 84 98<0 406 0 560> 406 98<161 560 0 560> 567 122<504.164 537.836> 586 84<-56 392>
LayerCount: 2
Fore
SplineSet
689 521 m 0x11
 689 487.328125 661.671875 460 628 460 c 0
 594.328125 460 567 487.328125 567 521 c 0
 567 554.671875 594.328125 582 628 582 c 0
 661.671875 582 689 554.671875 689 521 c 0x11
586 392 m 1xa080
 670 392 l 1
 670 -70 l 2
 670 -132.8671875 614.236328125 -167.8515625 586.153320312 -167.8515625 c 0
 544.135742188 -167.740234375 522.987304688 -167.995117188 488 -154 c 1
 509 -84 l 1
 520.09765625 -85.79296875 531.638671875 -87.1455078125 542.3046875 -87.1455078125 c 0
 566.381835938 -87.1455078125 586 -80.255859375 586 -56 c 2
 586 392 l 1xa080
586 392 m 1
 670 392 l 1
 586 392 l 1
84 0 m 1x4e
 84 560 l 1
 196 560 l 1
 406 161 l 1
 406 560 l 1
 504 560 l 1
 504 0 l 1
 392 0 l 1
 182 406 l 1
 182 0 l 1
 84 0 l 1x4e
EndSplineSet
EndChar

